<mxfile host="app.diagrams.net" modified="2022-11-14T09:59:59.572Z" agent="5.0 (Windows NT 10.0; Win64; x64) AppleWebKit/537.36 (KHTML, like Gecko) Chrome/107.0.0.0 Safari/537.36" etag="5d7hIzd1u8_lb1QiqlnC" version="20.5.3" type="github" pages="4">
  <diagram id="4lgrj3mp336xDfMQ0uTW" name="信航中心核心流程">
    <mxGraphModel dx="1550" dy="835" grid="1" gridSize="10" guides="1" tooltips="1" connect="1" arrows="1" fold="1" page="1" pageScale="1" pageWidth="827" pageHeight="1169" math="0" shadow="0">
      <root>
        <mxCell id="0" />
        <mxCell id="1" parent="0" />
        <mxCell id="7ftw-xkcRDEcuufJaLak-1" value="" style="rounded=0;html=1;jettySize=auto;orthogonalLoop=1;fontSize=13;endArrow=block;endFill=0;endSize=8;strokeWidth=2;shadow=0;labelBackgroundColor=none;edgeStyle=orthogonalEdgeStyle;fillColor=#d5e8d4;strokeColor=#82b366;" parent="1" source="7ftw-xkcRDEcuufJaLak-2" target="7ftw-xkcRDEcuufJaLak-5" edge="1">
          <mxGeometry relative="1" as="geometry" />
        </mxCell>
        <mxCell id="7ftw-xkcRDEcuufJaLak-2" value="信航中心创建任务" style="rounded=1;whiteSpace=wrap;html=1;fontSize=13;glass=0;strokeWidth=1;shadow=0;fillColor=#dae8fc;strokeColor=#6c8ebf;" parent="1" vertex="1">
          <mxGeometry x="179" y="211" width="120" height="40" as="geometry" />
        </mxCell>
        <mxCell id="7ftw-xkcRDEcuufJaLak-3" value="" style="edgeStyle=orthogonalEdgeStyle;rounded=0;html=1;jettySize=auto;orthogonalLoop=1;fontSize=13;endArrow=block;endFill=0;endSize=8;strokeWidth=2;shadow=0;labelBackgroundColor=none;fillColor=#f8cecc;strokeColor=#b85450;" parent="1" source="7ftw-xkcRDEcuufJaLak-5" target="7ftw-xkcRDEcuufJaLak-7" edge="1">
          <mxGeometry y="10" relative="1" as="geometry">
            <mxPoint as="offset" />
          </mxGeometry>
        </mxCell>
        <mxCell id="7ftw-xkcRDEcuufJaLak-4" value="" style="edgeStyle=orthogonalEdgeStyle;rounded=0;orthogonalLoop=1;jettySize=auto;html=1;strokeWidth=2;fontSize=13;endArrow=block;endFill=0;fillColor=#d5e8d4;strokeColor=#82b366;" parent="1" source="7ftw-xkcRDEcuufJaLak-5" target="7ftw-xkcRDEcuufJaLak-11" edge="1">
          <mxGeometry relative="1" as="geometry" />
        </mxCell>
        <mxCell id="ElStG_bO079be_FlttDk-2" style="edgeStyle=orthogonalEdgeStyle;rounded=0;orthogonalLoop=1;jettySize=auto;html=1;exitX=0.5;exitY=1;exitDx=0;exitDy=0;entryX=0.5;entryY=0;entryDx=0;entryDy=0;fontSize=13;endArrow=block;strokeColor=#82b366;strokeWidth=2;endFill=0;fillColor=#d5e8d4;" edge="1" parent="1" source="7ftw-xkcRDEcuufJaLak-5" target="ElStG_bO079be_FlttDk-1">
          <mxGeometry relative="1" as="geometry" />
        </mxCell>
        <mxCell id="7ftw-xkcRDEcuufJaLak-5" value="创建人ERP是否在虚拟组？" style="rhombus;whiteSpace=wrap;html=1;shadow=0;fontFamily=Helvetica;fontSize=13;align=center;strokeWidth=1;spacing=6;spacingTop=-4;fillColor=#ffe6cc;strokeColor=#d79b00;" parent="1" vertex="1">
          <mxGeometry x="184" y="301" width="110" height="79" as="geometry" />
        </mxCell>
        <mxCell id="7ftw-xkcRDEcuufJaLak-6" style="edgeStyle=orthogonalEdgeStyle;rounded=0;orthogonalLoop=1;jettySize=auto;html=1;entryX=1;entryY=0.5;entryDx=0;entryDy=0;strokeWidth=2;fontSize=13;fontColor=#000000;endArrow=block;endFill=0;exitX=0.5;exitY=0;exitDx=0;exitDy=0;fillColor=#f8cecc;strokeColor=#b85450;" parent="1" source="7ftw-xkcRDEcuufJaLak-7" target="7ftw-xkcRDEcuufJaLak-2" edge="1">
          <mxGeometry relative="1" as="geometry">
            <mxPoint x="459" y="310" as="sourcePoint" />
            <Array as="points">
              <mxPoint x="439" y="231" />
            </Array>
          </mxGeometry>
        </mxCell>
        <mxCell id="7ftw-xkcRDEcuufJaLak-7" value="提示错误信息" style="rounded=1;whiteSpace=wrap;html=1;fontSize=13;glass=0;strokeWidth=1;shadow=0;fillColor=#f8cecc;strokeColor=#b85450;" parent="1" vertex="1">
          <mxGeometry x="379" y="321" width="120" height="40" as="geometry" />
        </mxCell>
        <mxCell id="ElStG_bO079be_FlttDk-7" value="" style="edgeStyle=orthogonalEdgeStyle;rounded=0;orthogonalLoop=1;jettySize=auto;html=1;fontSize=13;fontColor=default;endArrow=block;strokeColor=#82b366;strokeWidth=2;endFill=0;fillColor=#d5e8d4;" edge="1" parent="1" source="7ftw-xkcRDEcuufJaLak-9" target="ElStG_bO079be_FlttDk-3">
          <mxGeometry relative="1" as="geometry" />
        </mxCell>
        <mxCell id="7ftw-xkcRDEcuufJaLak-9" value="任务单变为待认领" style="rounded=1;whiteSpace=wrap;html=1;fontSize=13;glass=0;strokeWidth=1;shadow=0;fillColor=#dae8fc;strokeColor=#6c8ebf;" parent="1" vertex="1">
          <mxGeometry x="179" y="512" width="120" height="40" as="geometry" />
        </mxCell>
        <mxCell id="7ftw-xkcRDEcuufJaLak-10" value="" style="edgeStyle=orthogonalEdgeStyle;rounded=0;orthogonalLoop=1;jettySize=auto;html=1;strokeWidth=2;fontSize=13;endArrow=block;endFill=0;fillColor=#d5e8d4;strokeColor=#82b366;" parent="1" source="7ftw-xkcRDEcuufJaLak-11" target="7ftw-xkcRDEcuufJaLak-9" edge="1">
          <mxGeometry relative="1" as="geometry" />
        </mxCell>
        <mxCell id="7ftw-xkcRDEcuufJaLak-11" value="转派虚拟组" style="rounded=1;whiteSpace=wrap;html=1;fontSize=13;glass=0;strokeWidth=1;shadow=0;fillColor=#dae8fc;strokeColor=#6c8ebf;" parent="1" vertex="1">
          <mxGeometry x="179" y="433" width="120" height="40" as="geometry" />
        </mxCell>
        <mxCell id="7ftw-xkcRDEcuufJaLak-12" value="" style="endArrow=none;dashed=1;html=1;rounded=0;fontSize=13;strokeWidth=1;" parent="1" edge="1">
          <mxGeometry width="50" height="50" relative="1" as="geometry">
            <mxPoint x="20" y="166" as="sourcePoint" />
            <mxPoint x="680" y="166" as="targetPoint" />
          </mxGeometry>
        </mxCell>
        <mxCell id="7ftw-xkcRDEcuufJaLak-13" style="edgeStyle=orthogonalEdgeStyle;rounded=0;orthogonalLoop=1;jettySize=auto;html=1;strokeWidth=2;fontSize=13;endArrow=block;endFill=0;entryX=0;entryY=0.5;entryDx=0;entryDy=0;fillColor=#f8cecc;strokeColor=#b85450;exitX=0;exitY=0.5;exitDx=0;exitDy=0;" parent="1" edge="1" source="ElStG_bO079be_FlttDk-4">
          <mxGeometry relative="1" as="geometry">
            <mxPoint x="118" y="830" as="sourcePoint" />
            <mxPoint x="178" y="453" as="targetPoint" />
            <Array as="points">
              <mxPoint x="118" y="845" />
              <mxPoint x="118" y="453" />
            </Array>
          </mxGeometry>
        </mxCell>
        <mxCell id="7ftw-xkcRDEcuufJaLak-14" value="" style="edgeStyle=orthogonalEdgeStyle;rounded=0;orthogonalLoop=1;jettySize=auto;html=1;strokeWidth=2;fontSize=13;fontColor=#000000;endArrow=block;endFill=0;fillColor=#d5e8d4;strokeColor=#82b366;entryX=0.5;entryY=0;entryDx=0;entryDy=0;exitX=0.5;exitY=1;exitDx=0;exitDy=0;" parent="1" source="ElStG_bO079be_FlttDk-3" target="7ftw-xkcRDEcuufJaLak-44" edge="1">
          <mxGeometry relative="1" as="geometry">
            <mxPoint x="239.5" y="680" as="sourcePoint" />
          </mxGeometry>
        </mxCell>
        <mxCell id="7ftw-xkcRDEcuufJaLak-16" value="NO" style="text;html=1;strokeColor=none;fillColor=none;align=center;verticalAlign=middle;whiteSpace=wrap;rounded=0;fontSize=13;fontStyle=1" parent="1" vertex="1">
          <mxGeometry x="299" y="310" width="60" height="30" as="geometry" />
        </mxCell>
        <mxCell id="7ftw-xkcRDEcuufJaLak-17" value="YES" style="text;html=1;strokeColor=none;fillColor=none;align=center;verticalAlign=middle;whiteSpace=wrap;rounded=0;fontSize=13;fontStyle=1" parent="1" vertex="1">
          <mxGeometry x="184.25" y="390" width="60" height="30" as="geometry" />
        </mxCell>
        <mxCell id="ElStG_bO079be_FlttDk-9" value="" style="edgeStyle=orthogonalEdgeStyle;rounded=0;orthogonalLoop=1;jettySize=auto;html=1;fontSize=13;fontColor=#000000;endArrow=block;strokeColor=#82b366;strokeWidth=2;endFill=0;fillColor=#d5e8d4;" edge="1" parent="1" source="7ftw-xkcRDEcuufJaLak-20" target="ElStG_bO079be_FlttDk-4">
          <mxGeometry relative="1" as="geometry" />
        </mxCell>
        <mxCell id="7ftw-xkcRDEcuufJaLak-20" value="操作处理任务" style="rounded=1;whiteSpace=wrap;html=1;fontSize=13;glass=0;strokeWidth=1;shadow=0;fillColor=#dae8fc;strokeColor=#6c8ebf;" parent="1" vertex="1">
          <mxGeometry x="179" y="740" width="120" height="40" as="geometry" />
        </mxCell>
        <mxCell id="7ftw-xkcRDEcuufJaLak-22" value="" style="edgeStyle=orthogonalEdgeStyle;rounded=0;orthogonalLoop=1;jettySize=auto;html=1;strokeWidth=2;fontSize=13;fontColor=#000000;endArrow=block;endFill=0;fillColor=#d5e8d4;strokeColor=#82b366;" parent="1" source="7ftw-xkcRDEcuufJaLak-24" target="7ftw-xkcRDEcuufJaLak-26" edge="1">
          <mxGeometry relative="1" as="geometry" />
        </mxCell>
        <mxCell id="7ftw-xkcRDEcuufJaLak-23" value="" style="edgeStyle=orthogonalEdgeStyle;rounded=0;orthogonalLoop=1;jettySize=auto;html=1;strokeWidth=2;fontSize=13;fontColor=#000000;endArrow=block;endFill=0;fillColor=#d5e8d4;strokeColor=#82b366;entryX=0;entryY=0.5;entryDx=0;entryDy=0;" parent="1" source="7ftw-xkcRDEcuufJaLak-24" target="7ftw-xkcRDEcuufJaLak-33" edge="1">
          <mxGeometry relative="1" as="geometry" />
        </mxCell>
        <mxCell id="7ftw-xkcRDEcuufJaLak-24" value="确认人ERP是否在结算组？" style="rhombus;whiteSpace=wrap;html=1;fontSize=13;rounded=0;glass=0;strokeWidth=1;shadow=0;fillColor=#ffe6cc;strokeColor=#d79b00;" parent="1" vertex="1">
          <mxGeometry x="177" y="913" width="123" height="77" as="geometry" />
        </mxCell>
        <mxCell id="7ftw-xkcRDEcuufJaLak-25" value="" style="edgeStyle=orthogonalEdgeStyle;rounded=0;orthogonalLoop=1;jettySize=auto;html=1;strokeWidth=2;fontSize=13;fontColor=#000000;endArrow=block;endFill=0;fillColor=#d5e8d4;strokeColor=#82b366;" parent="1" source="7ftw-xkcRDEcuufJaLak-26" target="7ftw-xkcRDEcuufJaLak-29" edge="1">
          <mxGeometry relative="1" as="geometry" />
        </mxCell>
        <mxCell id="7ftw-xkcRDEcuufJaLak-26" value="待发起人确认" style="rounded=1;whiteSpace=wrap;html=1;fontSize=13;glass=0;strokeWidth=1;shadow=0;fillColor=#dae8fc;strokeColor=#6c8ebf;" parent="1" vertex="1">
          <mxGeometry x="179" y="1041" width="120" height="40" as="geometry" />
        </mxCell>
        <mxCell id="7ftw-xkcRDEcuufJaLak-27" style="edgeStyle=orthogonalEdgeStyle;rounded=0;orthogonalLoop=1;jettySize=auto;html=1;strokeWidth=2;fontSize=13;fontColor=#000000;endArrow=block;endFill=0;fillColor=#f8cecc;strokeColor=#b85450;exitX=0;exitY=0.5;exitDx=0;exitDy=0;" parent="1" source="7ftw-xkcRDEcuufJaLak-29" edge="1">
          <mxGeometry relative="1" as="geometry">
            <mxPoint x="120" y="840" as="targetPoint" />
            <Array as="points">
              <mxPoint x="120" y="1165" />
            </Array>
          </mxGeometry>
        </mxCell>
        <mxCell id="7ftw-xkcRDEcuufJaLak-28" value="" style="edgeStyle=orthogonalEdgeStyle;rounded=0;orthogonalLoop=1;jettySize=auto;html=1;strokeWidth=2;fontSize=13;fontColor=#000000;endArrow=block;endFill=0;fillColor=#d5e8d4;strokeColor=#82b366;" parent="1" source="7ftw-xkcRDEcuufJaLak-29" target="7ftw-xkcRDEcuufJaLak-31" edge="1">
          <mxGeometry relative="1" as="geometry" />
        </mxCell>
        <mxCell id="7ftw-xkcRDEcuufJaLak-29" value="转派or关单" style="rhombus;whiteSpace=wrap;html=1;fontSize=13;rounded=0;glass=0;strokeWidth=1;shadow=0;fillColor=#ffe6cc;strokeColor=#d79b00;" parent="1" vertex="1">
          <mxGeometry x="186" y="1130" width="106" height="70" as="geometry" />
        </mxCell>
        <mxCell id="7ftw-xkcRDEcuufJaLak-30" value="转派" style="text;html=1;strokeColor=none;fillColor=none;align=center;verticalAlign=middle;whiteSpace=wrap;rounded=0;fontSize=13;fontStyle=1" parent="1" vertex="1">
          <mxGeometry x="124" y="1139" width="60" height="30" as="geometry" />
        </mxCell>
        <mxCell id="7ftw-xkcRDEcuufJaLak-31" value="结束" style="rounded=1;whiteSpace=wrap;html=1;fontSize=13;glass=0;strokeWidth=1;shadow=0;fillColor=#dae8fc;strokeColor=#6c8ebf;" parent="1" vertex="1">
          <mxGeometry x="179" y="1249" width="120" height="40" as="geometry" />
        </mxCell>
        <mxCell id="ElStG_bO079be_FlttDk-16" value="" style="edgeStyle=orthogonalEdgeStyle;rounded=0;orthogonalLoop=1;jettySize=auto;html=1;fontSize=13;fontColor=#000000;endArrow=block;strokeColor=#82b366;strokeWidth=2;endFill=0;fillColor=#d5e8d4;" edge="1" parent="1" source="7ftw-xkcRDEcuufJaLak-33" target="ElStG_bO079be_FlttDk-15">
          <mxGeometry relative="1" as="geometry" />
        </mxCell>
        <mxCell id="7ftw-xkcRDEcuufJaLak-33" value="查找任务流转过程中最后一个结算组ERP" style="rounded=1;whiteSpace=wrap;html=1;fontSize=13;glass=0;strokeWidth=1;shadow=0;fillColor=#dae8fc;strokeColor=#6c8ebf;" parent="1" vertex="1">
          <mxGeometry x="367" y="806.25" width="132" height="57.5" as="geometry" />
        </mxCell>
        <mxCell id="7ftw-xkcRDEcuufJaLak-34" value="YES" style="text;html=1;strokeColor=none;fillColor=none;align=center;verticalAlign=middle;whiteSpace=wrap;rounded=0;fontSize=13;fontStyle=1" parent="1" vertex="1">
          <mxGeometry x="184" y="996" width="60" height="30" as="geometry" />
        </mxCell>
        <mxCell id="7ftw-xkcRDEcuufJaLak-35" value="NO" style="text;html=1;strokeColor=none;fillColor=none;align=center;verticalAlign=middle;whiteSpace=wrap;rounded=0;fontSize=13;fontStyle=1" parent="1" vertex="1">
          <mxGeometry x="319" y="900" width="60" height="30" as="geometry" />
        </mxCell>
        <mxCell id="7ftw-xkcRDEcuufJaLak-37" style="edgeStyle=orthogonalEdgeStyle;rounded=0;orthogonalLoop=1;jettySize=auto;html=1;entryX=0.5;entryY=1;entryDx=0;entryDy=0;strokeWidth=2;fontSize=13;fontColor=#000000;endArrow=block;endFill=0;fillColor=#f8cecc;strokeColor=#b85450;" parent="1" target="7ftw-xkcRDEcuufJaLak-5" edge="1">
          <mxGeometry relative="1" as="geometry">
            <Array as="points">
              <mxPoint x="670" y="1062" />
              <mxPoint x="730" y="1062" />
              <mxPoint x="730" y="380" />
            </Array>
            <mxPoint x="670" y="1060" as="sourcePoint" />
          </mxGeometry>
        </mxCell>
        <mxCell id="ElStG_bO079be_FlttDk-23" value="" style="edgeStyle=orthogonalEdgeStyle;rounded=0;orthogonalLoop=1;jettySize=auto;html=1;fontSize=13;fontColor=#000000;endArrow=block;strokeColor=#82b366;strokeWidth=2;endFill=0;fillColor=#d5e8d4;" edge="1" parent="1" source="7ftw-xkcRDEcuufJaLak-41" target="ElStG_bO079be_FlttDk-22">
          <mxGeometry relative="1" as="geometry" />
        </mxCell>
        <mxCell id="7ftw-xkcRDEcuufJaLak-41" value="任务单变为&lt;br&gt;待过程结算确认" style="rounded=1;whiteSpace=wrap;html=1;fontSize=13;glass=0;strokeWidth=1;shadow=0;fillColor=#dae8fc;strokeColor=#6c8ebf;" parent="1" vertex="1">
          <mxGeometry x="550" y="934.5" width="120" height="40" as="geometry" />
        </mxCell>
        <mxCell id="7ftw-xkcRDEcuufJaLak-43" style="edgeStyle=orthogonalEdgeStyle;rounded=0;orthogonalLoop=1;jettySize=auto;html=1;entryX=0.5;entryY=0;entryDx=0;entryDy=0;strokeWidth=2;fontSize=13;fontColor=#000000;endArrow=block;endFill=0;fillColor=#d5e8d4;strokeColor=#82b366;" parent="1" source="7ftw-xkcRDEcuufJaLak-44" target="7ftw-xkcRDEcuufJaLak-20" edge="1">
          <mxGeometry relative="1" as="geometry" />
        </mxCell>
        <mxCell id="7ftw-xkcRDEcuufJaLak-44" value="任务单变为待处理" style="rounded=1;whiteSpace=wrap;html=1;fontSize=13;glass=0;strokeWidth=1;shadow=0;fillColor=#dae8fc;strokeColor=#6c8ebf;" parent="1" vertex="1">
          <mxGeometry x="179.75" y="668" width="119.5" height="39" as="geometry" />
        </mxCell>
        <mxCell id="7ftw-xkcRDEcuufJaLak-45" value="金额申诉" style="rounded=1;whiteSpace=wrap;html=1;fontSize=13;glass=0;strokeWidth=1;shadow=0;fillColor=#dae8fc;strokeColor=#6c8ebf;" parent="1" vertex="1">
          <mxGeometry x="105" y="85" width="120" height="40" as="geometry" />
        </mxCell>
        <mxCell id="7ftw-xkcRDEcuufJaLak-46" value="运输" style="rounded=1;whiteSpace=wrap;html=1;fontSize=13;glass=0;strokeWidth=1;shadow=0;fillColor=#dae8fc;strokeColor=#6c8ebf;" parent="1" vertex="1">
          <mxGeometry x="270" y="85" width="120" height="40" as="geometry" />
        </mxCell>
        <mxCell id="7ftw-xkcRDEcuufJaLak-47" value="……" style="rounded=1;whiteSpace=wrap;html=1;fontSize=13;glass=0;strokeWidth=1;shadow=0;fillColor=#dae8fc;strokeColor=#6c8ebf;" parent="1" vertex="1">
          <mxGeometry x="430" y="85" width="120" height="40" as="geometry" />
        </mxCell>
        <mxCell id="7ftw-xkcRDEcuufJaLak-48" value="" style="shape=flexArrow;endArrow=classic;html=1;strokeWidth=2;fontSize=13;fontColor=#000000;curved=1;fillColor=#d5e8d4;strokeColor=#82b366;" parent="1" edge="1">
          <mxGeometry width="50" height="50" relative="1" as="geometry">
            <mxPoint x="242.5" y="140" as="sourcePoint" />
            <mxPoint x="242.5" y="191" as="targetPoint" />
            <Array as="points">
              <mxPoint x="243" y="160" />
            </Array>
          </mxGeometry>
        </mxCell>
        <mxCell id="ElStG_bO079be_FlttDk-5" style="edgeStyle=orthogonalEdgeStyle;rounded=0;orthogonalLoop=1;jettySize=auto;html=1;entryX=1;entryY=0.5;entryDx=0;entryDy=0;fontSize=13;exitX=0.5;exitY=1;exitDx=0;exitDy=0;endArrow=block;strokeColor=#82b366;strokeWidth=2;endFill=0;fillColor=#d5e8d4;" edge="1" parent="1" source="ElStG_bO079be_FlttDk-1" target="7ftw-xkcRDEcuufJaLak-44">
          <mxGeometry relative="1" as="geometry" />
        </mxCell>
        <mxCell id="ElStG_bO079be_FlttDk-1" value="转派ERP" style="rounded=1;whiteSpace=wrap;html=1;fontSize=13;glass=0;strokeWidth=1;shadow=0;fillColor=#dae8fc;strokeColor=#6c8ebf;" vertex="1" parent="1">
          <mxGeometry x="340" y="433" width="120" height="40" as="geometry" />
        </mxCell>
        <mxCell id="ElStG_bO079be_FlttDk-3" value="虚拟组下某ERP&lt;br&gt;操作认领" style="rounded=1;whiteSpace=wrap;html=1;fontSize=13;glass=0;strokeWidth=1;shadow=0;fillColor=#dae8fc;strokeColor=#6c8ebf;" vertex="1" parent="1">
          <mxGeometry x="174.75" y="590" width="129.5" height="40" as="geometry" />
        </mxCell>
        <mxCell id="ElStG_bO079be_FlttDk-10" value="" style="edgeStyle=orthogonalEdgeStyle;rounded=0;orthogonalLoop=1;jettySize=auto;html=1;fontSize=13;fontColor=#000000;endArrow=block;strokeColor=#82b366;strokeWidth=2;endFill=0;fillColor=#d5e8d4;" edge="1" parent="1" source="ElStG_bO079be_FlttDk-4" target="7ftw-xkcRDEcuufJaLak-24">
          <mxGeometry relative="1" as="geometry" />
        </mxCell>
        <mxCell id="ElStG_bO079be_FlttDk-4" value="转派or确认？" style="rhombus;whiteSpace=wrap;html=1;fontSize=13;rounded=0;glass=0;strokeWidth=1;shadow=0;fillColor=#ffe6cc;strokeColor=#d79b00;" vertex="1" parent="1">
          <mxGeometry x="181.5" y="810" width="115" height="70" as="geometry" />
        </mxCell>
        <mxCell id="ElStG_bO079be_FlttDk-6" value="&lt;b style=&quot;&quot;&gt;&lt;font color=&quot;#0000ff&quot;&gt;自动变为待处理状态&lt;/font&gt;&lt;/b&gt;" style="text;html=1;strokeColor=none;fillColor=none;align=center;verticalAlign=middle;whiteSpace=wrap;rounded=0;fontSize=13;" vertex="1" parent="1">
          <mxGeometry x="400" y="550" width="130" height="40" as="geometry" />
        </mxCell>
        <mxCell id="ElStG_bO079be_FlttDk-13" value="转派" style="text;html=1;strokeColor=none;fillColor=none;align=center;verticalAlign=middle;whiteSpace=wrap;rounded=0;fontSize=13;fontStyle=1" vertex="1" parent="1">
          <mxGeometry x="124.25" y="820" width="60" height="30" as="geometry" />
        </mxCell>
        <mxCell id="ElStG_bO079be_FlttDk-14" value="确认" style="text;html=1;strokeColor=none;fillColor=none;align=center;verticalAlign=middle;whiteSpace=wrap;rounded=0;fontSize=13;fontStyle=1" vertex="1" parent="1">
          <mxGeometry x="234" y="880" width="60" height="30" as="geometry" />
        </mxCell>
        <mxCell id="ElStG_bO079be_FlttDk-17" style="edgeStyle=orthogonalEdgeStyle;rounded=0;orthogonalLoop=1;jettySize=auto;html=1;fontSize=13;fontColor=#000000;exitX=0.5;exitY=1;exitDx=0;exitDy=0;endArrow=block;strokeColor=#82b366;strokeWidth=2;endFill=0;fillColor=#d5e8d4;" edge="1" parent="1" source="ElStG_bO079be_FlttDk-15">
          <mxGeometry relative="1" as="geometry">
            <mxPoint x="433" y="1060" as="targetPoint" />
          </mxGeometry>
        </mxCell>
        <mxCell id="ElStG_bO079be_FlttDk-19" value="" style="edgeStyle=orthogonalEdgeStyle;rounded=0;orthogonalLoop=1;jettySize=auto;html=1;fontSize=13;fontColor=#000000;endArrow=block;strokeColor=#82b366;strokeWidth=2;endFill=0;fillColor=#d5e8d4;" edge="1" parent="1" source="ElStG_bO079be_FlttDk-15" target="7ftw-xkcRDEcuufJaLak-41">
          <mxGeometry relative="1" as="geometry" />
        </mxCell>
        <mxCell id="ElStG_bO079be_FlttDk-15" value="是否找到？" style="rhombus;whiteSpace=wrap;html=1;fontSize=13;rounded=0;glass=0;strokeWidth=1;shadow=0;fillColor=#ffe6cc;strokeColor=#d79b00;" vertex="1" parent="1">
          <mxGeometry x="375.5" y="919.5" width="115" height="70" as="geometry" />
        </mxCell>
        <mxCell id="ElStG_bO079be_FlttDk-18" value="NO" style="text;html=1;strokeColor=none;fillColor=none;align=center;verticalAlign=middle;whiteSpace=wrap;rounded=0;fontSize=13;fontStyle=1" vertex="1" parent="1">
          <mxGeometry x="390" y="996" width="60" height="30" as="geometry" />
        </mxCell>
        <mxCell id="ElStG_bO079be_FlttDk-20" value="YES" style="text;html=1;strokeColor=none;fillColor=none;align=center;verticalAlign=middle;whiteSpace=wrap;rounded=0;fontSize=13;fontStyle=1" vertex="1" parent="1">
          <mxGeometry x="480" y="930" width="60" height="30" as="geometry" />
        </mxCell>
        <mxCell id="ElStG_bO079be_FlttDk-30" style="edgeStyle=orthogonalEdgeStyle;rounded=0;orthogonalLoop=1;jettySize=auto;html=1;fontSize=13;fontColor=#000000;endArrow=block;strokeColor=#82b366;strokeWidth=2;endFill=0;fillColor=#d5e8d4;" edge="1" parent="1" source="ElStG_bO079be_FlttDk-22">
          <mxGeometry relative="1" as="geometry">
            <mxPoint x="300" y="1060" as="targetPoint" />
          </mxGeometry>
        </mxCell>
        <mxCell id="ElStG_bO079be_FlttDk-22" value="转派or确认？" style="rhombus;whiteSpace=wrap;html=1;fontSize=13;rounded=0;glass=0;strokeWidth=1;shadow=0;fillColor=#ffe6cc;strokeColor=#d79b00;" vertex="1" parent="1">
          <mxGeometry x="553" y="1025" width="115" height="70" as="geometry" />
        </mxCell>
        <mxCell id="ElStG_bO079be_FlttDk-31" value="确认" style="text;html=1;strokeColor=none;fillColor=none;align=center;verticalAlign=middle;whiteSpace=wrap;rounded=0;fontSize=13;fontStyle=1" vertex="1" parent="1">
          <mxGeometry x="487" y="1031" width="60" height="30" as="geometry" />
        </mxCell>
        <mxCell id="ElStG_bO079be_FlttDk-32" value="转派" style="text;html=1;strokeColor=none;fillColor=none;align=center;verticalAlign=middle;whiteSpace=wrap;rounded=0;fontSize=13;fontStyle=1" vertex="1" parent="1">
          <mxGeometry x="660" y="1031" width="60" height="30" as="geometry" />
        </mxCell>
      </root>
    </mxGraphModel>
  </diagram>
  <diagram id="zkCcTM8fq7JFRcWxrbdX" name="寻找确认结算组">
    <mxGraphModel dx="1550" dy="835" grid="1" gridSize="10" guides="1" tooltips="1" connect="1" arrows="1" fold="1" page="1" pageScale="1" pageWidth="827" pageHeight="1169" math="0" shadow="0">
      <root>
        <mxCell id="0" />
        <mxCell id="1" parent="0" />
        <mxCell id="4yWfeNI9m5NWleD1tJs8-2" value="" style="edgeStyle=orthogonalEdgeStyle;rounded=0;orthogonalLoop=1;jettySize=auto;html=1;" edge="1" parent="1" source="Z7CWqkrv_SDCrBXKE-1I-1" target="4yWfeNI9m5NWleD1tJs8-1">
          <mxGeometry relative="1" as="geometry" />
        </mxCell>
        <mxCell id="Z7CWqkrv_SDCrBXKE-1I-1" value="已认领任务" style="rounded=0;whiteSpace=wrap;html=1;fontSize=13;glass=0;strokeWidth=1;shadow=0;fillColor=#d5e8d4;strokeColor=#82b366;" vertex="1" parent="1">
          <mxGeometry x="24" y="169.5" width="96" height="40.5" as="geometry" />
        </mxCell>
        <mxCell id="4yWfeNI9m5NWleD1tJs8-5" value="" style="edgeStyle=orthogonalEdgeStyle;rounded=0;orthogonalLoop=1;jettySize=auto;html=1;" edge="1" parent="1" source="Z7CWqkrv_SDCrBXKE-1I-2" target="4yWfeNI9m5NWleD1tJs8-4">
          <mxGeometry relative="1" as="geometry" />
        </mxCell>
        <mxCell id="u2u1sDKU7REfBMXMlNqq-2" value="" style="edgeStyle=orthogonalEdgeStyle;rounded=0;orthogonalLoop=1;jettySize=auto;html=1;" edge="1" parent="1" source="Z7CWqkrv_SDCrBXKE-1I-2" target="u2u1sDKU7REfBMXMlNqq-1">
          <mxGeometry relative="1" as="geometry" />
        </mxCell>
        <mxCell id="Z7CWqkrv_SDCrBXKE-1I-2" value="确认人是否属于结算组" style="rhombus;whiteSpace=wrap;html=1;shadow=0;fontFamily=Helvetica;fontSize=13;align=center;strokeWidth=1;spacing=6;spacingTop=-4;fillColor=#ffe6cc;strokeColor=#d79b00;" vertex="1" parent="1">
          <mxGeometry x="339" y="150" width="110" height="79" as="geometry" />
        </mxCell>
        <mxCell id="4yWfeNI9m5NWleD1tJs8-3" value="" style="edgeStyle=orthogonalEdgeStyle;rounded=0;orthogonalLoop=1;jettySize=auto;html=1;" edge="1" parent="1" source="4yWfeNI9m5NWleD1tJs8-1" target="Z7CWqkrv_SDCrBXKE-1I-2">
          <mxGeometry relative="1" as="geometry" />
        </mxCell>
        <mxCell id="4yWfeNI9m5NWleD1tJs8-1" value="认领人操作确认" style="rounded=0;whiteSpace=wrap;html=1;fontSize=13;glass=0;strokeWidth=1;shadow=0;fillColor=#d5e8d4;strokeColor=#82b366;" vertex="1" parent="1">
          <mxGeometry x="166" y="169.5" width="120" height="40" as="geometry" />
        </mxCell>
        <mxCell id="ZDNPm4Z6J83ZKpsJVjza-9" value="" style="edgeStyle=orthogonalEdgeStyle;rounded=0;orthogonalLoop=1;jettySize=auto;html=1;fontSize=13;" edge="1" parent="1" source="4yWfeNI9m5NWleD1tJs8-4" target="ZDNPm4Z6J83ZKpsJVjza-8">
          <mxGeometry relative="1" as="geometry" />
        </mxCell>
        <mxCell id="4yWfeNI9m5NWleD1tJs8-4" value="查找任务流转表：&lt;br&gt;倒序，找到最后一条满足结算组类型的ERP" style="rounded=0;whiteSpace=wrap;html=1;fontSize=13;glass=0;strokeWidth=1;shadow=0;fillColor=#dae8fc;strokeColor=#6c8ebf;" vertex="1" parent="1">
          <mxGeometry x="330" y="280" width="128" height="70" as="geometry" />
        </mxCell>
        <mxCell id="4yWfeNI9m5NWleD1tJs8-6" value="NO" style="text;html=1;strokeColor=none;fillColor=none;align=center;verticalAlign=middle;whiteSpace=wrap;rounded=0;" vertex="1" parent="1">
          <mxGeometry x="376" y="240" width="60" height="30" as="geometry" />
        </mxCell>
        <mxCell id="ZDNPm4Z6J83ZKpsJVjza-1" value="" style="edgeStyle=orthogonalEdgeStyle;rounded=0;orthogonalLoop=1;jettySize=auto;html=1;" edge="1" parent="1" source="4yWfeNI9m5NWleD1tJs8-7" target="u2u1sDKU7REfBMXMlNqq-1">
          <mxGeometry relative="1" as="geometry" />
        </mxCell>
        <mxCell id="4yWfeNI9m5NWleD1tJs8-7" value="待处理ERP操作确认" style="rounded=0;whiteSpace=wrap;html=1;fontSize=13;glass=0;strokeWidth=1;shadow=0;fillColor=#dae8fc;strokeColor=#6c8ebf;align=left;" vertex="1" parent="1">
          <mxGeometry x="525" y="280" width="126" height="70" as="geometry" />
        </mxCell>
        <mxCell id="ZDNPm4Z6J83ZKpsJVjza-3" value="" style="edgeStyle=orthogonalEdgeStyle;rounded=0;orthogonalLoop=1;jettySize=auto;html=1;" edge="1" parent="1" source="u2u1sDKU7REfBMXMlNqq-1" target="ZDNPm4Z6J83ZKpsJVjza-2">
          <mxGeometry relative="1" as="geometry" />
        </mxCell>
        <mxCell id="u2u1sDKU7REfBMXMlNqq-1" value="待发起人确认" style="rounded=0;whiteSpace=wrap;html=1;fontSize=13;glass=0;strokeWidth=1;shadow=0;fillColor=#d5e8d4;strokeColor=#82b366;" vertex="1" parent="1">
          <mxGeometry x="536" y="169.5" width="104" height="40.5" as="geometry" />
        </mxCell>
        <mxCell id="u2u1sDKU7REfBMXMlNqq-3" value="YES" style="text;html=1;strokeColor=none;fillColor=none;align=center;verticalAlign=middle;whiteSpace=wrap;rounded=0;" vertex="1" parent="1">
          <mxGeometry x="458" y="160" width="60" height="30" as="geometry" />
        </mxCell>
        <mxCell id="ZDNPm4Z6J83ZKpsJVjza-2" value="关单" style="rounded=0;whiteSpace=wrap;html=1;fontSize=13;glass=0;strokeWidth=1;shadow=0;fillColor=#d5e8d4;strokeColor=#82b366;" vertex="1" parent="1">
          <mxGeometry x="706" y="170" width="88" height="40" as="geometry" />
        </mxCell>
        <mxCell id="ZDNPm4Z6J83ZKpsJVjza-5" value="确认操作寻找最后一条&lt;br&gt;满足结算组类型流程" style="shape=note;whiteSpace=wrap;html=1;backgroundOutline=1;darkOpacity=0.05;rounded=0;flipH=0;flipV=0;size=18;fillColor=#fff2cc;strokeColor=#d6b656;fontSize=13;align=left;spacing=2;spacingTop=0;spacingBottom=0;" vertex="1" parent="1">
          <mxGeometry x="24" y="90" width="156" height="50" as="geometry" />
        </mxCell>
        <mxCell id="ZDNPm4Z6J83ZKpsJVjza-10" style="edgeStyle=orthogonalEdgeStyle;rounded=0;orthogonalLoop=1;jettySize=auto;html=1;entryX=0.5;entryY=1;entryDx=0;entryDy=0;fontSize=13;" edge="1" parent="1" source="ZDNPm4Z6J83ZKpsJVjza-8" target="4yWfeNI9m5NWleD1tJs8-7">
          <mxGeometry relative="1" as="geometry" />
        </mxCell>
        <mxCell id="ZDNPm4Z6J83ZKpsJVjza-8" value="&lt;span style=&quot;background-color: initial;&quot;&gt;①任务单变为&lt;/span&gt;待过程结算确认&lt;br&gt;②待处理ERP变为满足条件的ERP" style="rounded=0;whiteSpace=wrap;html=1;fontSize=13;glass=0;strokeWidth=1;shadow=0;fillColor=#dae8fc;strokeColor=#6c8ebf;align=left;" vertex="1" parent="1">
          <mxGeometry x="324" y="390" width="140" height="70" as="geometry" />
        </mxCell>
      </root>
    </mxGraphModel>
  </diagram>
  <diagram id="XprrKTA8UYP0u6XJbDug" name="状态图转换">
    <mxGraphModel dx="1550" dy="-334" grid="1" gridSize="10" guides="1" tooltips="1" connect="1" arrows="1" fold="1" page="1" pageScale="1" pageWidth="827" pageHeight="1169" math="0" shadow="0">
      <root>
        <mxCell id="0" />
        <mxCell id="1" parent="0" />
        <mxCell id="hla5HsiDygbcWHO8SNC_-1" value="" style="edgeStyle=orthogonalEdgeStyle;rounded=0;orthogonalLoop=1;jettySize=auto;html=1;strokeWidth=2;fontSize=13;fontColor=#000000;endArrow=block;endFill=0;" parent="1" target="hla5HsiDygbcWHO8SNC_-7" edge="1">
          <mxGeometry relative="1" as="geometry">
            <mxPoint x="180" y="1516" as="sourcePoint" />
          </mxGeometry>
        </mxCell>
        <mxCell id="hla5HsiDygbcWHO8SNC_-2" value="" style="edgeStyle=orthogonalEdgeStyle;curved=1;orthogonalLoop=1;jettySize=auto;html=1;strokeWidth=2;fontSize=13;fontColor=#000000;endArrow=block;endFill=0;" parent="1" source="hla5HsiDygbcWHO8SNC_-3" target="hla5HsiDygbcWHO8SNC_-21" edge="1">
          <mxGeometry relative="1" as="geometry" />
        </mxCell>
        <mxCell id="hla5HsiDygbcWHO8SNC_-3" value="0-待认领" style="rounded=0;whiteSpace=wrap;html=1;fontSize=13;glass=0;strokeWidth=1;shadow=0;fillColor=#d5e8d4;strokeColor=#82b366;" parent="1" vertex="1">
          <mxGeometry x="60" y="1495" width="120" height="40" as="geometry" />
        </mxCell>
        <mxCell id="hla5HsiDygbcWHO8SNC_-4" value="" style="edgeStyle=orthogonalEdgeStyle;rounded=0;orthogonalLoop=1;jettySize=auto;html=1;strokeWidth=2;fontSize=13;fontColor=#000000;endArrow=block;endFill=0;entryX=0;entryY=0.5;entryDx=0;entryDy=0;" parent="1" source="hla5HsiDygbcWHO8SNC_-7" target="hla5HsiDygbcWHO8SNC_-9" edge="1">
          <mxGeometry relative="1" as="geometry" />
        </mxCell>
        <mxCell id="hla5HsiDygbcWHO8SNC_-5" style="edgeStyle=orthogonalEdgeStyle;curved=1;orthogonalLoop=1;jettySize=auto;html=1;entryX=0;entryY=0.5;entryDx=0;entryDy=0;strokeWidth=2;fontSize=13;fontColor=#000000;endArrow=block;endFill=0;exitX=0.5;exitY=1;exitDx=0;exitDy=0;" parent="1" source="hla5HsiDygbcWHO8SNC_-7" target="hla5HsiDygbcWHO8SNC_-12" edge="1">
          <mxGeometry relative="1" as="geometry" />
        </mxCell>
        <mxCell id="hla5HsiDygbcWHO8SNC_-6" style="edgeStyle=orthogonalEdgeStyle;curved=1;orthogonalLoop=1;jettySize=auto;html=1;exitX=0.5;exitY=1;exitDx=0;exitDy=0;entryX=0.5;entryY=0;entryDx=0;entryDy=0;strokeWidth=2;fontSize=13;fontColor=#000000;endArrow=block;endFill=0;" parent="1" source="hla5HsiDygbcWHO8SNC_-7" target="hla5HsiDygbcWHO8SNC_-21" edge="1">
          <mxGeometry relative="1" as="geometry" />
        </mxCell>
        <mxCell id="hla5HsiDygbcWHO8SNC_-7" value="10-已认领" style="rounded=0;whiteSpace=wrap;html=1;fontSize=13;glass=0;strokeWidth=1;shadow=0;fillColor=#d5e8d4;strokeColor=#82b366;" parent="1" vertex="1">
          <mxGeometry x="290" y="1496" width="120" height="40" as="geometry" />
        </mxCell>
        <mxCell id="hla5HsiDygbcWHO8SNC_-8" value="" style="edgeStyle=orthogonalEdgeStyle;rounded=0;orthogonalLoop=1;jettySize=auto;html=1;strokeWidth=2;fontSize=13;fontColor=#000000;endArrow=block;endFill=0;" parent="1" source="hla5HsiDygbcWHO8SNC_-9" target="hla5HsiDygbcWHO8SNC_-10" edge="1">
          <mxGeometry relative="1" as="geometry" />
        </mxCell>
        <mxCell id="hla5HsiDygbcWHO8SNC_-9" value="30-待发起人确认" style="rounded=0;whiteSpace=wrap;html=1;fontSize=13;glass=0;strokeWidth=1;shadow=0;fillColor=#d5e8d4;strokeColor=#82b366;" parent="1" vertex="1">
          <mxGeometry x="542" y="1496" width="120" height="40" as="geometry" />
        </mxCell>
        <mxCell id="hla5HsiDygbcWHO8SNC_-10" value="80-关单" style="rounded=0;whiteSpace=wrap;html=1;fontSize=13;glass=0;strokeWidth=1;shadow=0;fillColor=#d5e8d4;strokeColor=#82b366;" parent="1" vertex="1">
          <mxGeometry x="779" y="1496" width="120" height="40" as="geometry" />
        </mxCell>
        <mxCell id="hla5HsiDygbcWHO8SNC_-11" style="edgeStyle=orthogonalEdgeStyle;curved=1;orthogonalLoop=1;jettySize=auto;html=1;strokeWidth=2;fontSize=13;fontColor=#000000;endArrow=block;endFill=0;" parent="1" source="hla5HsiDygbcWHO8SNC_-12" edge="1">
          <mxGeometry relative="1" as="geometry">
            <mxPoint x="609" y="1540" as="targetPoint" />
          </mxGeometry>
        </mxCell>
        <mxCell id="hla5HsiDygbcWHO8SNC_-12" value="20-待过程结算确认" style="rounded=0;whiteSpace=wrap;html=1;fontSize=13;glass=0;strokeWidth=1;shadow=0;fillColor=#fff2cc;strokeColor=#d6b656;" parent="1" vertex="1">
          <mxGeometry x="420" y="1616" width="120" height="40" as="geometry" />
        </mxCell>
        <mxCell id="hla5HsiDygbcWHO8SNC_-13" value="操作认领" style="ellipse;shape=cloud;whiteSpace=wrap;html=1;rounded=0;fontSize=13;fillColor=#f8cecc;strokeColor=#b85450;" parent="1" vertex="1">
          <mxGeometry x="165" y="1352" width="120" height="80" as="geometry" />
        </mxCell>
        <mxCell id="hla5HsiDygbcWHO8SNC_-14" value="操作确认" style="ellipse;shape=cloud;whiteSpace=wrap;html=1;rounded=0;fontSize=13;fillColor=#f8cecc;strokeColor=#b85450;" parent="1" vertex="1">
          <mxGeometry x="409" y="1350" width="120" height="80" as="geometry" />
        </mxCell>
        <mxCell id="hla5HsiDygbcWHO8SNC_-15" value="" style="endArrow=none;dashed=1;html=1;strokeWidth=2;fontSize=13;fontColor=#000000;curved=1;" parent="1" edge="1">
          <mxGeometry width="50" height="50" relative="1" as="geometry">
            <mxPoint x="224.5" y="1512" as="sourcePoint" />
            <mxPoint x="224.5" y="1432" as="targetPoint" />
          </mxGeometry>
        </mxCell>
        <mxCell id="hla5HsiDygbcWHO8SNC_-16" value="" style="endArrow=none;dashed=1;html=1;strokeWidth=2;fontSize=13;fontColor=#000000;curved=1;" parent="1" edge="1">
          <mxGeometry width="50" height="50" relative="1" as="geometry">
            <mxPoint x="469" y="1510" as="sourcePoint" />
            <mxPoint x="469" y="1430" as="targetPoint" />
            <Array as="points" />
          </mxGeometry>
        </mxCell>
        <mxCell id="hla5HsiDygbcWHO8SNC_-17" value="操作关单" style="ellipse;shape=cloud;whiteSpace=wrap;html=1;rounded=0;fontSize=13;fillColor=#f8cecc;strokeColor=#b85450;" parent="1" vertex="1">
          <mxGeometry x="659" y="1352" width="120" height="80" as="geometry" />
        </mxCell>
        <mxCell id="hla5HsiDygbcWHO8SNC_-18" value="" style="endArrow=none;dashed=1;html=1;strokeWidth=2;fontSize=13;fontColor=#000000;curved=1;" parent="1" edge="1">
          <mxGeometry width="50" height="50" relative="1" as="geometry">
            <mxPoint x="718.5" y="1512" as="sourcePoint" />
            <mxPoint x="718.5" y="1432" as="targetPoint" />
            <Array as="points" />
          </mxGeometry>
        </mxCell>
        <mxCell id="hla5HsiDygbcWHO8SNC_-19" value="自动寻找流程链路中最近一个结算组" style="ellipse;shape=cloud;whiteSpace=wrap;html=1;rounded=0;fontSize=13;fillColor=#f8cecc;strokeColor=#b85450;" parent="1" vertex="1">
          <mxGeometry x="269" y="1650" width="120" height="80" as="geometry" />
        </mxCell>
        <mxCell id="hla5HsiDygbcWHO8SNC_-20" value="" style="endArrow=none;dashed=1;html=1;strokeWidth=2;fontSize=13;fontColor=#000000;curved=1;exitX=0.625;exitY=0.2;exitDx=0;exitDy=0;exitPerimeter=0;" parent="1" source="hla5HsiDygbcWHO8SNC_-19" edge="1">
          <mxGeometry width="50" height="50" relative="1" as="geometry">
            <mxPoint x="348.5" y="1680" as="sourcePoint" />
            <mxPoint x="369" y="1610" as="targetPoint" />
            <Array as="points" />
          </mxGeometry>
        </mxCell>
        <mxCell id="hla5HsiDygbcWHO8SNC_-21" value="90-作废" style="rounded=0;whiteSpace=wrap;html=1;fontSize=13;glass=0;strokeWidth=1;shadow=0;fillColor=#fff2cc;strokeColor=#d6b656;" parent="1" vertex="1">
          <mxGeometry x="60" y="1630" width="120" height="40" as="geometry" />
        </mxCell>
        <mxCell id="hla5HsiDygbcWHO8SNC_-22" value="操作确认" style="ellipse;shape=cloud;whiteSpace=wrap;html=1;rounded=0;fontSize=13;fillColor=#f8cecc;strokeColor=#b85450;" parent="1" vertex="1">
          <mxGeometry x="599" y="1640" width="120" height="80" as="geometry" />
        </mxCell>
        <mxCell id="hla5HsiDygbcWHO8SNC_-23" value="" style="endArrow=none;dashed=1;html=1;strokeWidth=2;fontSize=13;fontColor=#000000;curved=1;" parent="1" edge="1">
          <mxGeometry width="50" height="50" relative="1" as="geometry">
            <mxPoint x="639" y="1650" as="sourcePoint" />
            <mxPoint x="599" y="1610" as="targetPoint" />
            <Array as="points" />
          </mxGeometry>
        </mxCell>
        <mxCell id="sqp38s1DqcMGhquIfbrA-4" style="edgeStyle=orthogonalEdgeStyle;curved=1;orthogonalLoop=1;jettySize=auto;html=1;strokeWidth=2;fontSize=13;fontColor=#000000;endArrow=block;endFill=0;exitX=0.5;exitY=0;exitDx=0;exitDy=0;entryX=0.5;entryY=0;entryDx=0;entryDy=0;dashed=1;fillColor=#f8cecc;strokeColor=#b85450;" edge="1" parent="1" source="hla5HsiDygbcWHO8SNC_-9" target="hla5HsiDygbcWHO8SNC_-3">
          <mxGeometry relative="1" as="geometry">
            <mxPoint x="619" y="1550" as="targetPoint" />
            <mxPoint x="550" y="1646" as="sourcePoint" />
            <Array as="points">
              <mxPoint x="602" y="1310" />
              <mxPoint x="130" y="1310" />
              <mxPoint x="130" y="1480" />
              <mxPoint x="120" y="1480" />
            </Array>
          </mxGeometry>
        </mxCell>
        <mxCell id="sqp38s1DqcMGhquIfbrA-6" value="②" style="text;html=1;strokeColor=none;fillColor=none;align=center;verticalAlign=middle;whiteSpace=wrap;rounded=0;fontSize=13;fontStyle=0" vertex="1" parent="1">
          <mxGeometry x="105" y="1560" width="60" height="30" as="geometry" />
        </mxCell>
        <mxCell id="sqp38s1DqcMGhquIfbrA-7" value="① 操作转派" style="ellipse;shape=cloud;whiteSpace=wrap;html=1;rounded=0;fontSize=13;fillColor=#fff2cc;strokeColor=#d6b656;" vertex="1" parent="1">
          <mxGeometry x="285" y="1230" width="120" height="80" as="geometry" />
        </mxCell>
        <mxCell id="zEQeaCQ349JBVEI49tbP-2" value="&lt;b&gt;注①&lt;/b&gt;：所有转派操作后，&lt;br&gt;任务单据状态都变为“待认领”&lt;br&gt;&lt;br&gt;&lt;b&gt;注②&lt;/b&gt;：任务发起人、超级超级管理有作废权限" style="shape=note;whiteSpace=wrap;html=1;backgroundOutline=1;darkOpacity=0.05;rounded=0;flipH=0;flipV=0;size=18;fillColor=#fff2cc;strokeColor=#d6b656;fontSize=13;align=left;spacing=2;spacingTop=0;spacingBottom=0;" vertex="1" parent="1">
          <mxGeometry x="529" y="1190" width="191" height="100" as="geometry" />
        </mxCell>
      </root>
    </mxGraphModel>
  </diagram>
  <diagram id="qXMuGpXMw5HM8918sAFE" name="任务类型-展示字段">
    <mxGraphModel dx="1550" dy="835" grid="1" gridSize="10" guides="1" tooltips="1" connect="1" arrows="1" fold="1" page="1" pageScale="1" pageWidth="827" pageHeight="1169" math="0" shadow="0">
      <root>
        <mxCell id="0" />
        <mxCell id="1" parent="0" />
        <mxCell id="eTYl17Q82dRJUSIDoP6t-1" value="" style="edgeStyle=orthogonalEdgeStyle;rounded=0;orthogonalLoop=1;jettySize=auto;html=1;" edge="1" parent="1" source="eTYl17Q82dRJUSIDoP6t-2" target="eTYl17Q82dRJUSIDoP6t-7">
          <mxGeometry relative="1" as="geometry" />
        </mxCell>
        <mxCell id="eTYl17Q82dRJUSIDoP6t-44" style="edgeStyle=orthogonalEdgeStyle;rounded=0;orthogonalLoop=1;jettySize=auto;html=1;exitX=1;exitY=0.5;exitDx=0;exitDy=0;entryX=0;entryY=0.5;entryDx=0;entryDy=0;fontSize=13;fontColor=#0000FF;" edge="1" parent="1" source="eTYl17Q82dRJUSIDoP6t-2" target="eTYl17Q82dRJUSIDoP6t-43">
          <mxGeometry relative="1" as="geometry" />
        </mxCell>
        <mxCell id="eTYl17Q82dRJUSIDoP6t-2" value="选择任务类型&amp;amp;业务单号" style="rounded=0;whiteSpace=wrap;html=1;fontSize=13;glass=0;strokeWidth=1;shadow=0;fillColor=#d5e8d4;strokeColor=#82b366;" vertex="1" parent="1">
          <mxGeometry x="90" y="125" width="96" height="40.5" as="geometry" />
        </mxCell>
        <mxCell id="eTYl17Q82dRJUSIDoP6t-6" value="" style="edgeStyle=orthogonalEdgeStyle;rounded=0;orthogonalLoop=1;jettySize=auto;html=1;entryX=0;entryY=0.5;entryDx=0;entryDy=0;" edge="1" parent="1" source="eTYl17Q82dRJUSIDoP6t-7" target="eTYl17Q82dRJUSIDoP6t-12">
          <mxGeometry relative="1" as="geometry">
            <mxPoint x="405" y="145" as="targetPoint" />
          </mxGeometry>
        </mxCell>
        <mxCell id="eTYl17Q82dRJUSIDoP6t-7" value="查找任务类型&lt;br&gt;对应的Service类" style="rounded=0;whiteSpace=wrap;html=1;fontSize=13;glass=0;strokeWidth=1;shadow=0;fillColor=#d5e8d4;strokeColor=#82b366;" vertex="1" parent="1">
          <mxGeometry x="250" y="125.5" width="120" height="40" as="geometry" />
        </mxCell>
        <mxCell id="eTYl17Q82dRJUSIDoP6t-51" value="" style="edgeStyle=orthogonalEdgeStyle;rounded=0;orthogonalLoop=1;jettySize=auto;html=1;fontSize=13;fontColor=#0000FF;" edge="1" parent="1" source="eTYl17Q82dRJUSIDoP6t-12" target="eTYl17Q82dRJUSIDoP6t-50">
          <mxGeometry relative="1" as="geometry" />
        </mxCell>
        <mxCell id="eTYl17Q82dRJUSIDoP6t-12" value="根据配置字段取Service类查询返回的数据" style="rounded=0;whiteSpace=wrap;html=1;fontSize=13;glass=0;strokeWidth=1;shadow=0;fillColor=#dae8fc;strokeColor=#6c8ebf;align=center;" vertex="1" parent="1">
          <mxGeometry x="450" y="110" width="126" height="70" as="geometry" />
        </mxCell>
        <mxCell id="eTYl17Q82dRJUSIDoP6t-49" style="edgeStyle=orthogonalEdgeStyle;rounded=0;orthogonalLoop=1;jettySize=auto;html=1;fontSize=13;fontColor=#0000FF;exitX=0.5;exitY=0;exitDx=0;exitDy=0;" edge="1" parent="1" source="eTYl17Q82dRJUSIDoP6t-42">
          <mxGeometry relative="1" as="geometry">
            <mxPoint x="446" y="235.5" as="targetPoint" />
            <Array as="points">
              <mxPoint x="446" y="405.5" />
            </Array>
          </mxGeometry>
        </mxCell>
        <mxCell id="eTYl17Q82dRJUSIDoP6t-42" value="" style="shape=image;verticalLabelPosition=bottom;labelBackgroundColor=default;verticalAlign=top;aspect=fixed;imageAspect=0;image=data:image/png,iVBORw0KGgoAAAANSUhEUgAAAowAAAI0CAYAAACXqnjOAAAgAElEQVR4nOy9u67sSJrv918b2x3MC5wSGvwapw4goPYaoFQyR8ZEyDvGYjXa7h6jIh+AOY8wmIwHWFHGOecFmomBPDFqjDFbt52rAAGnhA5qgBqzJWdaRltLRpCZTCbvl0xm8vsBib1XJi8RZJD8+I/v8vT//q//9o6M/+n/jPGLX/wCf/3Xf41//dd/hXMOzLr4l3/5Fx4Dd8w7Tufwfyidw/fSsk9Xbx3TRH7N/cVf/MWtmzKA4uh66vB98fe675vWWx7/+I//iN///vf4+7//+1s3helBPtKeSn+j9H3VOlXcx2gdxodbN4BhmPlpusExzDiajLu2x+cjP16Ze6JsOJa/f29YJv/u0Ufzx+If//G/DfHj//e/45//+Z9v1R7mxvziF78AAB4DC6Dp5lTHEy7PYZ2xWKftMMwwphxNT7jX15y//Mu/vHUTmB500cZRs8zaePr555/v86pkmAdn6KRc0dAcOlHIXJ/7nIoGuk07l+ky6oa8Mt2ef/u3f7t1E5geNI1eduM55+M//dM/3boNDMNUMPRm1fXxzAojMw1DDMam5cvr8Shl+tH3FaVtOrrrdh6dj7///e9v3QaGYap4qrg1vXeYECiv12UdhhlBPuTKQ61qCJfh4clMxtABVzWAm7a10kH79NXX37x/SV/gx7fPt24LwzBF6m5YbTer4norvbExy6CrIcnDlJmE8r2v6z20PFCr7qF8X8WHL+kL/OR+vnU7GIap4/29+5tvvnzxX4aZgKen06cr5aFb/J5hJqXKoMsHYNcBVx7gxfV40OLDT+5nfElf3LodDMO0McRoZJgZ6GM0MsxVGeK203U7fYzPB4QVRoZZKm3SDD+1mRsydvit+LnLTM1YZ9nybzw4K/mYK4w/vv2x9BNho3cQQXmVFHYb4ZULgDDM/NQZjfkN8umJb27MzRgz/Ph9h5mMJn/FIdtiKvnYqDAGBKLLr+28bWIYpg02GpmFMGT4cfwAMxtdB2R5OR6IrTQojDkOJgxZUWSYpcFGI3NFisOtLOg0DT9WEhnmMfgAgH0YGeZeYZ9G5kYMybnYtg2GaaUuXL98Lyy/0fD9cTQfAHCUNMPcM2w0MjeiymgsP8852JSZhCqjr80QZENxUlhhZJhHgJ++zI2oG3pl97C+KfEY5kib0Vd8O2mLhuYX7MGwwsgwjwI/jZkrwZVamJvR5c2j+Du/qUwGK4wMwzDMKKqEGhZvmEloCqlvMwK7yN9MZ1hhZBiGWSl9jbqq52ybCxnDTAIbeTeHFUaGYZgVUszINHYbAM/8MTPTxY9xSJALv9V0hhVGhmGYFTLW93/MTCHDzEoXw7Ho48h0ghVGhmEYZrDQ0uQmxs9iZjRNg6hr9PSQbTMXsMLIMAyzQqYIVOHnLXMVukZFVy3HU86TwQojwzDMyukzPc0zecwsDPFBrDMkeXDOAiuMDMMwK6bKAOSZPOamTKEK8iCdHFYYGYZhVkibMMMzecxN4QG4OFhhZBiGWSlsNDKLZqqcT8wksMLIMAzDnMFGI7MYps75xAyGFUaGYRjmAjYamatSHHB9Ip2LwTJDEncznWGFkWEYhqmEjUbmZkyRHofVxUlhhZFhGIaphY1G5mbUGY1FJbEqtQ5njZ+FD1/SF6wwMgzDMLXws5e5Kk0+iHVvLVzMfHY+/uR+xpf0BX58+2PNIgS1iyGOf6ew2wiv7joNZBiGYW4PP4eZm/H+fmko8oC8Oh87KYxEoMKfdtYmMQzDMAyzOqoMwzqenthovDJPX339zbtXGD/fui0MwzAMwzwKRT/DMes0GZFsNF4N9mFkGIZhGGZaikbeVAm42UfxpnzIfRgZhmEYhmEmYWxanHJOxaY8jcxVYIWRYRiGYZj5Gao01tWwZMPxqrDCyDAMwzDMdWgzGqtyKjKLgBVGhmEYhmHmY+j0NBuLi4IVRoZhGIZhpqUtb2Jb5DMbi4uDFUaGYRiGYaYlN/iaglW41uRdwQpjHUSQSmMfx9jHMbSi9nUYhmEYhvHUBasUYaPxbuhW6WVtkMI+VmfVbbi8DcMwDMNMQLmiC1dtuQs61JJeG4TNzhuLzkaIIgsum80wDMMwE8JG493xAQArjGcECAgALAwbiwzDMAwzDzw9fVd8AMA+jAzDMAzDXB9WFe8GVhgZhmEYhrkdRaORVcbFwgrjBSlSBwABiAOjGYZhGGZ+8tyLrDguFlYYGYZhGIZhmEZYYbzAwaUAQAiCW7eFYRiGYRjm9rDCyDAMwzAMwzTCCuMFAkIAgIXlZN0MwzAMwzD4CKxZYRTQZxVdyAe6OAuzjZDcrmEMwzAMwzCL4SOAdVd6IQIHQzMMwzAMw9Tz9NXX37wDwJ//tFKDscyxjrRF9MwqI8MwDMMwDPswlnEGxgInX0aGYRiGYZh1w1HSDMMwDMMwTCOsMNbikKa3bgPDMAzDMMztYYXxAgJxwm6GYRiGYZgjrDBeECAgAEjh3K3bwjAMwzAMc3tYYWQYhmEYhmEaYYWRYRiGYRiGaeTDl/QFK4yVCAjBKb0ZhmEYhmGevvr6m3df6eXzrduyGEho7HWehNHBOcDZLSLDTo0MwzAMw6wPVhgrcDbCS2SQOAdfX5rLBzIMwzAMs15YYWQYhmEYhmEaYYWRYRiGYRiGaeTDT+5njpJmGIZhGIZhamGFkWEYhmEYhmmEFUaGYRiGYRimkVUrjL/57d/eugkMwzAMwzCLh6OkGYZhGIZhmEZYYWQYhmEYhmEaYYWRYRiGYRiGaYQVRoZhGIZhGKYRVhgZhmEYhmGYRlhhXCOksD8c8HbQkMcvBfThgLdDjE2HwtmkNLTWnZa9JaRivB0O2Kt+DZX6gLdDj48WM/XgykwwNq7OJG3Oly9vp2XZWFXUmSds4vZtEQnoOD4bR/tYQ1J9g/NxWTvchK4dj6cxXXNMatZdzrXQ5xydrv3qT4y9VpA1h3rMusfj2PrpMc469BfoMD6auMdrn7kqH/+v9Gf8h19+gR/f/ggAeH+/cYuuyH/5z//p1k24W4gEpACSBIC7dWvmwMGV+0WUGQcVvzH3zfHcAkAAInQb1yQgyeDVnX8nCHDOoc72IxUXXmKy8USUGZECyoR4MXMNMoJSAq+R7bj8Qq6Foeeooo1EBBIELQREFKL+UIxZ14+BwQzuL8PMw8eywvj0tB6j8Te//Vs2GplKkihEUvouf8g7s53xYc7cAhICBCCxFlIICEF4bXvYW4ukYlm/LYskFSBKK3amoJV/+ifRFpEtrquhtQCpHTY2PDdEp0RISNiLMV7FUq6FQecIvv2XRh1Bqh20IkitYZ+jymMxZl3YCC+djfJLhvaXYeaistLL09ONWnNlVmssOtfwopqyerZm7nFsTNBmyuSb1Pht5Q/rZhJYW16WIAUBNkGdqZAv78y5sQgAzkaIjANAEGKOOUCHxDoAAuLOvCiGnaM6HBKTG4MCqpfLyph1uzNtfztwj9c+c1U+/PvgC/zXP/yM9/dzZXENRuNqfRgHUPbpyX1kKv2bKv268g0JbPSl39amw8ORhMY+rvInErVTf+2c/IQmc73KfZiajgPq/Y3O/C4vjlecqVMt1PrHjepZRwo+fC3HYBlkxpOzSJyFzaeH21YLCC6x2bR09l02HZ0kKSioXo2ywVo3Xelcmi1Xs4GRpMYgASDlPVmMA89RC/k5GHKsx6zbzjz9ZZgxrLqW9GoVxpyzN8oUaeMbZArn3PFT2MjZ9845uIpZOCAzhGINJei0Hrw/pNJxY2CK1IeTYXjWDsoMyW5O4ZfbzdazUaMvUi9s4qeoioZEGVJQAgAsbO1+BXR2vNzxXBGkihsDC/LjLOnyOOu4o2Hca2yU97/D8VQep1+vwNA2C+nHQOrgkI/fjgqcTZAU1MB8Orr+nN4aQhBk7RPqfgIZxpyje+SW/R1x7TOPzUWU9Fr8F4E1K4wNN4GaaQlnIryE4fGTG1dJFJ59/xKGeInM5TbO/LZCfHrOln1+Pi5Palf9ACsYV1H4jE+FfX16Pk0N6b4SodCZ8WQRTWYt+u2ZbFpRqeo2HaeXcuOyahklQCbEp+fni2N1avvFSsfjbGqOs9RNEY/9x8btGdfmXCFKEnv2L3WSrW1hWvo0Hd3FN/CW+D7ONe09PePOUdN2c7W35i13pnXbtz1Pf5u5x2ufuSasMK4Sh9fwGZ/ComFX9d10kA8brfHbMs1+WwFlPl8GyUXjMn+iKEKU9LlxnwzMJKpxWh+BszYz7GSF8pkZFnAwpsFQteYioOB0rKqnFIv+ca99j7NfavTYcGaLY7Pdqb3zMabN+bkoqIKZwdfqM5ZNESb5tLTIp6MtgADBkm2xrn1cBCPOUdM2VXx8YTS9xmjHdYXGPo5rPk0zInP0twvXfy4w90VllPRa4Cjp6+FMhBfT8LtLAVD2Zl19a6r9zTkkPT2yZ5mKPmuTgbHKp94QQFLcR+bn5v2TGjZRo1zkx6qK3FHe2uoNO2vhVPNxHo9/yLzOtPVpyQy7qmm4qpQ5VdgECTSEAggWTe8Ay8EbOlJ17ONNGXeOpI5BFalxPK7xhXHMuufLlml6uZ1gTDLMDJwpjGsyFoE1K4x3Rj7FJ3SWMHek8/dsU9Hn5NNIUp0HfhxVwFyF7EuaPUiC8nGg2kCLCy7WXSmZAnx+LvJIYkLQ6Xhm09J0H9PROb7PdzAtPfockc+dWPgAzivuYXMexVHr2gifnp9rPg2G5iRjkmGm5+N/+KWPki4bi2vwZWSF8bqQUFBKNFayqMYiCg0oViChoIU6/uKcv3kb02x8kYrxporfOJhw+qnoM2yCBALyTBXI03DUq4DjIaj4ANW+4OrJp/XLEcu5iiulQNQhgiWJnu/GUDziLKxTUEpBmpmvhRGMPUdJ9Dx4FmHMukOZakwyzNR8/MmdV3oB1mEsAqwwTkrxjaNiAFVWtjhboEXxcgYvzwYkBKSUCIKg8NavIZVF1PTWXtinVwnoColw82m/wr5yn0Y787RSm5P69H76d8hJkZUqBqnz3wBkSuxAJXjxeNVKUeY2cevmVLK2c7S2/jL3xJkP41oMxRxWGMfz/vQElF0ZcuPxOKBOyW195YSKW53QnWrQOmvxWny7JoHNTkORD2JJauSAs4oUpLCP1fzVNFDwGcxUHGTqQZLMqRA4mO28/XoIcl9SoP6F5cF9xvLxKaVAtESLcW3naG39Ze6KD//1Dz/j3wdfrM5YBFhhHEvnIZPf+JyBmXoa1lm8bk2NT1/dOqdoYbWbObG0M1kQhIAQeR61kXn68n6mZRWxPgcmc8kpojys9DN7mbXiykLIx6eQkBfj6fas7Rytrb/MfXGRh3FNrDcP4wzkpYIGlgtqqpZASkNrXZ87cECOsGPqlysklj4Gv2SR2S6rtNFG3TFpOlZ5MvPaBwopaK1n7vN9VHq5VcWVU4WQukj34Gz/VevWVWk5+b91f3Pw43O+EndjuHVVnGtz//0tXPuHYcUUmOXCeRiZQRwfXEJc+jKU/84NuhrjjESbARNACgG1UxWVUwhSqUJVhM49OCqTtQnDp8KaU17CHsEuLlAX1W9InI5h1bR2HllJandZbpEEdKz8OZvRd/NmlV560UHtPUbnV+XSHE7xHGlRPr/6mHi9apyc8nvq6nUFatetZbE5GW93jm7DA/S3OKV+RxkDmG5c5GFcE+zDOBz3g/d9+qXY4e3w3bn9kRq8bH8ofOHT10gtjtHK5yqLT2BNNVVRnNnCiBiKFHSsoAuKYjEnWmMS7OoNIzICe+WnppPZktPmwQXUmnvxvHkG0IXjVfRpqssfWeyTjqHyYJ/Cum6u3JP3xNFNouklI899F2QlKSfad+EcSR1DVp0js632URuzbi3eQFlcaelbnqMpEBr7uKlB6Xmmhgn7W5U/8nwzBi9z3ASObkED7sfM4mGFkRmG+x7ht9vM+CnlKisu9/TkPz9s8bI1xwTb+bJ5PrPmB5zDaxgiMvb0cKzIiTbECfxaU9O5YZuYPkapRRRGMM4VjmtWWrHhZu9MiE9hlB3r0zlxzsJE4TwPirP9X7vSS3+65cI85b6b2mfMmRAvNecoCsOLCj9TrVtHv3F5HW59jqagnMPx/FNadtL+Nu13vhysR1eJHi/GzP3w9Ktfh+8/uZ/x5z/9sX3pB4MVxhE0pdFp811cXYSVgD5oSLSl/vHkKYicGfbwZ5ilQEpDi+7+ds5uF/mCwXSBsIljKALfux6Uj7nCWMzDuBbYWJyIp6eTEdgl0KW4/Aqg3MeSfXqY1RE0lMergGcx75ej/2Lf2tzMvcA+jGw0NlNn3L2/nxuHVYZi1Xr5cqsxGglSnPw0GWZNOBPiU0MNeeaByP0X+cX4YWEfRqadOtWwyeBbhTHYgfytm316GIZ5YHyqH34xfmTYh5GNxmZaSv4NWvaiEgzDMAzDMEvm6auvv3n3Poyfb90WZomU1cUuhmDX5dhgZBiGYZi7gCu9MP3oUb1llvUZhmEYhrk6rDAyzfT1X+yTbocVRoZhGIa5C1hhZLrTt050nrS7ank2FhmGYRjmbmCFkWmn7HNYpyLmqXI4cTczMX1irxiGYZjpYYWR6U+V0ljOr1iXu5Gf9kxPyu8fReGaYRiGuQ6sMDLt1EU1d03WzTADuTuxmghSKKisHB6XumMY5lHgSi+ch7E75eosXaafGWYgTZ4Pi4QU9rHCWSE8zmHMMMyDwJVe1ko+r1f8DNnGQEhp7A8HvB1ibHqUmmXWQZPP4uJURQAAYbPzxqKzEV6en/Hp+RkvrC4yDPMgfHj73/6XVSuMq+PpCfilQvz5Mw6fd5DHHwR2dQZcU03ort+fQZBCZEoMQYjlWoxSH/B2OECL6+2TVNx/n6QyA/zys1fLPb5Hju3X52Py8728VAQIfCFdmMiCzUSGYR6NDwBYYVwLHYy5TuJNWf4pB7O07schsflD1cFafrxOgXPu/HPrBl2BsSI5wzAM042PAFatMK7OaMx4yj6nVDmn396fnlBrOrbNFZb9HGtwJsKL6dFgphlnEIXnB5RUfB/qYiOXY6nJMOw4/BiGYZiesMK4FopP2T9UqE/Hp2yKtIs0VfdU5qc1M4RGRdTBZT92zRd/ffLrJgDdu43OMAxTwQdg3Qojc+LsOVt+6oodDp8/47ATjUZhrc+f0JX+db3800hAx/G5f16sISvXF9CHA95KUau5f2BZefPtLvrPTQQJbPRlmzdd/TZJYFPscxxDz+3z2es4l1fV2MeX53ivRS9DqiqDU1WxoPMPQf3uMw6fP+Mt/g5stzEMw0wHK4xr5kzVaVEWkwQJgCchGowqASEAwMJWpBMp+9j1gVSMt1hDEsErTr7tRAI6rgoQyfpDdG4wZlYLUVD8FhSgReXqT95mJS7brHSX6WIBHWsowsknkQhSewNsDvof5xNSH06G4dl5psyQvDTIL/wPC+fg/b2j2n1s+w6KnvI/oK86He/gUgAgBEHbsgzDMPcHK4yrpOFBXGs0WfxggZNRWIGQ3iCw3rg8Xz3CSxgWPlt0zjhyfPg7mCjEp+dsG8/PeIkMHACpy0pl/gA/2xAoABJrgaBoSGYRrumEBmOhzUlNm0ntGtVVUgq4WNcHC5HQ00duDzrOp3VV9rIQhc/4VDjXn55DRNnY0bWNTpG6KuX6CXAp/vB+mQKUYRiGuR6sMK6FsyjmFK/hMz6FpmAgObx++1d4/vb7WqMpSbxsKGX1Qz//Pl9uKihLwePMFq+liGpnTVZJ4zI9j1e3ij5lAQJySBMHV1Qes/+7SwtzRJvJG99mi6hHm8+2kZqKdaNj5ZC68zC8zcOOM4CjAe6MQXIxgBwSEyKKIkRJ3TF2MN/+FZ6/LY3Jwjht8010pvAS4gy2318zTrxZXWcYhrl3OEr6EY3GulJ+5WXaUuGUl7EJEghIISFhSyrifA9MyqZH69LvOGvhFGXTzAVzw6UAhJ8iPE5Pp7DWIUA+dYqjsZP0nCZvoi0K3Lftss2Xy9SvOzVDj/P5Nmp+c67z8a2LdG4vLORgvn2GKSw/DwL6zDeWsrFkYbbRpbrOMAzzALDC+EiUIwPKf9dFEnQOK82NwYpp6abp6FFk/oVdCM79FfMp5txvEQGBnINDitSdfM1yIyedTmCchFY/z3J/RzHiOAOn8y409lpB0ri2tQ3Jm+dcJAIdPzduC8MwzBVghfFRjMauyenaZJpjXsbqZZLEQgsBKQWigpQ413T0CYKKD1B9Vsn8MWVmEBIFQJrAZf6NggiwLjMoLSYUGH2LhYJSIgsguRcGHGcA3nfRgGIFEgpanLbgnIOzBsZcVkApDsfy0GzLqVi3Xv7dfFhEz8+Iil9ldaRVrOGeWWVkGObx+Ah4hfHHtz/eui1X52GMxTJVRl/ZaCz/XveE7TQtfSX/rbYo5guFMAvuCQgECyI6TvM6546R0nNFSJ+ioN2lMTpSgZuV3sc5X8/g5dmAhICUEkEQFFQ4DaksohZjqs1orDIOr2ss1uAMjFXQwl8Ls703MfPQ5V7IMCuHFcZHMBrrbnZd1cReeKNQFh+Ms01HF3Ew2xCvvay6LFJaECibcnVZRIbzEiMot36mjJCGgMqMxSQKLwJX/CIab9csUN2ZIce5tAVr8Vp8cyCBzU5DkY+STqJma6rKaCz/3vQ9w/Si7g2EBxTDnME+jI9EXaTAVNvKKEdLzzsdXZUep8fax0jpLEK6uC0iUJZSZ8oI6aN66AzMiDrZ1DaVPamRO+44N2/a4nWbRT939LvsUkionLh7GSzPF5ZpoM2Vh2GYI5yHcW30CnKp4RjgICGvMB2dJ3+uTUFDClrrykTNR0MwUxOPU8Opg0MAEnlKnWumYCknDu+3TJd1hzDmOJPS0FrX55XsMOU/XjEkbPIqM6UKP/PTI2iIWQblmZllvXkwzOJghfHRqZvbG2U4FqKlVaYYzTgd7aw9JbouGzPkU5xIIVAZtZI6OBACyiOk841m30sCTa0KHauyVFcbIVFtdF1sJlAX1WCK67YpurmxnOdXbN3fmOOMAFIIqJ2CpPMA/Kcnwv+ovvNuCz1U0bpMT3X4Si/HP65c6SVL/l58KWGWS5PPIhuNDFMJ+zA+ktHYFlbad52WaWktBKRSx7/rIWz0DqKkwPgZV4LaxTjz5kstoqiQwNkZREZgrwhKx1B5EEkhcMTZCJWucXmktBCATS5KISoh0CVCWuoY1LRMavBybIBFFFlILXypPXVSMPNch8ZYkGr2YXTWZuv36G8Ra2CcgCKF/UFdqqhnbcao4+zMFkbEUPQddPzdmaJ4mlr/A4y5XLlLIEv5N36mM5PQNpB4sDHMkY+fvv6Go6TvnfyJ23Rjq8rBOIY8Wtr/0T4dHTTkq7uIGL7cmDMhPlkBvcty/GUrOGdhjbmoTHIiryld9lPMfPbyusctzT8mZ66jrFDaCC/RKa1ObjT59DIGSaDbU9c4g5fQHfvsv3NIKqrH1GwAr2EIp3fQgi59IitU1eHH2cF8GyL97jt8J4SPjC785qzF999/j9pCLwXqxJ9OlV5E7FVGZ44VcRhmFBxBzTAAgKdf/Tp8/8n9jD//aX0G490pjFNH7/GNkJmQthzxRbq8v1QNyeUGsArog4ZEQ2Q8sxz6DNYqljcAGWZ2nr76+pt3rzB+vnVbmDamNvDYYGQmomtKz7plHiFFDgmN/TFVkp/Od3bLSudSqRqQfWZe7nGQMswIPnxJX6zah/Fu4ZQPzJ3RdXr5Xp/DzkZ4iUxWM5tK0/LMoqkLAlxm7iaGuQmsMN4TXefthmyPb4bMCLoOpTaVkYchMyl9pe8ibcvzYGVWBiuM985QpZGNRWZh8DBkZqXJMCwriF0GI8/yMCuDFcZ7omzkDZF1quAnNTMBbcNxaoGcYVrpM+imkMkZ5oFhhfGe6ZNzpMs2GKYDXXK+98mryDBXpe8UdN26fO9kVgYrjPdGlf9MF+XxEcJQmZvS5Tnb1zDkYcjMSt/oqj4yOQ9eZmWwwvgINBmPhf//5je/5Wg/ZhBtlVdy2oYWDz/mqjT5JbZNVxel9LKszoOYWSGsMN4bTRF6rCIyM9Gl+kqfRNv87GWuRnkQdrlPPmLeJ+ZmPMr9jhXGe2WAk9hd95e5GU03O1YUmbuj7u2lqCLWDVoezExPqh7V9+rTzQrjLRmSz6tvdQK+wTEjaRumQ9PS3XU6OyJQpxrkrRsCCQB2im3NzGR9vjJ9i5Pf5YBklsijJShhhXEJjClHVb4ZliWdwu+L6S/zsNzz2/MZJBqqtBA2uxj7QwwtxtdykSrG/nDAXl27LoyAPhyw1019PUFi5/t89XbORNXT+t6e4MxiaXs03yMffnI/40v64tbtuAn/5T//p1s34cSQp2yXucLC94vq7x1CSmN/OODtEGPzIM/MPlQN0eJ35f8PGdIkFCQNP7ikdHcjjlRmAAlIUfgojX3sP7JqU0Iht5nSdCK9zZlxNadJQMf9jE5SChIABYT2Q06Q2XFN7bg+T3Id5QOs+Klj6AwOwwykqxvPvQ23j2tXGBdlRA2tjdbR32Zx/b0WpLCPFQgW0XOEBIBXVzQkHEwY4rX1GUiQIldiCEIQXt2IB6fQeNMCzoR4qTIUJmnzlaHvEP/Ot3n7V1skAJ6eBHafq9tcOWxJQGsFPXTqkwgEAao7rpcrgACYNC1+BQLgbILLU0zYKAHAIgoTCKVAkZltmpZUDE1pt+2nFo4UNsLgtdWoE1CKAGfwEpbbT5B6B5FsEeXbEQqK6sadX17BIIpsS1tHXkflJ6zY4bATcOZbhN+7y0GVXUdBYUzm15GAg/n2W1wME65RyUzEow2jj7nC+OPbH2/dlquzSOOp782qx7KL7O/d4JBYC0ECBAc7UmW5J/LUnk1D7f0dwPsTgPwzjsSEiGzftQibOAalUUdjMSeFKxgtMjMIjbk0fkjtoAhIogiJA5JEYpJGMM0AACAASURBVB8rRBdG1zQ4E+Jlhu3m6qKDgI5F9UJqB40tIgtvJDsHsYtRszQABa3RYjSOuI66yDEd759nS3TxBWeYmbinCGpWGJdgRJWTbXd5Og94C15Mf+8UZyK8mFu3Yj6aglD6Bo2+v6NgN3Yfp86lQCePurkQECIzCMs/kYJWBFc0Zm0EIw/Yx6hQ6hZK1o8kevb9IIX9jmC3UbVqLTQUzpVIqeOOiuIlk1xHR5ebiteTpnvj0/kLzVM5TyMbjcyE9H1MLz0QkH0Yl0KXpLJNy3dgUf29Jo3Tm2nFtOMCuGGbBz8zr95mryhOEXhyREhIZ2Au1E0BHSvAXqqXSRTCQNX7PJbaTFT8BKdfiEBCzRwAk/WjaPQ6A5MKqPgAfSEfCmjpLozhJDJwIvPznKmlZ7TIME91LyUNY/Kpakw+QmQCc3Pq/BS7+nYv9b2Fo6SXRF+jsSeL6+/SERpvh0PFp7uzPgmNfXxadx+rDkbFVBA2+b5j1Uu3W8oNi5qiMYSCIoJUCpshRmOFMSFlgMSUlUIBHWuQjfBSOU/u8BqGMBDQsQ+iaWqNFAIUBNmH4E1G8n/DwUQRjAuGj5OGYya1qvTvTBLfLym9xUgqxtshhlaAqfTRtDDGAZT5QjYxyXW0Q/y7zzh8/lx/HTVEE5SH80KGN/MAdDUA6woL3VMENfsw3pK6ub8+09M9uHl/b82ZgZAidWid/XQlCaLRgCkhdVH9cl7NIAUdExB13MiANh/bmvnbZX9AK9vLt2/w0BvR5mwDyGNQHAJoLWCNQXLW9Dz4xMEcp1LHWuICAqbkO3lS5F4a/e280Qi9g1IaUgHOWd/usxyLDq/Fc0Dkz5Hzvn2u8D2hS/RyuQs77BXB2ehiupiUhki21f1IEyQOSI09TlkDgBQEcym3+p5YC0e2U3T32OtoN+V19O4GjEmGuaSY870uGrpPus/i43+JsVfsw7hEI2omo3Gx/Z2dzGipomka1UZ4OXtW+inQTrOFIk/v4pBEhWhTeNVRq6B+3TFtnph+Q6+uzU/D2+wsogjQcQwy21P0b5baxpnthNHiFhYaG7J+m6SgdwS7DUvGagVZNC5MiJdEQWsBIgFIB5e6+un4gGrsFgGlgDSpOG4koZQAVaXicQZRZkQR0dFQI6EgbYSodkxZRKEtROf7cWtSAaUFTJWvojN46WKwTXQd/c/bv8PWniKhe19H5YF8j0nImcVSd6+sEr6XZgh2hSu9LBmuDb0w8gdde1obqb0/WF3anLbfp20vatKnnFN2E+savTepu63QeNNBxfH1fRE2xIsJfHqhiz5l/UV7X7OdQR90aYrWK4qpMQBSb6CSgN4pUNotvU1qIrw6AlGDoVhsb6YwOqSwpkNKnNyosxE+9Q8lb9+us4i20clIzvoPc/7iM2JHw66j7wupj7JBVft7aTmGmYO6aea25bveT5c2fFlhXLLiNrHSuPj+PiDlqbiz76cM1qjeC17DZ7x2XLrKSBw7PdJ3nWIQyDnZlG8c4035v812jqhkC2MV9loies7ks1x960WbsQiARGEIWEShgzrEeOtg3E8LQaqdjwDP/DTP9u0sojDFRu/wpuGVxzlLGVY8hf11dHkvvM51xDDd6XKvrFtmycYiwFHSt25COxMGwtxFfx8CQq3dk+HTxyyfqumUcnGNummY6W94Dq+5kehsxTSxwxSH1RmDBHXBHJTlaayGVIy3LHK7zYwhIUBn/bCIonMfQr9N3RBI49szOD5GKB+oI1JE4fOlsXjEIUl8bkrkpQxjjY0Q/f0s67iIDCAEQSEpU8W90KUp3gG8cxgLcwMaszc9IKww3oMRNVF+sLvpL7Moykpj8fuq/4+nLgVPHoBikCiFfUyIwqp8id5YG66Aeb83qRSkMYAK4I5JvB0cdtirtNKVgMiXiZEygGmcvvUGaRJtkRYNUGtgnEBwPAC+MookASKD6CJi2SGxIjsW3VVJIgG105CwMMbASIJQuj4pdxBkJRv9NPJLIKCUgtIC6tiUHtPqZbre39ruheVIgyVGDjAPSZcJwap7adWQXuqQ5Sjpe2GCEXRX/WUWxbVyGvvo2SqZkLCJNaSN8MlYwAIUK+hYA1VG4ygypZKy/2OHvcbRX9AZA3eIod3zRUS1EECuFDaZTKR8EMonC2xU8RfvRnDaZFa3ujalD3ygi43rDejTXkFCQanAG6bb51MQjCUQmqeZz+JbnENkDSLy09lKEAgWZluOZh/A8V53uue9Pz2d/q7Lw7jUpyyzGvoajfky5d+XCudhXBFr6y8znPJN7KpTLFX5EXUMlRaMJmf8/8mrjsekK84BCHpOkwZZEm3/FwmFoujnjEEidCGZtoW1vk1neQSFhERNlZgipPwUcGvASqFudcuyzmx9HshDVfJwglQaGxUAaYQoDBEZC+dQqOtcOOaURXnX7EvqA/Y6y4PoHJIoxMvzMz6FA43FBset1mFXVemFYW5AnYtO2ZWnapmcJRuLAPsw3roJV2Vt/b0d7b509cEd09LX0GtzxB6z7Xa8QufsuTrny9BVBGPY6FjaLvf58+sSRDkQgkRDImwf/eyTVXtjyAeWm8zw8wYiqfhYCcUnuiaogmUppfBVU1rsQKkE7LZdFfV5NB1MJwXV4dVY5EnGZem3xER4zYzEIgnkmcHtFzew0Fl6nTL+HJEQEGK472QlF4NvxHW09Ccv89B0CT0oJ+2+hyHLCuOKWFt/l0BdguI+iYuH8vREUL/7jLfD596VXk7bOP2/6sY2qdFIflrU2oL/no6h3LY2GCNX846Gg7PwmXDOjRkSsrn/mVIWWZ9w20Tn6Y7KlVCQllXQrAb1RZWYUheVhkiaU8lkC2b1njssm5Mb0BDQlzX+atcxqcK+pEwmxsCRwr60HVIqU1EzlbJj08ZCQda4UmDMNa6js4pJhyuVQmTunracjPcIK4wrYm39vSW5gUFqd1HrmFQMFcz/qKXv/qFQ6eW7s8jbLjSleJjjxnceNUzY1JSxO8dH7prkWBgZiXWlSGOCFLgMpKHLSOYkesZLGF0GbZQNROdgnT1VQamtQX2OMxHaUycSNjtxXu+5I/m4q08IXrdOlmvy2NCsv0IVpt19oI4b0K5OVLx9nK6jf8BO/vJs2WtdR2fpj2wysb8ss0SKmSDa6j/3uRfee/Q0R0mvyIhaW3/HQdjoHURpxssLGgS1i88jSlN7HsFqI0TWp1eROoY8ljTzKpox6ZXUkfFcx9/GVzYxoYEjgY3w6mEXc8CZ6CzXpDNbGBFDqR20CxGl/oE/yrRwflr65Eto8XrMzeh9DRPTrb1tkFII7HZYQnebIIEAWpTOqnUkCUgymaKZ+WmKU8Q6KZ8svF+7ul1H+VB6Kl9HP2yxtb/DThDk7neV19Gm7jqaaoAejW9XWyaReQyaDLq+VVqaXHnuVWnkKOkVsbb+jiZoqOV7oU5dPkiSKIQTWQ69LKjC5VU0Ag11sca0uO//Dkb87ljpZfu9632zutaNjZQCmW0WtWtHlvtzeA0jBAcNqQ8g50CVkdc9t1lXV4/KNai9OupM1D8IhBSkM6WKKl2qxuRYRM/P7YuV1rEWIJiz456YCDA2U9QElEhhKhOYE6RWIBNVn7cO19E78uCViuto+y3c3+yO19EvCfiDs9j+3RZJsJv9Ojq6IVTm/mSYS6pmZ+5dXQSAp1/9Onz/yf2MP/9pfQbj2hS3tfV37ZTfiPtUEbjqWzApaOU6RA33JQsAydLjXJShK9Z/LqlmRKI1+fpxWakgYGASACAorU6KVEvpu1OZPIvouS64hSCVgiolye5bVrJPny7WlQrCGVzujiCUOh7j3A+0kqkL6V6lLMapfOO8ZTyZW9M0nNpS39QZg3XL3avCyLWkGeZBqbo5La/0lMBGAcmMARQ+96AC2dIDv8Fg9DkLAyAdqUxWpAgq76fdYCwsrWLsFcHZqiTebRCkCODG9qmRBiV06sF3jcGc19dGt/PD3C9txlwfg7JpO/cMK4wrUtzW1t+105YXrOq3a0NEtfW2r7D3HlO9M7ai5zHwrg0zNmgu5shQPLdkIzTetABsdEzczjweXe+JXY3GW99X54IVRoZZIWu4uTELY2oZ5gqD2Cu66OBawNwzUxqMj3w/5TyMK2Jt/WXqmS2XIsP0YYrBN+MT2pkQn57ZWHx0prgf3kvy7TGwwsgwK4aVRuaqFGWYIbJOFTxwmQnoMhzvqe7zHLDCuCLW1l+mHVYamZsxlazDMD2oS8bdNhz5/sgKI8MwYKWRuRJdQ/ebckKV12eYjrSlv+lrFK5tGLLCuCLW1l+mO2u78TELomw81gXHVBUzZ5gOtJX36xqwUh5+a1MdWWFkGObIPZetYu6AMdmRGWYgdcOubWblHlKTXRNWGFfE2vrL9GdNNz+GYR6fJuOur6LYdb1HhRVGhmEYZhhDJOmSbENCAP/3D9XJyOd4MhOBWivwZIsKAdj5qhAx8zNURey63TUZj6wwroi19ZdhmB6QgtZ5XehzpI6hBeHsp/yJOcqRS+A7rRH/7jN239F1nMQcIOMYWglUdPWsbUpr7A8xNs0LtiKV9seP+n028QF73dZOZirafB3r1lkLH35yP+NL+uLW7bgJayuTt7b+MgzTDxIKOq4ykMgbjUXjZaxh9/QEUgoSgDPfYmv+cPrtQrYRtcZsfxxeQwMojX2sa7d5aptBMlJidAgg9Q5KBKCg40coCAIoYHPxGhSHcB/DcU0K48e1K4xrMqLW1t8jpLCPFQgW0XOEBAAgoA8aEo7Lfo3heGwvcSbEi2k/sFIfoAWAunMxZz3fexwbM7fZmW3N+hYmapie7T09LfCdIgAOT+IfsBcNi5JXN6UQoEnOiUUUWUgtoHcKLjSlfgkoBSRRiMhONwBSa7sbnylBKQHXZ0r8HsfzzJRzxBdpMwqbhvSaDMWcj7nC+OPbH2/dlquzNuNpbf1lroMrO58RDZxC8w/I16mNQmYe6rIbd3ySyt0OEg6pNXhpPOfe4CFYRGE0Wu07Yg2MExAVBpnUCohC8FB8DLoMyTrBnDNHnGCFcUVG1Nr6y1wBZxCF5uwrUjH2auA0mpCQsJkywtwNRRmn7Qn7/g5IjZ1w+D4MkYgYe40ao5GwiXN1bISxSAr7WMAZg6Jg6Ezkp4tFcPpSKihYGAjIo+pJEEpBwsJso9WpdPfAkFQ3TerhmnwTu8I+jCtibf090hgRmVZHZzJXxiGxDoCAaJqanHy3dzg2hraZxEQ+gGUENlqAuvo0ksJ+F8BGfnrUmRCRU5XBHVLHUOSnhscbaV75dml6+QFBaQ1Ffko+Mra0jEMKAHDTKZxzcI/jeQamMPZYVbyEFcYVGVFr6+9kkMBGKShxepw5Z2GNwWuNf1OusjkT4sUGpfUdErNFVOPfN2bdYpv1TkHSeZvNtoNKM6C/U5Aag0RoSCkQ2X5zgUQCqrK/BsnsT0nCJvaGDZzBy4U/3EJwKSjWkGE0jYKbyzB/I6CEgDo4JNEW0Q/etKpUGklA7wRsyZfOmRBGx9jHlB0/gtQ7aJH7EU7RYMAbTVVnR7T8nv/cLR1PNQShNIL2BTMCb+AO3t+64ank6WEfxhWxtv5ecPb2nSJ1QJuz3fn0qvNv6EQgEiAtIFoDOwR0nEVbOpf59xGkiiGpLYhj2LpNbdbxASJ6rn0Aj+/vUAhBYGEtIIXChmxnRam5vwKqS5sHjI3T/nc47p4UtLIzHaMSvdvs8GqAfVwV5DGQ9wAb5Y0tZ7anAJGq6WkS0DsJuw0rX1qSKAR0jP1BwDkCkYMJnx9o+tfBmh7T2aRAQYpB72gjxvMjMcZo5CnpS1hhXJERtbb+nshumFU0TeGQgs6iOJNoexYtScLnrCO1w8bWT5eREoAJ8clUrCs0tGgy3gasW2izibZnimC+rtQx0qpoyQn6O5YksdBCQAjCaxdlsLHN2qeBaWzzwLFxU0a02UYw8oC9dtNEnJOAyJTVM9W77NMY/A02AjBh1Ng+l6RwQoAIcHZ8OpvL5iroSsPJq3mo/R0gArJ56f7Y7dl13Aln8BKW2iA0FExD5PY9jud5YaVxOlhhXBFr6+8Jh9fwGa+t351DgvxN1m4vbtDOGkRGYK+o2bix5kJtKq7bOP06YF0S3g/Mme3F9HFbmyfp71hsggTCp08x7Q+4Yn8v2xwhMnFLm4eNjbOlzRZGnKakW90FRjOuzYkxULHGXo1Xi6VSIDiYbYViWTQa0x/wahqe2iSgd9oHlUQhXtIAeqexP7hs7NlJ/O/8tio2RMqP/7rfQdjEXRJoE6Ty+ROnJ4AUBECAalXz8eP5XikOt3LQSpPR2KYksrF5ghXGFRlRa+vvWJyJ8GIafncpAAJRgDpPI79M/bqN+x+wLpFX22yNAuGshVPVbZ6iv+OxMMZBKgFJplXJpMxnsc7v7DptvrMHsjMwVkGPVYuFhhZNeRvRHj2d+8sGQGIiREiz4CeHKHyGERpaaexjAHBw1sIkFs4uVS1zSIxXUeval+cdTRpcQ+qIxjZvRfQxGpu2wZzgKOkVsbb+LprceT4YkLOwdl0CdfWoH7LfK+ETFXtVsJnH6O8tSBILgKBiDTloC+R9F23UrlJWRE/nFWX2OwlntvgU+sAWoWO8HfSx0oyzEV7CZ7xkKXW8a0SM/eGAt8MB+zjGPtbQWmMzj6w3iPojkmUBcAaGczzOTtngK767NNWCLleoZDysMK7IiFpbf6eAhIJS4iz6dvkQVHyAGrLmEvrrLKxTUEpBmokieplzsqTVigSUIiQ9p6Z9oI9FFHa0et7fgV9KqO8ERAD8YAxMOfAmS/juzKWy7JzfVwQ/RqUUUFltZliDqKkCTXEXYldbUcb7MNb/7hcgEHpUXikhtTfQE9M96IiIVut/OJSimlilNJZh47Ab7MO4ItbW37FURt+eLbBg1artAVMx272c/vqcjIq8GsMG4xzkx5i8H2gHf9EjpKCVD2BpPTcksFESARzSxOJ1a2GDTBYujyfh/07cydXgHB/17oyBiYx3AciMqa44u61WRElhHxNQ9zsIG72DS4Ybi6TiYwlMnCUFb1hHZumtlpyu6Q6oSsTNRmJ/WGFckRG1tv6OwysvQEM92bzG8eJwMNu+vmnL6m/uaymlQMQW4yx08aO9hLDZCbiuibSdvSz1KBQkkgs7T/i5WqQIql0NiAAQJBEMbN6Jju12MFGY+UcOweE1KoQsk8AmSHvlJXVmC0MKSAySztHW2TXZMy/pWulToYWjp/vDCuOKWFt/R5GrH87AzJGsOvepG5IIuHZdh0E2ADB/f/uSB2YICWkcHKoiVHv0d1TC5QfFJkgQIK2KcK5B6B1gtqMSaTsTVQQICQgNwBq81hpHEhpAknRpL+FcpEzh0jrlEjhl0w7Q6o0RKJ+uCeiZl9ThNeoTtkKQAQBY2D4K8AMxlVFXZ0Sy0dgPVhhXZEStrb9zQx0iLuqic+da1zkHiIY0MnnewgHpX7q0eUrynIyqwRkz76/3Zas/VnUR59NwJ5VeLrCInvtYfgJIatTnkZBSvl50QyRI3/EnlULgHGynfJ50/JdaF09gjrJ3AElzlQsMEBBu4L9YGM+wiJ5v40fctTR51+0Ap+1wUu5hsMK4ItbW31FkN2mqqdxBQmcJo1s2EyjsVXq2Pgl1XNdHq0637jFtjtph40q5GOlUOSZJSkrHRP31m8pS2fT1jStTyMlYu69Cf7WrSNytmtMMTcHNKr1cHTvPccxeYpxpnubOU0alnWz/nmpeSlBKAM6OmLaeGCF9lSc73G9yEHkydiC7Bm9DW0amNpp8FvtMXTMnWGFckRG1tv6OwyKKLKQWIBXjTZ1y/eUPLmOsr8bSgDMG0IX1i47+Nmqc2hu0rjsl2FY6hiqWyssXqVx3mv76TeURuAr7g7rMkZgavHSa08xLBTYsUuiv1DFkVX+b8gQyE0GQAv2NrewlhmzUUgklS6Hk7Exq3vI4qeNX7vAxBVWz4nttxiiNdalzmH5wHsYVsbb+jsZGeIkMkoLhRES+WkRVab3qjSAKIxjn/PoAfBm7sENptmHrOhPiUxhl7abjus5lVTTq1p2kv76Nr+Fp6jLfzvHTdTPoln6kqb9R+Dy72ufMFsddXKXSy9LwU5hax9jrLtVQsrWExj5Wvvxl27WQq14P5otKQmGjxKVvZZbu6Bb5GmX+hrZA47yLKlg2BNkwnI6nX/06fP/J/Yw//2l9U9JrU9zW1t9bkqeocb2c4sevyzBV+On5AK7bfO44WoxmIgG1U6C0ruSfL6+nRIBjsEpWAnJIdZROkDoar1e/5vJqNxeJx12WseCqjTn6Ly7h/lNX6q/NCGxKys0Mh30YV8Ta+sswjMfZCC83nV2kLCk8AJvAhGGDUujL6yWGIPUOWlD23bjo7EayadibmEdZ6qGkkAfVOQuzja6v8B39F32JzltS5YPY1aeRDcV5YB/GFRlRa+svwzBLgCBFUOM724RDEm3hBODmDkRJDV7CqE8O8MlxJsSLpev7LBbJ/RdvGOySkxuIdcEqnBLn+rDCuCLW1l+GYZaAG5Uw211DGV1I6b2bGos4pfJaSrBLXbAKG423gX0YV2REra2/DMMwzGPSx6eRmYanr77+5t0rjJ9v3RaGYRiGYZhOsNF4XT6s3YdxTaytvwzDMMzjUjQSORH3/LDCyDAMwzDM3cJK43VghXFFrK2/DMMwzOPDSuN1YIWRYRiGYZi7h6Om54UVxhWxtv4yDMMw64GNxXnhWtIrYm39ZRhm2VzUUK5eCLJPAfLmjUFelOCr3udku1wIJAS6HO7pdtj9GOalH5llwwrjilhbfxmGWTIEuYvxdoihVZO5IKDiA95ijc1Yq0IoaO332bitQGF/OGCv1fSGDClorSqNYKljaDGHsSqgtMY+PrQc6wlxgIxjaNVmDGZtazsnHZBK++NH/T6b+IC9ZqO1DVYYV8Ta+ssApDT2h0P7A5JhboXrVrfYWYPXkYVQpBR+W2bbYVsO1phZKsCQUNBx1TVJ3mic2HghpSDhyw9Gjcda1Bqz/XF4DQ2gNPaxrt3mqW1mdO1shwBS76BEAAo6foSCIIACvkG2wQrjilhbf4+QyowmDXn8UkC3GFKkYrwdDtDiSu2cHII8TvUQRJepuBUh9QFvTWNAaP/7HANg4Ji8KZO32cGlgxsDqeOeqpCAEACcaTGarkO90WphIjuhoSqgFAFwgNhhH8f1n4OGrDVmh2ARRRYgAb2rUmsFlAKSKMSLma7PqbVIOn/8Xp3tsf97vH4ngGtJr4i19ZdxSKyFIAGCgx1cz/fRISgl8Boto37u40HYxDtUmt0EAAI6bjbK/WI77C8WU9CaEEXtSmCuZCUzqYZLRWoNCQdnDV4ax7iAPmgQLKIwGq32HbEGxgmICoNMagVEIfjSuw8+rl1hXJMRtbb+MoAzEV7MrVtxBwgJCYvk1u14SBxewxCvFb9IfYAOLKKwwYgjhX1MgN3iZbAymAW7OANjS99rBUoMXh/xhUpoaOFgwhCJiLHXqDEaCZvYG5ZmjLFICvtYwBmD4uF0JvLTxSI4fSkVFCwMBOTxRYAglIKEhdlGo10QmGlhH8YVsbb+HnGuQVFI4fimtGJcNiWVTVdebbd3OCbvsc05QkFRtbpIgYDSO+hOLhsC+tASyEFiwqju831v+kzBk8JeB0iiEK8u8190qnIaX+rYH59s2XH4oB2XppcfEJTWUOSn5CNjS8s4eC8FN53COQf3fC2MgBXGFRlRa+vvpJDAZqeg8rwUziExW0Q1qoTU3vcxiZ6rp1uE9r5xNsKnmvkYEto/mM7u7n5qKTK2+qaUb/cCrzI0PQxIxdgr8m1Ovc+R7NjfQqPP1wPgnFcL2h4Ag/o7wbqpMUiEhpQCke03N0YkoCr7a5DM/tQgbGL/oIczeGlS6VYNYaMEAIs0zXz5ylhTPbYDAgUBpJQQQQCXenOICKgV7l0KijVkGE2rWAsJJQTUwSGJWq5FEtA7AVu65p0JYXSMfUzZeCFIvcvuVVNODadw1Teolt/zn5sMsjYIQmkE7QtmBKgZFUwJ9mFcEWvr7wVnb4UpUgd0e10X0Nl0jXPO5xcj73RPNmrxCxpGbnCW201EIKGxFxbRc/UDqXwj7pTr7oyG/pqwdlowNzizVngjjQhEAjo+QNQZzyP7O2ZdgBAEFtYCUihsyHZWWJr7K6AajtWRwWMSILXDcfekoJUdMWXbgxFtroQElG7McTPugZ6piz49T4DAbOuDXoggAwGhvLkRUADYFK9RlE2pez8/uLShPQ6vBtjHCm4yIz43ejNlrtVYlLDbsPIlLYlCQMfYHwScIxA5mPD5gaZ/HazpMZ1NChSkGOSRMPW1sHBYYVyREbW2/p7ILuQqGqcWPKQUXBTiU+GOQkL71BdCQ4t6Q2gQpOCfDVXO51naDSGgtUBS3rGN8FLy0TqqUJ13LwET4pM57+9eC5DaYWMrlEpSWX43BxNtz/zBSGR553SMtErlHNPfMesWSBILLQSEILx2UQYL/S2rPcexUXesAIwdk7dhpjY7C9MUtEIKNDjC3xtazkSwQnufuXxcZ8ZhQMhyIxLSxCKxBgkIUgdIbbM6XYuNYOQBe+1qZxD6dUNAZEpyY4Q3CWwEYMKo8Xy4JIXLEnk7Oz6dzWUzFKrfAYIsgKnud/hZgqHR83Z7dt/qhDN4CUttEBoKNaozgPu8fsfDCuOKWFt/Tzi8hs8lp/uq76qh1OCldONwNkJkvMI0ZCqzkSDzAarMS+aQmBBIAgy/qzZDaXJx03U2QmQP0IIqjaq8UoMz24vgAT8tLLBX1euO6u9Ux8omSCB8GiLT4SWi0N/yQ6U4NuoN0HFjEtm+jThNSc+fKmZ8m68NqR0UDF5MehZYIfUOwhkYa0FOAanx6V8mJDEGKtbYqw5KcwtSKRAchDI5qgAAIABJREFUzLZFsXQtCjkJ6J32QSVRiJc0gN5p7A/d3De64rdVsaHc+K/7HYRN3MVPkyCVz584PUFWDUg0zKjc37UwBawwrsiIWlt/p8LVJIvz3883/0AUoHIizrlZ/ePq+purcFXt8tPe9al7nLVwiur7hHH9HX+svPIklYCk9gTR+TR/nR9WPjaa+juex3lANbpNdHdGKyGgRJpFYBe375BEYeai0PP67VMy0BkYq6AbleYOCA0tuiYbr4EENkpBBUBiIkRIs2Avhyh8hhEaWmnsY8D7/lqYxMLZpaplDonxKmpd+1r9yBuIxjbvQeEo6RWxtv5ORaNzNnBUuSbDJv5hJjT22gdUXNMtprW/FxCo60O96liN6e+Ex8on7u2S4Hxkf5kS1FyJY2ABZKkV0u3EgSc9SRILgKDiYoLnPmS+izYapFLmFWX2OwlntvgU+sAWoWO8HU6lFp2N8BI+4yVz66CshKJPTn3IEntraK2xWVABgPojckrSbjjH42SwwrgiI2pt/b1ffF46ipW/cQt1/MU5P3VkJqyKMB0EFR+g2hcsMaa/Ex4rZ2GdglIK0tzW0FgXPsF87TlKfWL1PpDSEEmI6NYXSZa0WpGvtpL0NPp8YJNFFPawekhgoyREAFhjYMqBN3Ry4ygrls75fUXwRqOUAiqrzQzrp+279IAqk6xnvwE1SdiLCxAIw+9xPll5vyTtRPTQ/odTwD6MK2Jt/b1rnMHLswEJASklgkxp8R8NqZoif29I2w23zpVwTH8nO1Y+J6Mir04s7tgylwiFDeyl36yJJptWJBJHRZmkL2/X3SUkH1Pk/V47+MeedqyglQ9gaR2LmZEYwCFNLF6jCEmuzJZVd0FZH+pcAXyUvzMGJjLe5SEzprri6pKstyZhJ2z0Di4ZbiySirOsCQ44SwresI5UUFlid05PVQ8rjCsyotbW30fAWYvXYkANCWx2GoraI3+vj4PZjkv8O6a/Uxyr3NdSSoGILcZFc0prpCC6pDAaiHMWDpkPoIBXontcdsN8nQmbnYDrmkjb2cvSlkJBIrmw84Sfq0WKoNq1gggAQRLBwOad6NhuBxOFx/rM/XF4jQohyySwCdJeVXic2cKQAhKDpHNcoD8/yZTBiw8IK4wrYm39nQo/HdNwwxqVZLYnzuJ1ayBiBQrGTdtM2CjMFv8zpr9D1s0DFYSENA4OVRGbPfp7zbGxRLJE7kjrntwWSeqrfzThrM1S3xS/TZHYbLuksBEzlvdzFq9RCifQPxDEJkgQIG2LcC4g9A4w21HpupyJKgKiBIQGYM35y9UZEhpAknRpL5WS5ac+uXmd32lw+k+ra2qgfHoqoOcLgcNr1EdfJsgAACxsHwV4hbDCuCIjam39nYq6SFdqiHxwzgGiPuWOzOZJvFN8abvKl85K65LPZtO+y3E9P/W3No1MnrewIv3LmP7OcazyaHDV4IyZ97fuZSIfG3UR59NwB5VeXLv/na8nbRBtK1IjkYAWgBmaD3FSHIqXKykNabskiLaInvtYfgJIwvaqSgMgpXy96IZIkKb7WhVSKQTOwXbKX1qYJm9dPIE5yvwBJM1VLjDwuTiv7r9YzJG7UBejEqwwroi19XcqXKCwV+nZG64vRZdNY1QYfc4YJEpDCg0twsvEzlmy6eqX/CwPWKDgLh6iPv+YBBalXh3T5qgdNq6Ui5EEdOzbnCRVb/5j+jvDsSrkZOzSX+0qEner5jRDU3CzSi+TcSpLBygoBbhyAm9nEUFA7w4+d6CZUUU8wyExyY3qGdt5xk320uZMS4nQLEVWrSh8Rk81Lw9gcnbEtPXECAmJPEvCFcmTsQOnbA8LhxXGFRlRa+vvVDhrQSrGmyqUfzv+FtVMG1lEkYXUAlLHWZm94roOSVRT2u+YkFlBxwq6VO4uW6pCJfAO46IkEFAWdah2Mc5MoNQiaqqw0Qd3Ss6tdAx10d/6YzW8v+PWrScvFditv9Xnd2TevEcnTyCdVRoxlYnXM5xFFIawagedja3EzJwpwJrW6WAigaApEeAsEKRAf2Mre2kjG7VUQslSRjl7I2P5+pxmA67c4eD0LOh3f7odnIdxRaytv5PhzCk/WW4QOJ/8t7GOtI3wKYyyiEo6ruuyB2D9qg6vYXiqunCM+PVv/s4aRFUl9gB/E6Lzz5HS9z1nnlpxJqztr2k8ViP6O2rderqk42jqbxQ+z672ObPFcRdXqfQyDaQ09nGh2kjUpTSdr9rzKUvCLZXG/hCfaohfHX/9SNmlKsl0+9zEsc+PqLvvl4TGPla+3GerFZypXguavZgCEgobJS59K7N0R7fI15i7Jd2Tcf70q1+H7z+5n/HnP61vSnptitva+sswzIIolqUbM7VcUCe7+35l/mK49PXMK4L0m5LMy8f5F4f85cC7IwRw3eZzx9HykkAkoHYKlNaV/PMuG0r40pkuxbHk5ZDqKJ0gdTRer+4+kVe7uUg87l/+r5tw4uS/6G5xLAby9NXX37x7H8bPLUs++X/f3+dvFcMwDPMYZA9qkRmK06gpAjrWkDTeYAR8jkQl+2mFaZIgSZcQjFOEQML7g8ImHaftc19Sr8onZjufWi003rS4qZF0SseUzX5so+srfJnhTHcS7JLTTWHMjcUiD2A4rk1xW1t/GYa5PT1zPvfZMohc520T0fX91K4KQYpgYPAGgbKUQbNCBEL3czZfM248FjLDGTZqdxNYEM0KY5WhWOQBjEaGYRiGYZhr4VVOwAzwr74lHzpHSb+/nz45bQblwvnNb//21k24KmvrL8MwDMMsDWdCfHq+L2MRaFIYi8ZgWUls+o1hGIZhGIZ5KNoVxiqD8EGMxLUpbmvrL8MwDMMw09CuMNYZh3XT0Q9iTDIMwzAMwzCe7j6MRZp8F+/Ir3Ftitva+sswDMMwzDT092HsahCy0sgwDMMwDPMQ1CuMZSMx/5SXqYqeztdZOGtT3NbWX4ZhGIZhpuHpq//uv/cK4+H/qFmip68iR1AzDMMwAyAhQOkVa+suJJE0w9wDJ4WxyTCsUhDruCMjcW2K29r6yzDMnUEKOj7gLVaQ19hfoLCPD3iLNTaFGsMkCP0KBfaAFLRWqKpEKHUMPeO+SWloJebrW4ZU2veD+n028QF7PX/7mGF8+Mn9jC/pC//XHUwjT8nayuStrb8Mw9wjDmZrWurrEqRSkxkWiTV4LZTFc2kAFR/wFsezGFgkFHQcY3OxYfJG40xGkzMRDBT2h3n6ddwPAki9gxIBKOj4EQqCAArYXFwqlz6MY43GOzI616a4ra2/R0hhfzjg7aALqoWAPhzwdqi6aT8GpDS01g/bv7FIfcBb0xgQ2v+uxfQ7v8cxObTNPRQmuNSvEzQtJ7CJY2ilsI91pVLXm/KctLOIwhBR6tWy/SHG1MPAmW1NpQ8LEw2pB911vyEiS75fsZ5VyU2tRdL543vcqxb2PV5Hd8y5wpjTxW+xapk7MhaB9Slua+vv2iESkEIgCG7dkqVDUGoGo5DJEJC50jTJ9lIk2xAvYYiXrZnNsAIckijEi3EACFI+zhhJohC+WwJ6jhci5iH5eKYwvr+fjL6np3Z/xOIyVRHUC+c3v/3bVRlRa+svw3RGSEjYlmlQZhDOdK+Zm7/cpHWBKH4qWsAgMteJVHFmCyNiiFz9BEBCQ8EgsvcaLePwaiyUDpAktmE5gtQKZKK7q3vMTM/HXGH88e2P/ps2o7H4e75MmTswFoH1KW5L7m9bYaFROAevEVSRcoTkqnFILCCFgBBA47Nz0t3e4Zgc22ZS0Ls2vzn/q9jFaNa9dtDYNhiNBOolZzYvn2xDJICfEhc7aEUABMjkCmRxU8K/fEx+DgU2GkgapqtJ9PFLTGAM4CBQJ54KlU35ixhBtF2egXyP19Ed8/HL4N9d5mGsMhrL6XIeoDTg2hS3pfa37v1jMUOJBPROQRaeKM5ZWHPuKF9E6gO0AJLoGVGVESK0942zET5VLuBVDK1E6UHm4KxBZOzFzZBUjL26vHVKfbj0U3IGL2H1dB6RgKror9kaJFV34KwvSfQMK32UJ5yF2UZ4dYSN3kGdfVfZ3drjbLZR/cOXFPaxAjmDl9CC1A5KnaJMnTUwxjQ+vFNjkAgNKQUi289i7H2sJoWwiWMoQuP5XAzOIApN8zJC400HsNtwtKJFQoFc0nxMyEuaRIXpcpLeRcFEqLRHnUEU5X8EICqpoS4FxRoyjKZVrIWEEgLq4JDUGG/OpiARAEhREEQrCKBiDekMogafQbcNcTpjfU8IQSiN7h4x/hwsegyvHK8w/vK/OSmMOWWjsfh98d87ZonG05wssb9XdXvN3kY9KdL6V9Mj50ZY9mDIHO9JCwgb4aXG4BtDbnCW2+0VDo29sIieyw+k8zdqolK7zxetpKm/OhZQVYrKqdFQwt/wc0MKVpx/F2u4i3a37fcAUWd4n+0+hhLIjpdXjEgob8BW7DPbM4LAwlpACoUN2c6GyqhjlTNgTJ72v8Nx96SglW3f3xSMaPPU+JcqVLxUOCQmqlutgIQGYG1BEUy9T6tzdqDi7PBqgH2s4CYz4gmbzM/WmSalzx2DR5o5mXHu7HxOiYPtM5VNChSkGCRiLmhMPjIfG2tJNymJD8BSFbe5WFp/26pPdnGj7UZ2A6mi6WZJKpt68k7iZzfpXNkSGlq0GzO9IOUNH1hEYflBmKXdEN5ZPSns2JkILwUB56Ryht3ad+zvpYJBQvtUH2qHja1WfyQSvDx7tcLvW0GkET4920J7KqZ+C/s10fZMtSWR5azTMdKwQXUiBQWDl+fiAzpX4C6PVZkksVnbCK9dlMGRx2rwmLwp/dtMQkH1CWMOAnRXpgLILHeijmNQ0/iogahfRJjUMUTSYWrWRjDygL12tTMIvSABkSnJ1/LdHIXd4lPfdjqDl/D8q3Zf0Xu8ju6XeoUReGhjEVim4jYnS+pv09Tz9O8pDq/hM15bvzsn9wfyaSjKaTcMXiLCmxaDpjIbCSjbb9VUqkNiQiDx005Tcurv5QPR2QiR8YpanVHlXHq8QecGmCtYhs45QFwaD8X9lqf4/fS7aNxvtiTMRcSsw+vWQMQK1BbUYhMk8FHlZNofNGOP1dAxebZ0FoyhrmZI9G+zs6b3y1QXXXDIslV4Ff7SvaNyWZW5W4gYKL9AVpAYAxVr7FUHpbkFn3OyaozfmiwIaRY1L38hqPEVBTDFdcR051xhbIp6zplO9rk5S1Pc5maJ/V3yUMqndF3d0yRNYCwQOMzie+PVj4qtOjeLf1xbf51L4YMDato1ar8OtuYB7KyFUy37dTVBBs7COuV91BpPkoUxDlIJSGqP6r3VsSrt5W4fjFLHXjkyfV56/FS/MwbGTJGn0Kvd/mWhhaIK3lXJdAbGKuhGpblLMzW0aMrbeEv81L9D/Shv9eduYOwLATMtPg9j8O/Ovy3LP+XSgA+iPC7NeJqbe+zv09P553oQWmernMVrFPkAlCl3nT/AhMZe+4CK+d1xOvQ3J5iyPdfaL7Xmo/QJg70q2Lat2xyrR4JAQkF2rQISBCBBAGiaRN1AVkc6N+6blhPQcabw9Zz29ilryAeYDGuk91200XX8U4t7Vt2T/te3LDPKnYG5VgYCZjYufRi7zBUuWRbqwRIVtzlZYn+rhlOTYfhAw68Biyg0oFhlQRvq+ItzLov8na8SxG0gqPgA1b5gT3qocJkaqZSCNBNHuDIVpHC2R+7LYzBKOsnY924FDqZpapkEdKwhK/2JO2ANjBNQJKAUIelp9PnAJoso7GNtEUi0JUnPX2QIUoiL40lS+cwG6oCgw/R7HVJ7Qzkx3afSfcUf9j9cIqc8jD/+P+e/1D2VH+hpvTTjaW6W2t8unhB1yz8szgdwkBCQUiIIgkJpNA2pqqKk75y2h8S0LptVDUBiHRRlgTlz7271BH58d128X2LFFrwBB9uU5klhr/OUTUN9B/MxRd5A7eAfW9y/VoDpnZ7HwaUBSABw9el1fCCxg0svDXBntkhaMiC14X0+8z3V53o8Wyc3VO8hTdQKqY6SfvinsWeJitucLKm/Q/O/Tx9BvWyctXgtBtSQwGanO0X+3hcOZoLce6NbkflLSikQscU4M2mlsVKPNzymgNT/z967JMmuW+mafxzTMG6nuGR2e9qRZnmzJiCg+s4jUzVTysZGDACeY5BjAIFolJQDOPT+Jc4c5HGrUyrTYpqVutlUR62oBkg6nQ6+3OlP4jMLs73d+QBIOLH4Yz2UV7568uZIpcBl2qxzhmXlzzqxhXjbCLA+8TfR5dNbc/m0OmzXsKSA3CIf/bJXZqWYM4gwMhuHlV6WMguX3IvxdC1u0d++Ci73nbWJMficJ4E3JZFwfr0lYnb7yN+EQJjrvCP6W1HMOcFMOO81qAIVhIS0DEaocsatrtUTMslYmavm8V5dPH7fIki1z47Q5zdIQgA9Sa9rXI4cCYoJEc7CbAC7njdd19VhvOspYSsEmQCAg5uixEauxg9HtaQXxO9+/2+3bsJVuWV/+woDtWOqqs+7tr8WVQQsdS2FJb7ygqRjp+9qX9mxDlN9HlI4SBkY0+NwfilFYKC/Vc66wSCBk87bE2xCCsaYOifmpfH3pDQqOrjVtWqdBW/ZDp+7HT4zdTc29yRqN4sRf9NSJnadEG+VT2LbGiMBk2Uw5Xk6syPU28uRATgO+nWKUiiAMbken44EiY9CurKx2Pgd7U4NTloGP1QK4xKJCuN1uV81MQyX6kGdf60JKWxNt9HH1taRzu19qUyTAfgKI8ckkKIqOdf+zuc9k8CgejVktB5tX/d3E26z6k9/cyrN874dXWcfoSqFwNUKw5ZR6n11eW91rQ7Oc1Tp5dFMxgkR0qUP77lIk/kgkgP/X4JUBtuNRGFTfFuPU+2nJv0ej7vouLlbhITE/rd1Naqk6MC4FEsLpr/Sy5NzTz591+Ae+nuu18N1Swnuk0ZLk0E2y79VmwSXtQCUCoY0omNfRq7Dzuz7hMwKJlMwrdKA5VawA3kq6vyFwuBz1yoPWNjjkoZj+nuJXHCN8yqTQU26zpegKhXYs8mtrtVTcVqU9KlIk8EkTWPRp/YxCnDW7pefaew5ylRN17VuIAVGlv97LPaq/JX7luyfyUPP1KUTFcYFcS/97VueHtrm2rBN8S3VZaLscmkMALOD1Wl/HWmnO/fVaV+5PsZ7mvr8jpURUv4BPq2OHpMPji1WdSqQ1vLeCf3V6evFcsGddZ0vwJg0ILe6Vvvzr1Gf4lFKxt0EqhOFr9K9sShFAhQaq1QfVRgCquoqXYf0kfTSZMeq+MXwpS6NybA13er3/Kf19dy35nwfUhIKb0ocq8Vl2qFb5GusV2AGA4UiL7/5bfr1F/4b/vH3QGnAJ+ceFLdrcov+ttN69qX5bG/f3Kbr80gk8nj46h8DqaFI4E0piGrltzLIB4JR2scwG1UGkIzOBFjWax+xKTvo9T4/o3dHSMDFxXNAHb4kVAF4o3f2idAJjNz1t/XANWOOdDflfVVHhjaPr3s/G1W9+YnjaqG8/Oqf/+XLR0n/+dZtiTwp7UjpqUZjm2gsRk5iYVkg7plRBmMNQZrSV5QtdGpHLWOTMFAyhz01Lc5QhaW7Sy59iQKll4OUr7cOlCsJ6xMSo5/fCGwzBcIT5rW9AC+/+T9//PrLX/+/qDAugFv1N5RaZ0h5HLNsHYmMIg6mu4OEAAo3IY7JlwQcXUOdvHp2bXe4yDSI6Po+i02EwafxpRe/PXYOo6vw8qv/8b9//ffkv0WFMXIxunIxjk3WHYmcTJ9cHQdbJLJovMqJyTXCl8oPS4+SXhL31t84X0cuSlu2bif8vJfIqkgkchPYpvg2KUfmsokKY+QkpqiDXT6LUWGMXIyxjrJxwEUikcgofvjvyX+LCuNCmKO/Ly/dwswUV7Gpx4hETiIahJFIJDILMUo6MpqxxtyQoDNGcYzzfOQshhTEGAgTiUQik4g+jAtizv42XcLGBLOEvhtbPzoSOZnQYBw7QCORSCRSExXGyCjGqH9928TE25GrMjYDfBdxgEYikcgBUWFcEJfu79g5Ns7FkYsTemPpirKKEdSRSCQySFQYI6MY6184pDJGYzEyK6f6KnbtEx1pIw8BQQogH13u8NnbEbkGUWFcELfub5x/IxejL4glpCB2DcaoMj4npGBGFYc+2AlEvcUBbwiDaYPPXQaj5m8jKeNLMY5oRw6F7S7D1oj+UoojkeW5iab9vWW72doQCRMVxshoptaAjgZi5OJMGXRzyOSRm0JCwaiphh9qw4+dxmpCCThSGbaigLUW7+eoaCTwJoB3O2/5OV+TG8j1K/q7RXgzCrB6RJJqwluWQREj12voEf2u6kKzTbGy56mNVfWV3FqMvuQkoZQAscUqtQ9UUfux+MXSFcZYS/o0xiwv380SdLDAvIDZGUhwLAv1DJDA5g/fIYlQmXvMDm7qRD+XsVjWqJ1jAj3iEcfzTG1mZ7FyduxJIZWCUgJgB2st8mJas9mm0LSDMQKibWwSQSbJiGaUxgwARf4Y4a4SSCTTFDJmIClQQEB22tEEoRQkARAZkiEjUCgoAnKdtoxQghQJ2B23n+0alhSOLDyhYOBGGZ1tCueQj92tICglgm3r5BF/RzfmF3/hv8ErjP9167ZcnSUZi8C4/vZVX2nnUIwrdpF7gL7/hKxelmP8lYEXIhAJUHOibw7gu3mbicwJkbehSJSGorPQr/osxSm3FkookFB4I7c3IpjHHbew0KOMXAYXCQjF8XGFgkIO61oWb7HGqqUsklAQbGHrTQvw2mHfgr5WE96UAJwOKpakDIxysCEDkBkQCm8NwzURCpIUoNOTjMbIfREVxgUZjX39HUpN12U0tpmavSQSOYvkOzalseh0Cv1zcfDdNlMgYWBEYMmuObCjP8UTIKAyA2IHthY6HatEDsAOjhVQ2CPFiXlmI4hdqXS1P9dwZoetcNBr3aO8CahMQCJBcYpCJhQU7IGSSkSH/Szy0UvrkhQkbNjAjDwcP1QK4xJZkrEIjO/vUDLu0Pehz9r73YxeJaDA3M/8yPUg4Zf62P7oFYzmICw+6olPVut1Y9Lt3Lux+Ijj+YptJgCuGHFAopHLv4z39HXQ97GvbOoc5FojJwGTGciObUgpSLZYvZ6ynCpgTAK7bvoACqgsw9ao5wsmecTf0Y2JCuOCjMau/na5bY1VE58eEjAbBdmImBzrH0ckoAL72rVFHnoilb5vuX6Fk5mPVGQHu9Z4Z8Kb2UAdfNY6X9P53CV4U8pv78+M3K6hh3zqSLT2G+5vdd5cv0IXrevF5XlD+5b9xYCzepdzfx3M0DQQmgP3PxkMAUoI9PKzP35rYBMJfA/4P3beo2a/hYFRAvuuWr9f7171zsFxZXsVpLmoAhsweO3vEVIG0nUEcBR56/oJGAPog4FT+q+xg071uPvVQfsZ2Z/pyQefsO2/xyQEcOSP5+AcIJGH7xUpKHLBeymVApztOSfhLfNLx81rSkpBAsjzw7ZcPnqcIJTBCA/REu/7+Uhj+BGJPowLYqi/oQfckNH4UBy8URYoGBh6ba4MofIA/q0z5B83cV+TCai+gAhpoIR/AFZGJ5w4/Cwz4NeuyU7AZP5hz8ylmkKQKoMkjW8ntJmMgBgM4qgUEN6flwjSZKDQvi5HDgFJApKOl/zKRsEHxvoJcxTVwOUPrP7pI/z9QH+H7pE0WSP1SLWvgskI0P3N6z/vDmIw6hUnjef9+TeoT08KRrn5g3NCTGozQZoNVMBqICJAZd7A6bhOJAwk7PH3wvj0K1UgzIhmS2UAVxp5JCDLNg09Gw+fqYfBJ9SzZEzSwBgOqFwMhoLJVOc5TXYc/eKvFwFpwFAlAbMxoEJDF83AGwlVvnz6l73yRiUEGmnJUQJgjNp7BMONiuiuTqRASTE+qvrgVKf/jpZGVBgXZDRes7/3ZWgW3c+svmUJUnWOs7zttF0pFF3+cfW+x6kpSBgYI0BqgzcXnjQkcqxe/Vu9V9cURKHx7bVcYjU7GCEgBJAHndMFYFN8s83zKhhzapvLfXva7A8hA+ctJ+jgvg7WMqTyUY7vASupWnb2xmUP7UCW0CBsfn/OPRJVnrqOfUNWTuC8Vq8PVNvqOkuT9fignTieb8opbWbkOj2+58Lg0xDYrpGTwbZxrQkAhP9tejZIYIFEQsKBVQYjANYpVl1qeeD+VQYq6RTvzoETgV/+5z44pR5WiYJRX/j49w8w2gZjO/hkiAI2pH4KAVlMiCAmhW1GgO1SGAlEAJGBSRzY5XBMEMY/Q/YvEgkSAuAY+dg3N/eK95HN3O+zPnh+jIItVunhRyQMFGxPsM0j/o5uS1QYF8Qp/e2Lin6cJWnvg/Q++Nkhe/+4QIQfW6w04dMISCmgWw/Q/b7HS7HsNLT1CpMQhPfAsifzfjLKcwcjBLhhGTIz0JdY19kjxYidhbYCW0UdbfYhpuxCbd7v29VmAKAiP3rYs9PQbgcjwvuyc2BFIOEn9RxoDDa/zxcYHzPnsDvnHlU+kV37WrmD6bg9zfO2l/jHXefTxvPB1nYNK/ZL0oNuCmdzfpsriBIADOcYzBqr2gIrU6I421L9feSvyjJ/fdP+1CvsdCvy2B+X7LpWK4ufHarwquZzUJbuCZs/MNIfP8AnPiP97zvwBanSn5BbCuVejWXn4HqXn9sns1ilDlQbSYS3zC/5TzbcOjgKnKnarFTvY+x0EkhBAER4ZQPAnGNyKUSFcUFG41B/p2YaGarK9jgGZZjaP67Lj63IYR2QMI78Z4b2ZS7g3+yT1p7z4I/ffd7gd7Y5+Xbv29fmrvNWRm9wX7awTsEIgV/Ll0PFlH7tJxR2yIsXAMeDqlPIDkncjUE+xz3q3rfboPfn9QZPcN/KgL7Q2CjP8qATI3lDoMt/MQgjdwyBEf67Ezl4xgnj1UubIv3w55k3e5MrJFFEAAAgAElEQVR3MyEORUqXamy5vGxUmf9wrH9mQ1EjtYEoul1tOFH4zBTyYmRSy0RAEgI5SRm59SmPpvouj2HAKyRyAjFKekF09beZMqeLrgprz8sIPx12eNca2rYVi/E+PkjGRmrORFFODBc676lpRvLc4QuA/P79oF3061KNc2XAylg/h76w/pcXnHePhvftMpzvemw8AiQgyI8XoF0errEZeX/dz533M2Uu6gCOyyB86UGnj9SsKnr6PBcd7xtMVmMV8kOsYAedVgm3BcT4qBEA5XK8cNCh5OJlVDkXBUBAYTW01rCcQCYMq/3/HQQkcujy/z6ljnc9CTa5p89CoHyhnNaPyGWICuOCjMbf/f73+I8//bEzuCVE3+cxB/LzUSU8lhePgmzRCH4R9AH+6xcAAaUIL2C4nxvTSt+A6/ObuCvHWoLKdugOXYiEkEqB2NZqEyUJUAQSXQNg10hqzTlymE6f31OphqI0fgn3WJUjqJ/+gOTj37F2fNqzkhTMhuDWr7BJf1nEOnpcp4ARgLerx51GGBjF0K0oayqzoXNCILAPLJlenXEy0vj0QbkdH8Fft/WSDVsw0YdxIby8AP/xpz/W/44GXqRNMHL3YIMLKl4vP+OjDH6Rv05g/8qAkF4Rchb2rycYe1PejG7B0MQ2sYzd81MGeenKgPBLzXv2ctqx0s2wlrFVCtbNm0Lol+onqMT7ARYvbRcJhv3xA5s//4QdW6z//QM5TxiGJCATVychl8rAmB4lnwhURY/r0WbWPsUSEphMlD6HDuwYjp2vnuNDnq+Sn5DK4CSvP/aVPWzsI8tUYA+YJupRiArjQozGr6+9wghEozHSxqt5QCAivN6kzJl4Ifhn77v3S6UgrUY1S+SVJDRF1r77wc2w61irdgp1UuqJCiEJBSoscufAap4UQn4oEuTmD/iOD6x/9MZiaDvAQacfoOwNm58Ekh9/hB1rNHIoGtqFo6dLw4+KQCqh/pPg3ToIk4CthXUuYBQS3gT5XI6QMFMOfwJ1bep8Sv3v8vk1OvdWZCpRYVwQlbFYEY3GPhg98SEeEnhTEgnnsAd+jCP2rSiuvHxS+cW1z1uph3zDMl78gY8y+EUIUS57jcu9+PL1hVrbaaXO8Qma26rDOfdoeF/qdFSccN7InjIVUa5TcPW7O9qozB+YKBgj68/qaNl07YOrBlJDNdmL2u0HpcDmJwNJf0XuBL5vBJAkrdvqd+YyOMSrdL+E+sN3uB8/8NeRXW/SGT19Lk5j9drzfeU7ah0ACTQTaycEEKDKtAB+6DfuQUKYLpcz3vWUsBUqc2M6OBuXpC9FVBgXZDT+6+9+P5vR2FUd5pmoIl2JCMGMsImEEgJAfhSRN7RvZVB0B0ecR1eEbbchM/aYlyV3PppaGq9h8EBi5eF71GEgj9h3zD3q3rfbIqzO25k2p8rTeNF0N49V6UUqBdgqmMPhXRcgtO9pmf6msAdVXQ5+m1pD7AxUlgGn1FqucdDWQRoBKV6QOwdnP/Dxn/7+hp+JAtjty/rd9Qs7EShJIEl6ew8JCM4Hn5RLxVVibVIZJBxs6SogzQ4G+3tAKvPJyi9KmSPy6v6LzeV8B91ZSOE5iFHSC6JtLFYMuYY1o/wuXS/1nuCyNJf3p2k98Uhha1pLpsF9N0f7eufy/tQqZ7c9UQ1/xOq8jUTk7TZXD9pGsvJwmy9ENXO6j8Yk3ro+gRpst7pH1fGC+6oMKum+r83zvh21uazQIwQu6Sx2XOnljiVPYWCStvF8qmHgSkOGoLIMbwMrCJuffsLup++AtWDxh8Pr5DRW6Su+vabQ2sL9zANZArxRtS6Tep9OAhICMvB30isdidI3MsM22+Fzt8Pnxlekya2G1jkgaPDl7aaU/s58VE7xwpTKK4DhwgJPQFQYF2Q0NhXGdsDoqW+7d/uGPAfcSHRtsrLcHQ6CP3xS6hP3teuL+bCxtYDJ8KnQKA1YEmyzn0ilESDV2A/7vIHWOl9B5qJ4A00R4SXov9Xe/Eb3yGlo543U430Z1hbdKmPjvMpkUFPavDRIYatwFLl7Fo1E8irbQbgyNVadiNDnMpQEgN99Am4A+PgAff8J26yAsx94d4eBYWOC8IufbTDh91j8mHLgjsjwk8x+BkQmIMu8iO3E5rXv6DVKR57IfjXgym2sU1/55+OzE30YF8Sf/vjHo6XkkNEYSmH3uFVezoNtim9OwGwUZCPXG7ODs/aoUsfYfe1R4t258Ul7i42Cqg2X4zJ2h7torPQ+rU6d2NpZX3M3MWengflCQKJuJgJ9eanP+z8/PsAj5Oxb3aNcp2BhYJSo8wBylVR54Fqd0+Y5uH6ll1MQMBvqCPA4j1yngMlgEgeX49B7I5H+fjiNdH1oPPHHj0h/Ftj84Q/4NL/0kcQFw+X7RN2Vz2L7GUlJUg/9JBFI6AU48n8ut6Vuvz92XskMphKyGqvJQR9l7sZO9wjATjHY2R1VkZoDEgqSGLkrDg1DKgP2bpCvsar4FA5Oej5efvPb9Osv/Df84+/LMxiXpjD+7vf/hv/4k+/vUR7jAEsxCp+JKjXOcVWFGzNk+NWDTWCzM5BwWP/T+thQqLYbKjMUeXikUuC+HHwk8KZUIzk11Ybet3Pl2TKfH3A41A6GMRHErxWESFp5S9tjMlChyH1gpbv75iucnOoTR5BKQFRt6qy0Mnyct2wDtKP5hcGnSWArH1CiRlnB6vy+5F+R54A0UCf3pd0kf8/VURUlLrM7nHuCSY2p/Rfv7nl7IaLCuCD+9Mf/Kzhv31U+48jz0zb6qn9/fYGUwv8BHPsD9SXqjkbjU5LbnjqVQFlpyeG9rKNc5e2bZWmwY2nz4FnJDMcauW0E1hDhlyPejS67dMrILSMHQaryukxWkQnSqGNjsT5FY0n8SO30S9s5CbxtTGlQzeT/WN7zvJEz9jorNgFq/8XuKjazcgcvyVFhXJDR2KUwAmGDMc7Dj8ddKox9IfUH3yXlGzvv1YtTjhlZJCR8xPrcoz40T4e8KtrbnfNMna9iSeUqMfFIRN6n8ewGEIgCRQBmwCcXv+EzrspLO4ei3ccdLQFGhfHBmSKwNBXG5n5d4zGKN5FZ6aq8Ug3A6o19jD9QlMUjLfjCfp/N52HI/7vNOc/O+QyhE4015pn8Ri9jLAI3CHBpUaUuu2iwS98z7gYTdFQYH9honCqyVP3t8snpMiCj0Rg5i6GllPaAHDvg7mCJJvL8jBXIQ99HIifTNfBuuLry8qt//pcvrzD++aonjpzPqQ+rMW/DccUvMhtTZtw2fYMvGoyRE5mqCHYNtejKE7kIQxPwjSboH5aeh/GZGJp7u/rbtVJY/UUiN6NvUMcBGplIX+GBqR4Ocx0nEnkUosL4wJzqCxvVw8jV6VpqvsNll8jzMsaY6xumIbedvs8ikZMY68bT5sIDLyqMT8DYVb6qv03H7UhkNvrkm67B1iVlj0kUGolMIFSQIDT0huIMugzD+DyNzM4psvcFn5dRYXxghtI4xAdY5KrMLbFEySYyE2OG0lRX2zgkIxdlzOpLHxcYoFFhfCKGHnLP1t/IHRNVwciDMWVOjsZi5KpUymFIFbpiwEFUGB+ckGtYVBojN2FuGSYqjJGZGDuUxqiM9zEUCVIA+YVzTx6d9dbJsmtOTEh+b0yJhm5zilR+JlFhfHC6IpybVOPnGfobeTDmUBrvY4aOPDL0HZuNmLqTr7hScl9B+QymDT53GYxq11W+FAIqy/CZGcgrnZKEgjEKR6cjAVO25e1a3b80XS/cIQXxRgMxVnp5UkKVCJ65v5E7ozkAh5Jxx+XryEhIKBg11fArS+3hC7RZI127UfPtywsDIsPnpoC1Fu/nqHkk8CaA9xmrgrBNoWkHozKAX9FfnY7wZhRgdX/Jzb4jKAXZOB5mL8JYHpkEpFIQgmpDURo+KL9HQvjvivzk/twld15eLVZ6eXIjqjkX/+vvfo8//fGPt2vMrSCFbaZAcNCvuix5JWB2BhIj6hZHxjMm/0jXPiEGHp7S7GAEgK77eK16r9fkEcfzTdpMkEpBKQFiB/th4Yr9MubYwJZqjLHTWDXHEBFkkoxohvRtAIDyGOGuEkgkx2pa77EVjChgbd5jvhGEUqUqyMj1Gnqy8Vvdq+b962uXwFtSDBrZRARKBEgSRCLKzwCwg7U58qIILDtPbEvnye/gdzQ1q8SUdDsXMDyjwvjkNIWe//jTH+/9BSbybHQpjc0HX6gu9ORBSlBK4P1ZjMLISfzylwAzQOI7vn8XgPuAftW1MTVU/zlEbi2UUCCh8EZub0Qwj9PYCgvt7IgNGVwkIBTHxxUKCjmsK1rHXmPVGvIkFARb2HrTArx22LdguhUkjYGEv7bCGAxpvJUCqNhildreM3LhkGuLdwCVwUauR9EV0rfF2kFj8X58LjsIPfuAcasyN5jIf7F0H8YlGY3/+rvf4z/+tECFMXJb2kZj1zbnIiQk3OmKQ+Rh8cNK4PtPGxA78McH1j9+lF8CaOSeHSNoH2zDDo4VUNgjxWl2Y4Q7xi9rOLPDVjjotUbeeVoBlQlIJChmUshIZTACyPXQsnfVBINPAYAd9HrAWDzh+kkpADAcJ5CiW+ElqaAEgW2Klb1jo7Ei5EcWyk/bfpbO8sI9jh8qhXGJLMFYrPj6wnKNxV4loMA9v4A+DWOis06Gy2hRATHdve3xeMTxfMU2E17gmHsLB319AaC9j1xXQIvfj/Gevh4uR9+AXGvkJGAy0/AlPISUgmSL1etMy6nCYKsIuU5HG4tbIwA46LTPsD0RUlACyO3aL1d3/gFJUvpZkggH6dzj7+iUBKBXTIsSo6QXxL/+7t/icvQpVBF5u139t80M3sSwtxF17CupY19h8LnzPlPSlPvVkYCEt6PPWudT/vutIu9HZJrnHhlRebTfcH+r826E33/T7HOWwXTtW/b3MwtEQjaQZldflxBFuTzl1YeJTO3vmfeoed7w2JjehekQ3rLdqGt/j5DaX9vD+fIFKPLaUPHPO3EcIU0K2U8Zsp8MxFWfiYQ3M3yP66COAxycA+A6/BVJQZELLgHL2odxSlMVtkaA2aEY3rrensCw6Rm+hfsD4i3L/LOsRCoFchraMpjZG3UJvPHX/Ev8aoNOU6y0nd9wvSRdBmEzD2Nf5awLEn0YF8TS+nvEwRtlgYKBoZmSVPOBVT6giEAkQEZAtB3hR+5rMgHVt1QiDZTw3kZEAmqjACcOP8sMuNPpW8BkqvQ74lJNIUiVQVJ3AEi7zX9l4KXZ38HlHYHNTxtI8P68RBAmQ2Z/RPrR2PflBXA5cghIEpB0vORXNgo+MLacMI83QJL472Tbz2yAwft7oXvUPzZ2EGOW/04Yz/vzb1CfnhSMctdZtpvUZoI0G6jAqiMRASoDdAr7s/+sPVeSMJCw9fc1pQpG7GA7/ODaq3xSGcCVihkJyBGxLqH+1MEnIgP1LBmTNDCGAyoXg6FgMtV5FpMdvzT560XAWNVPGGxVApe+4p294fZpugNmSBiY2lgcqW6Sgtl4w5gLV44F4dVTofBGQFIUYFJ4ExbvUDDCQb82fxgMkjsYA+Q2hbZ+pcEoeIVzRDPO+R3NSnMJOrQ83Sb6MF6XpfgwViytv3vKh0CIvmUJUrUi55dk+OC7bab8g1IEJvd63+OHbP1wVRu8ufDDVSLH6tVHU/ooTQVRaHwrH5b+M78EmwcMC1ICsCm+2eZ5y5xmY9v8815XoF9/9/v2tBkAfvld4Mv+iNcPrh9oJA2yjQCpP+z3rd+af4a1DKm6g1ZqtcXlvRNAnrvymhDex6wn9d4jNdjfk+9R47xWrw+c+6vzSpP1+KCdOJ5vyiltZuQ6Pb7nwuDTENiukZNBpv638osXP06E/216NkheLJAISDgU6idsxAtYp1h1BFWQMDAqQe34iJfaQCWd4t05cCJARSA4JVEwCrBB37128MkQRVipEwKycONVM1LYZgTYcUobKQNDDJ1WwUKM9zQFsgzKZKDWS1T98sND/pUt2EKnh1dDGn/f2Fm8H7zACJisxwhkC1ttT/66DTfjzn9HV/RNHEv0YVwQS+vvHu+D9O1gqSb02SGVocI2PX6rZlsri6Fl0P2+x2/kXC6pAATRsezJvJ+M8tLa4IbVMegs7uyRYsTOluftajP5B2WozT9/DLYZAKjI9ypiuYTCbo2189N5vW/jwceuTDNSRj+2jggpSuNqKIddaVCGl/MCbe3rb32t5r9HzbHRjgQdc95Tx/PBEewa9fDg/bi4HOe3uYIoAcBwjsFWI/3xx/KvVAudxSpN67+1K1BAQGU/4Ts+sP4xxfpn7gx+YaexStP6uKvUH9ffr2obh7y9DMoMksKrxBtxvEx69Ndztbq+JIWtMTBZ1nJ3IEiTYZtlMKcsPwOla4bxPpC6fU8Y70fGmne/2Coqr9m5PosNH2Q6TC8klYQba4yONvbmG5NHNEv5hUr6NZliBN44Z230YVwQS+vvuVRVHjof3kUO6/ybfvv5PLQvc1Fud9La1iDV8cd+DgBs/UTZtTTJxXCbu45fGVQH+1aRBmzhbcFA0AoJiDIv2/Bk4bzK0OXk3m7rUH8vdI/82PAGT/C8pQF9qbFRnsVPjK8zTI5XpXyBcHv3heGc8OW1dv+O9cdhDsSheXySoCOMz9do0wtdU+9mQux98w7VZ6/GrtYWEAom2+FzN9Eflh3ete7JneigX1/974UUTJb5ABSd9uSWHM9BYnAGZJbBlPkrc9swFoXB1oSN4i7X8KvRZxxONfbmOs6MRIVxQSytv+dBGJyvywestu2H5Yh9KxK6rrtMUb59n3jeofkzaCCPmHUrg1KqwwCMWo1z4yYkv12/Cnpb7nhsPALlC4QfL94/tvpr5tAm8v66uz//hI0gcFGAlIK4WHk/AVMmiL+ML6iPjiY7oOSVxqSuXsBmf+fwSuZnpkCFLc81R38FlCLAVWmFCrynFlDGB4I1tpRSgITaJ0M/OIzpDrC7B8Yae8Gw/tsTfRgXZEQtrb+R6VQPYknU8OA6NBS/MPDQa/rejH3QBYNfykmkR407osyZp5SCtMNO783+XheCynboDl2ItHl5AaT6DmJb+99SkgBFAQ4MM3b7pNZf7JBvTO1POqVy5RikMZDBADjCW7ZBEnB7GA0pmA3BrV9hk/4sAKR8O951ChgBeLv6TAhSCRADiVKQcEe+t2EE3hSQH71Qh9rtj6t1DrGr+uigtYM03hjPtUO9CsEWulQ1m91jq+FMhi2tr597sa/KylB+xdB27eMMJRG9AjFKekEsrb+RaQQjd4HaPPxq5K0bnGUnz8CuDn6pg1Yqn0bXET0dxOdkVFQGm/Rs2dXf/QYXVviGfK1G5TJZEgK/FkBeB5RU+Tcr9nLasdLNsJaxVQrWzbtcTCqDSixWacgwYrynFmaX4ZMt9HpiihcSkImrg0OkMjCmz8eRQGX0+Luep5ckBFSp/DMzGAmE2kAMvu0QiAAlBqq9lEFgPsBJHFaRcRaWEySVS4tSvmxfT0LwXFuIXYYtbpSwuyvn7FRj76K5a08jKowLMqKW1t/IFCo1rxER3lYJhcGumQhx5vJU7BxYkZ8UrAbKwJw8FAY+4jhSCuhOizHQ36NNyjrUF4Fh13dY8/mOoe/fIdkiddOGHgm/fJo7B1b7FELnCzZl2h9Y6KCxWOENPsoUTCZ60+kcEfTddR15Dn36GypsHZxzDl599wYaA3VU8/jg7Axb6ooY3yOVApz2qvHRS1oZoQ1gv2ytB66fVyY/zRWNxjEDqU/Wbg/GO1mCbhMVxgWxtP6eB4ML9C/nkMCbkkg4hz1Ydhmxb0Vx5fQNlV9c+7zVg5otbGU8BR5a7eXpWY1GtrBOlaloBNCbe3HMcSSkZTACvk6h/l6FCWMjsocUNoqQr38Ek4D6Lko9sTlRl5G1iYIxsv7MR9kLULr246JMlWTPUnDLiivEyJ2EMhJIkuBtrYLFfFpSgtoo5CcGxTAzBgs5nwX51E4qAQoHu36FLvMwXmLIksqg0J3LtomsI7hHPBCchWUBNZAG7C65U2MRiArjooyopfX3XPzD2TvUI2RUJBJKCAA59MR9qwjYvqjlc6hSj3Sd9/RjAi/t0JcZ/WqqXIrSGAAAdyRWHnscdYaT4OUi2P3Y6MwXWeVpvGi6G28EeBfRgSXDO0AqBdgUawcADnZdgErlaz+/Cpid8cEYDaPi4LepNcTOQGUZ8GMKy6fOzw7aev86KYDcOThrYYu+lFcC2HWX9bslJBSkJCRgOGuxSq8wGkhB0eG96kSYMmn32HHKeLcOyoizDPRh9r+jLzis/2mN/NSX6Ds2FCtilPSCWFp/z6VOb6ICpe3KMlhAeMl0v+/maF+fGHhiMMfUtifqoKSWP28jEXm7zZU/XSNZebjNJZd6uDm7zw94zvUZysk4tb8z0hwbR+UHqazQI3wev0txXOnljiVPYWCSQ+P562uvkA+9rxymw3NYr3MACdRPP6G321XpxkwB1oLF5vA6OY1V+opvrym0tsgdD+RHdbDa+zGed2cTkBCQgb/TXnHKNEVa+35cpYgyed/MUel4BIxKppcbHEj0PwtV2i+gEeE9khsHsJxCVBgXZEQtrb9nwxbaCmyVTyUhmyXcqk0q35tT9rXriy2VsLWAyfCp0CgNWBJs8z4ikVRjP+zzBlrrfAWZipbfzTwmZBW0QiNzL3ZRlQrs/n5yf+eiMTaUyaCmjKulQQpbhdp3rjnFnhzp7NZYuz9jIwjqpx2EK1NjVWONBMymzGHYVF+t9X55WQFnLd5df/LtEHxmwI0fmw4cqjKDUz0dblHVhIMVqo4hvBkJt05PeBY4aK3hivNzRHZSp75i2I9Gh0ID8gENxDbRh3FBLK2/c8A2xTcnYDYKkqhODMvs6knjlH3tlBJaJ+GgU41io7zx5c/cWQvW76Kx0vs0M3XycWd9zd3EHKeBaRuNL0dejpOpzpvb8ybX3Fooobon0VP6OxPnjKt5zr+GFfsl6ctXejkFAbOhXmWpbTRWNOO1QsEt/1P/iC+TwSQOLseh90Yi/f0o0+Q0v2KbYuUEzGbjyxOyAxcM1/gxVz6LbaiRKJJIIiEAR/7P1feErjB5LpXM0B1jq7Ga7PQ7HqLxJuk8mjXjXTedCggk4H2wxwzZqarfEK2BVFfMYgf31xH1nx+cl9/8Nv36C/8N//j78gzGpSluS+vvEqlSxbC9ckqJ2SL8vB+ahIN+nbgEFXkqpFLg1kvDQeA+CbwpVSan/kKVxgVujVfv7Hj6UCQadgkgghQKQiTT83i6UPm9Pb4O+am/AZ83UVRtSnzlo9OfCaWfHiz0erxaR+USfq4Ddes7dyrrgPe1lQhSbaBEY9XkGn64RwYg1W4NRbO9Y8oAPkBEdIioMC6IpfU3ckVCD8ITqMuDXcP/KHLX5NZ2fvfy4pNxv2uH9zK9jXcp3i8NnjUPj5GvmJGzRm4bgTUjc3cO1oI/C0ZuGTm8YWWqRNdnvUAy2PE0/8akSvB9xmmDTfFlEPPSuCR2M/iFDhAy8OjXpf+ig/0ojr9/UKOwj6gwLsiIWlp/l8jNFMZZqCIOGXZKrrrIYuibg38pfUYC7vj+kaBS4Tz/J0ClWBp/TCfTNejKPK1flaI9dcBNrYZ1B8Qo6QWxtP5GHowq4vCsYJfIIzFH8YvqOOw4uHz9iHT5KJ5wpGgsXogqddlBsMuTExXGBRlRS+tvJBK5X05dsWsLM6HjPOFqYORWDA2m5oCcEq7/gIP05Vf//C9f3ofxz7duSyQSiUQWxClzZpdy2JXF5EHm4si9MtZgDNE3+B5wgP6w9DyMS2Jp/Y1EIvdLe549Zwk5NOdWKXUikbMYY/Sd8v0DDtCoMEYikUjk6oxVCof2e7A5N/KIdC01d6mPTzpIo8K4IJbW30gk8hj0zbV92z7JPBy5B6r6kSG6BlqlEra/f9KBGRXGSCQSiVydGKwSuSsuMfge0E+xj6gwLoil9TcSidwv1RzapRg+clqcyIMTB1+QqDBGIpFI5K54fKWRQDSy3vEJx5YCyC9cb3xxhIzEcwbf4w/iI6LCuCCW1t9IJPKY3J3SSArb3Q7bzECOqP1HaoNttsPWqFGlAqeRQJgMn7sMbwcHJ7yZDEaJC5yzcRblz23UJc9yJ9zF4LsfYqWXBbG0/kYi14KUwXa3C0zikVO5J6ORRGmEOTuiChFB+iLD4NydXrGFFLa7DFvTMgCretXOtspnMt71Gq4ybo0aZdz2IZXpHs8h+ZR8KcKH5FTfiCpYpv0XOtaDExXGBbG0/taUD9DPnYGsPxQwV5rgSRkY0/PgvUOmttmrDruOv2yWyet+IcjKoABBiCft6A1+R2cbjTO1mYgAMNyYZWChoAiA09BnLBt7I5XAeXFodCbeYMzzUEk6Rq59HXkSCiY7476QglICKtvBNMY0cwEAKIrg6UEiw2eWwQgap3Te+PncyRxvLE9kLAJRYbx1E67K0vp7LxAJSCGQJLduyXhOb7OvXdv8A6ievIy4QGNvDiN3lZI00qiIjOb2SiPBlw0eV+NcSgHAQetzagwLKEUAW9jWeKpqGAcNthK23mg8/QVGwGQKBIZNX0cZvqQM3oiR2xTf1g5kMmx3l18ivyhdg6+pIi4oa3xUGBfE0vobuT65TrFKD/++vabQ5eQlTVNFeB7YaqxeX/HtNW0tE0bm4KZGIwkIAtiNWF4WBkYwbKqRHxzCHC8t951SKUgAubVH5/RqZzEYUMM2hXYO1lYbjlT8QHjLDCQYNh03nkll2CoBVSmabLFKNXIQpDLYZpfw5bwgfQm5u4JjunIyPhFRYVwQS+tvDXPPg374wRs5F686eMGlVE4ij8eNf0ehNDyDnNDmSl2v/0qFjJE0Pq/8BJtGIOFNCbBdHxlZ7DRWufSK25DiR6qhLh59Waqdff3akx/UPEMAACAASURBVOvScK38IUcs8UqTQZGD7jAWvcK5b89btsNWEcCtfdhBv+7Pr7pWFx7h+dylIi6MXyxdYVySEbW0/s4FCeOXVQ4etAx2Ftq6oweaf9s+fipLsztW19hilR6rCOWJ8aYU1IH/kIOzFu9dS0Sk/Ns8W6xSB1IbKLVXFthZWHvsuD9bm3tgZkBQvaR2bpsP2k8CaqMg6fBa2bVFHppxhMGnEYDT+NazdCjNDkYAuX7FwWbV/se9HFRlqmud61foQsA0282M3K6HlwCptR9GjI2Bfe1aj1pyPQ/CW5Z5H78TxtE15mjmApQkAApwAciEADg41/AlTCqPVf8d4COjFWy5FBzAaaxshq3JIHv6TkJAAuCCoIxpfZt4X2AOfTfQr1IhTZQC6fC5pclgEovVa/99YWfBSfm7BSPXXWPWL81Lk/Quod8NX1+3j7C6Y35RKYz/6/O/bt2Wq7M042lp/T3i4E22QOFXSXupDIb2/kTkl5lE4y26ceymjUL1xBzIy9bxED004Mr9iEAkQEZA1D5KfW3P/Fs9Mxg+epGE8grHBdo8B9PaXLa151qZTECFrpXLkUNACgkJFzwuICAE4I2F42+5dWFocniogCmX/pi5bDNBmgzUc38Hx4bTWHUYwf3XagfRNoxDnPA72p9/g/r0pGCUGxzHszCpzdzIcSiQEMC29eKRqDLwxBtW/roW0EOGll1DUwYjFLYZgkYj2xQrR0fjyzfHQApCbvXwfZoEQZoNBK/xTfffD7ZrOLOBMeSVUz2wVO80VikNK4VnjKtOumpAn3KcSx37gYgK44KMqKX1d0/58AnRtxxSL6M46LStvviJ3QgBYwTyxtObrcbK7rfcq1TpuIc8qTLH2fGbOwkFYxRIbfDmepQsUl7tOJjAKnXnAm0e063SoKqiLM9tc7VP97UyMEZ0XCtvBErhjcJgwKmQXl11+bFB6TRWB/s0lLORkJKATfHNHrZ529nmZn+rexNQaoWBEQHDr3GtrF4fKJHVuJImQ9GpkJ74O7opZ7ZZSO/L1xN4QsLURrjKMijsU8t4o88rlQDD5QzkDiyEf+kEgm0IGouoAmr6A16mQ5BKADbFgK24/02Vy89jFemu/nguNK4qI+9cw66vhuXCjMaoMC6IpfV3D+M9fcX74GctyvQVHFwO9X55yP3S1ZyQIP+gdMfLPH4ZXGCrfPTje+eDmGHXbfWC8b62EJkC9Sprc0OQalMqtU0n/DbT21zlx+PAMi47DW2zzmuV5w5GCEgpoAMSop+cu9KXnA8V+YGxWLfZ+TQmoTbv+5seLwGyxUoTPk24T81r1V62HjeuTvwdHTRxDSv2S9L64urieW2WUgDc/v2XeRbLz5nLe5aU7hOuGDCQHOB2MAi8iPRSKt4jo7V9Im8FWD0QuMLIu+6DMNgqwFlGohQk+bQ9uvDHD4rqYoOtKGDXQ+fdn//ccRWkubx8imHXVhXbeRoXuHQdFcYFGVFL6+9cHPncVTCH/ePOpK32HZ+2gH9Yd7QL6J5U2MGxAlEC6pI3zkCaDNT2j2wsb9dO+CFOaPNetQx3pPda9S5L9y9Hz0GX0loZsqE2D/UXRQ7rgIRxpF4N5RJk58BqYFydzQyGwNXwY4Bte8k1KZep95/n+nWS8Td1e9+cUvGGd7UYpjToRAaMjHYOHoUEyCR+GdwCQALqSbdFBB9Z3vtCewPOUQNj0AuAqDDeuglXZWn9PZvaoDDYGgtrnc8teOt2zQL5HIuzdyakOjDYucHAlTHHPmwz9U5cByQEQnvi71mW7luOnol+FSrEiP6yw3vQh+Dca7VAOpajq7HRflkk6vA7PNzq5DrQ1XK0Xad4h4JR3JPr0btI0ITUOIe7HwbcTXFNIVJQ4k7zkZ5iNC7QMOwiKowLMqKW1t/zcdCpBWWqDLxQ9TfMXEbvXmZiJeGrLMjJgRRDXFbhOYomnoXLtblrWfrSy9G3g6CyHdTwhosnvBy9T8ztWj6scpNBwSHv81BJBCQBZnKEeKl41+UALSxnMMIFf29VcFEoxU8f1XOHCgdr1/iWq45sAA/GlOXp5rbRWDwgKowLYmn9nQX2QRgkBKSUSJLEO6sTgchAqlCU9HkEI1kPNhibgDcySHBZ+vLL0TdlSCV/hPQnF6drOboy3LqUZ4btSFnjdzeQRgQTcvfhE3kzrG0GqlkgM5Cu9fypgptG+4gSpFIQxChy/5JcU6rSUmWg0W8ZF/B1OYWQD+IUozFyRFQYF2RELa2/c8LO4b1pPZDA28Z0R++ezD6x9VEUbL1JVw7AyHQCy9JXWI6+HeWS5h3M53cNAYVzILGBgYV1Pt9qyHC7fFu8Acj2ONJfW4ltZoC6skxV0s8bfuNuMyO3/S+9+8T7Y5qbYXsPb7SVgdgVrLKwCOc5iJVeFsTS+ntR2OG9iuhNZlT8KvUwUEM20obRlaHniKJbVauWnatl6Ptdjh7RXxJ4MyZQv3fCtYqUvqAaqzSFZYLa7PC5y0rlbmyU8jxI5ZPaB9VCp2GLMp8nNUv6zbvq8bAMBassMNL5HKLCuCAjamn9PRdSBoqAoistRbm0d+2XaRodvfD87KvHEBAwsKtr1Zn7EWgtS+Oul6OH+otEQgkBIIfu2LczenXyUuYpnFfp5Raws9DOwqoMW4Uy3yXBjqmqcy51beru65TrFJRlZeT0iUEuA5AyMGOLwCe3WJJu5kEd4SYUlcaTiArjglhaf8/H1471Jefa33m/Hwn0qlfAPhq2Uq56qfzLGgmaD84qTPDzuZnU5htSlTsjtTmq0bu/VkMRm5VxKCCqkoR3uhy972+gJjEpbE23Otq8Vm9H+/qlTCkELlm897jSyz2sXY6gTM7NNsW31IJJQJlwOc3ZKO9nrgcMQErQfIVMRFtdPh+2GlqP+7vJyggJ1EN67G83Ko2TiQrjgoyopfX3XPZJhhVMpmBapQHLrQb9mer8dsLgc9cKYilsq4xbVXtVgFSGT7U33qo8etY6kLqsITetzTeE9wmnpcnKMns4CAwaEylaR0srVf+/G8Kb2UC0hF4/JAhqk+Hg7hQOui8QYgpj+us6ysY19lUmg5qy75IpDTeuyzUyVin7ZWAhQPYCqbZKA54H0tlUlVfgLPTaAWIDowyk8pWPrHuWNGAD1G5BE/1Lo9I4iRglvSCW1t/zYbynKVgpqEYpr+q70bkF2foJZuP9jA4y5YRWSp3GSu/T6tTJmp3150vM5dOiTG3zDWGb4psTMBt10FZmB7tul3TsoFqW9v8ZXo5OOqpcAIEo9nktsL7+uoFl0nP2naft1670ciaksM1Eabg12splyi3VMshIQJkefS8Z4U5C/v4U6Wvniw6RgNoYSDhYne7vG6fInfC/W5NBwj83XO7OvLc94/1oy+tTr4Sc4l8ajcbRvPzmt+nXX/hv+Mffl2cwLk1xW1p/I5FI5FS8SwNGvnSUPnQY8MssMxx05islBaMA1/Ei6vMk+ihou7a9laaqbQ/caZjBRQGXj3w5KNvLVmOsbU9SwZemvlY0/t5/ca8Cn0CoZnTkgKgwLoil9TcSiUSmQ5BGQXAOnU5LzM/F8NbsLFxIpSeBt8RB63YFGe8qIeANvb4AmPZ5tLPQZdUWIQhExXjVvXksdhibNIBIQSXF9ZbCa//Fvjr1Iwil4YkcEBXGBRlRS+tvJBKJTIYIdBclQAkk4IPqbtQYIgHCddMITabKS+s0vkUH3Ivy8qt//pcvrzD++dZtiUQikUgkEhkNlemOrrcEvlx+WHqU9JJYWn8jkUgk8tywTfHtNRqL1yAqjJFIJBKJRCKRXqLCuCCW1t9IJBKJRCLzEBXGSCQSiUQikUgvUWFcEEvrbyQSiUQikXmICmMkEolEIpFIpJeoMC6IpfU3EolEIpHIPESFMRKJRCIXhkB0qQTUBCmA/MJ1sMOnvpck35HI5YkK44JYWn8jkciFIIXtbodtZg5rFXduvsE222FrFEZsPpEEwmT43GV4Ozg44c1kMEpc4JwVAmZ36XNEIvfBD1Ut6SWytDJ5S+tv5DEhZbDd7QIGQOReIFEaSM6OKBtHkL7YLzifVpv58DAK212GrWkZZ0R1Ww6TNzPe9RquMm6NGmXcToItVrqAVAbb7BLGcCRyP0SFcUEsrb815YTxuTOQ9YcC5kpGCSkDY8xDGT8nt5kETJbhc7er/7aZwZsYeyCCrIwREMTo/W5wnW88rk5ipjYTEQCGG7MMLBQUAXAa+oxlY2+kEjgvDo3OxBuMeR6qI8zIdYqVZZBQMNkF7ouzsAyAxDi1VQyokY84riKL4BeVwvi/Pv/r1m25OktT3JbW33uBSHgfqxx4FGenU9rsa7pWs1npr0YEIgEyAsJprHRoUm/CyJ2DIAEaa5Cc0ebIKRAoAcBuhLoISCkAOOjBe9+HgFIEsIVtjQnyjUFRdO/NNsUKfnwKQXgfcqasVMuR5NYhoRw5CNSzI6kMRgCAg071qOsXidwLv1i6wrgkI2pp/Y1cEVIwpbGY6/RQSSLll+uEgRGvGLIb2Gqs7AXbGjkPEhAEsB2xvCwMjGDYVCM/OISBkTm0HrdETUpBAsitPdreq51uMKCGbQpNBl4OBOD1yvD5EwUlAYDhBq06gjICxIzB95tcQ1cXIhEgPmOJPhK5MlFhXBBL629NGcUYfvEvLhS5uSyqZTa26fGyI1usNOHTCEgpoN05StMd8Yjj6oQ2EwmvKFZIf69zJJCi+oKgjPLLzrURSHhTAmzTlm8hwE5jBYPPnUKu1/1L1aQa6uLRl6XaOS5SOde6Pqb3OWTY9Lh9fvl8xAFLBAAqvDp+No84riKLICqMCzKiltbfuSBhfBTkwROcwc5C22Nl43Bpdo80u4ZPUnUYi1V6rJqUJ8abUlANPz5mB2ct3rsm2GoiZItV6kBqA6X2y2vsLKw9DlQ4t81UXhzums0KBkOAEgKhpaoIg0+/Ttc+UXgyn6PN1Tn7rn95LCOAXA8ro6dBeMsy7+M30JZbwVyAkgRAAS4AmXhFz7mGL2FSeZ367wAfGa1gsbIdPXIaK5thazLInr6TEJAAuCAoY1rfJt5vkEPfDfTL+XGYKAXS93fdI5F7IyqMC2Jp/T3iQIUoUHS/xtdUBkN7fyICCYOtcNCvh8ttbRWAqOXXd7hpkEF/QJt2T8R12zMoUbXb+1aRUDCCgAu0uRe2WL12rzO3DU3qcwRrNOTkNrscOQQkCUhqR9dWB1T++sGhVzg6YVztT7FBfZtJwSg3eF9nYVKbuZHjUCAhgK1F3rzIiSoDT7zh5cdvAf3ab4ixXUNTBiMUthmCRiPbFCtH4ZcRYSAFIbfTFMFJkIJRgBuxBN85bpPqGD0ve23OGFeRyCWICuOCjKil9XdP+bAN0beU1TAYjh3UCdJkMELAGIG8MVu1ffD2KlU6blKr/QH5aLmOhIIxCqQ2eHPd6htIeXXnYMKu1KwLtPkcnMbq4BwN1a2H89rsYC1DKoJSAu+BHfapY/KWcV1x4ri6KWe2WUhIcG/gCQlTv+yoLINqBIJ4o88rlbV/YO7AQviXMITjlbqUax9Q0x/wcjbM3hczAXTQmC8V/IQOl+6bW8jEG5OUI3dD1/kRx1VkCUSFcUEsrb97GO/pK94HP2tRpuvgwBIuwMhtCuR+qW5OSJCfGNyxb5dfBhcjoj0Zdt1WaxjvawuRKZCQkHAdhtAyYOfAijquRZU7kGGPHeeqI5w2rppb2zWs2C9Jhw2SOTmvzVL6ZfyjlycfBYOcAWYN7XYwSekC4YpuVwUAgAPcDgZdhnkXAkJgdLS2T+StAKu7X7T66PFRHPJhJFJQguHcmCCX88dVJHIJosK4ICNqaf2di0o9OYL5cFluJoaihJkL+FJrHe0CuidRdnCsQJSAuuScpcAW1ikY4Q2PgzR+ZSTweGPk5EY8kCHgr9NxdHRSLlPvP8/16yTjb+r2vjmy9FUVMFnIB7ZNqXSKDOjxjY1EImFipZcFsbT+nk21FClMWSViWm62+4aQdCyfLYkq2bNUh1U66qjvUYrQQiiXo49yY5aG22l+qPsqMFOplqPtOsVq7cCFxSpNO/7WZShOfyBVJBLpJiqMCzKiltbf83HQqQVlqgwWUfU3zFxGHF/GoCChoJSAHDXpTuGRFK0rEAx+KZNET0wc/uyEl6P3ibldyw9VbjIoOOR9HhuJr45iJkeIl8vRdTlAC8sZjHBB/9UquIjtOhqLkciJRB/GBbG0/s5CGd1LQkBKiSTxzuv+z0CqUJT0eQQjpA82eCal89bsg19qn9BqqfOoNvGS6VqOrgy3Lv9Dhu1LWSMMpBHBhNx9+ETeh/6lbC2QGUjX+j1WQWRX8RGNRJ6Xq9SSfnk5/rsHllZbeWn9nRN2Du9aQ6cpVq+v+JbqsmCEjziej0rd8tG+314Dy2sXD1teFtWyc1VNxCtmXbWJFwoBhXOA2BzkJA0ZbpdvizcAj9VCB20BlbVqMGcKVK4WRHMxEjmdi/swdhmH92A0Lk1xW1p/Lwo7vFdRyMmMil+lHgZq5j40pLDd7fCZqftTR+sKIgKiDIAZzL24NNi/MK3SFJYJarPD5y4rlbtLBwYdIpVPTB9UC52GLQRMZiCJ8JYZb9Cm864CRCJL5KIKY9Mo/Pra/4W+vwVLU9yW1t9zIWVgjMFbl4Vzo5xo1JXs7YZUAQ/diYtLQ7i4zzxydfCL8eoUW3slA4Pwlu3wea/GdAB2Fjp9xcqWeaRJYZsZvJ0YvDKJqjb1UcqoPblOYSFgsgyKlhrk0hhXO3Nc+SgSOYGLKYxtY/EeWZritrT+nk8CKQTURvnyYwcQZLmEOWQEVcZUtdTZS2WE1sm7W2cVJvj53ExqM5rLupmvJNOEFLbm8su8U9t8gLPYC1bXC3Y5rvTyCCYjfOYARWCb4ltqwSSgTLhU42yU4yjXAwYgJWi+UiVVAvarUT4bhKj/1DWM6YMmlGmhgB7/0khkGhePkg4Zi19ft1cXgeVFDS+tv+eyT6qsYDIF0yoNWG416L+1TxBt8LlrBbEUtuWT6KC1gzQCpDJ8qrZ6589Hak6/yXPbjDKgwCcUlyaDbJYzrI8ZKt9GeDMbiJZo6i8vQW0yHPS0cNAdQRST23y4N3LHUHT9JdaHozTcuC5PyVil7JeBhQDZC6jI5H0ReaCKDwnjfYqdhV5XPpcGUvmqSXawykrooFNdThi55eNa8NccV7WbzJX9SyNPzV1ESVfG47WVyKUZT0vr7/kw3tMUrBRUo3RZ9R07BxusAtM+jPUT6sb7VR2s2oZSjjiNld6n1amMU5/GxyJPDFRgt1mZ2mb4mr/fnIDZqIN9mF1/Dd2kdfwmR5N1z+R3QpsPT1UGG02M2D2H61d6ORNS2GaiNNwabeUyBZVqGWQkoEyPuTUmGSj5MVWkr53KIpGA2hhIOFid7scap8id8GPCZN7dwFm43I2v6Qz4JP29+YFC+zi8awc2OyhoaH29nJ61yh5ffiIz8vKb36Zff+G/4R9/n9dg7DMCh9TFaxmOS1PcltbfSGQ8AmbnDY650yQ9C94dArDrdl314Na+HjgG8isKg08jkOvXsHJICkYBruPFzOcr9VHQdm17Ky9V2x64lzCDiwIu73mhGaQcO5NzSV6KfS32vQociZzPxRXGl5fpgS7tfS7F0oynpfU3EhlLlVIn+nuFIEijIDiHTqepZFyMqJzsLFxIvCOBt8RB63YFGQGpFAS8oWdHGmnsLLSz0OVSsRAEomKkAfxA1P6LPsdoJDIXF1MYgelKYnv7SxuNS1PcltbfSGQclSKz1IjaAYhAN8oI0GoISMAHmd2+MQ18u/he0mCVqi2cxreYszUyIy+/+ud/+fIK459PO8CA/2GX0Thm+3uNro5EIk8EKWwzn9vvPpYUI5HT8ZWiEF9+IrNzlsI4VREcawxeKwhmaYrb0vobiUQikUhkHmZTGCvGGIJjt4sKYyQSiUQikcjtmb3Sy7n5Fa+Zn3FplU+W1t9IJBKJRCLzMLvCWHGqj2L0YYxEIpFIJBK5Ly5WS3ps+pzmv69tLC5NcVtafyORSCQSiczDrApjqOTfPSfujkQikUgkEokMc7bC2DbuunIrVgriUFLuaxqLS1Pcnra/zcHVlqojkUgkEomczdkKIxCOap7q2xiJnESfcRgHWyQSmQ0C0b0lDY9ErsfFfBgfYa5+WsWtg6frb9sfovoLfR+JRBYOgWh4q06EwjbbYWta9ahDZ1IZPrMMRpxzwhHn2GUw6nLniESadNaSvnaZvluwtCTWT9XfvgipkDNtZBGQMjBKgBDL/D0nAmanAL2GDdWf7oFUBiMYuV5Dn1DGjyjx/2A3UHuaIAUBBG+gzlCdTyoDcjo8nkOSJxEIUQ2NzMuRwtjlAjbGNawd9Ty0za15OsVtgKfs75g3GVLY7nb43BnI+kMBs9vhc5fh7dFe0IXB526HbUBZ8KrDruMvG6WOPC4EKQSo/Le4oLpzUx5xPM/aZoJUCjJJQJP+/L5ECU65REQEOI2VHbDCSEAQALbQQ9uOOrGCUgIq2x0olszeYi5ChjMDJPYq56j+PuK4ilyVA4VxbCqcIUEnJP60v78HxfKpFLcRLK2/NS/AHQy3K3OsLhARSBCMEBA6hZ5B+bgvGLlzEOQVRneCihR5FPy9nnKHpQRADDdxP4+ASBx0OvyjkUp5hXs9R11yAZOpSYo5KQPpNN5titwpbLMMWzBya2HtKX2PRDydPoxNl7Apxl3XSuE9GIhtnlJx62Ex/e14e/lqf/fE5DrFKj38+/aalooHQZqmivA8sNVYvb7i22tcjo6ciTD4zAzehPBGYMGAEJDl35spfQibSjYpKAGwXXeMP8JbtsPWiBGqH+EtM5CTjMUMWyWgslIRZItVqpGDIJXBNlMnqauRCNBQGP/v/7X3YQwZd00VcYxC2HWMe2JpittT9rc9GEMGIRfwZlJzn+o/xYL8fBi5TQHawQgBpQj5HEtmkevCfDieD7jT8fyIbQYAEkhgkbt1QJEn+LVf1H6KlbqYk4IxoQMm3iWEFJQoen0ppcmgyEGnOugzWftUlm15yzIoAsAOet3Yhx30qwZ2BpIUlLDh1YVHvUeRq/GLS0RJ35th2MXvfv9vz2lEdfBU/W2/wfRthy8cbTFFaSQBs1GQ1PQfcrDr8IMcqN70Cbl+hS5a+zMjt8OO9yTKAI56Nwu7tsjHtzwIMwOCygmn0QZSXoFgi1XqQGoDpfb+T+wsrLW9Dv9EAip4rSzy0IwjDD6NAJzGt541cml2MAL+errA/se9HFRl5rhHXWPDWYv3E/ftG1fz0TQwLFbpHMunz0o4eIQAgB1s9dJVqot5n7sHKZAgkLODxqJJLFav/feFnQUn5e8WfQE9Dlo7SJOEfR4jkREEFcYu+lTG6rtHMRaBJ1XcenjI/oaSfFYMRUO39nkp36A9BYru1+mayqjwlBMHEYgETLaDaBswRwiYclmJmct9CdJkIJt2OtBL01zqqs6rYDICdH+b50CaDEqgVB18OhISyrfpVQeN1v5rJaBC/XU5cghIISHhOoxhASEAwMEFrjW3ZnOanDvltHvU118yAsJprDoGx/njCrUi5Bk3nvfn36A+PSkY5YaDOebgjDYfUI6pafuccJ4JB3/bKMCO8w2uAlZCx5FmA8FrfNP994PtGs5sYAyBy7HWu4fTWKU0rBTOdY8iT8esCuMjGYvAkyluI3jo/na9jXQtRx9sWz70qs+b2x08HFuQKnOcMaxeHyhGJBSMUZAmQ9GjZJGSgE3xzTb3Nd6HSW3w5gL7ClMai8eKgVcdE5xDZVB1TlqkoNBWNypFSsAYgbw9KzauVbDNnf31RqAU3ijMQ5OtkN7f0uXHBqXTWB3s01DORnLSPar7WylKAaVWGBgRMPzOHleN8dymbzzflJnbzA56oipaqdSXgNQGwnW/XIw8CqQS3ugcFKfL3xQ76DQdrUi3X64OecRxFbkmP1QKY5NHSIkzBw9rPJ3Iw/f35AHIeE9f8e1gggl9dgiVKVrYro+WF9nZOoCkL30LFfnRJMJOl0ZEeF8p/azGgSVRdhq2OPV1nyBVVk6ajaW0I0IRnoz36rPKgGseuXGtQm3uu1Z5aSVW/W5TfZ4HrcnzOeUe7fubHi8Bsq2VxVCfzh9Xp43nwyauUXd5rvQv/Wc8u813izBQWGNlGSQG0lYlfSlufCRz0PgTBtvM4E0omGyHrUnAOsVqbcsVgMCfynzQzujHxRPfo8gs1FHSXTWg+3h0A3IxUcMlT9HfcwfdhP29EtednoXL9ByHzuetbTpUvMr46d+347wjvM+lyXw6jcbfvioEI9fhZWV/go7ExOzgL0VyVDFjr1p2tbkotwv0t1IOA4bo0HL0HJxyj4b6iyKHdf46tufrOcbV+ZSGwGs0Bs6m2Bvc7Bhic5kKL0QCqvT31drCoT/vpA+uEc+bjzRydX7x/xb7PIx9+RSfkYdX3CbyNP3tW56eEsrfC2H0fJ0QCGH/oTHG3dTzegNnaBIIlUFjsHODgSvDEJKDeJlzr1XPsnTfcvRMXOIegR3eg85s84yryPUgZWACOajq+3gwfhy0lfgc8H8df3KBN6WgRNP9YeSupKBEzEcamY8jH8YxcQTPYkg+tE/fCTx8f6cahM1tTq51SVDZDmpSQ2/PUTTxLHhV6n3uw8KreUYISCmgG1LipZejb8djjqt7Ynpw02mw1cHfkjQ7mJDx7ywsC6gu/9cRkPDVXahwsHaNb7nqyAYQiVyPg0ov1RwaMgpDEdGPzkMbTyfwkP1tD7Yho3GMTD5VeRxy+I5pKs4nGC19+eXomxLH1RkQKJlmiV10hf8ARu64N/AqrGr7koeCGEXug3pqyrZLlYFGv2WUeSIjkZnojJIeO6c+WiqdJg+vuE3kafrbZTQ2U/B0vdFMHqwMu45V9NscfAAAG25JREFUQy5PYFn6CsvRYzkeTl/AcXbPCcRxdR6nlga8VHsOYeeQwx3d336/VEZue3yLAeQj0/YAZeqm6L4YmZEf/p+/HkdJL4WnMJ4m8FT9bafTCUniob/RMDpTpV2U4fNeNhjiFCZcq6JbVWtHS9/HcnRozPBw8mMSeDNl4vXWvrcZV5GLQB1Rz1eJPI9ErsvJeRifYVn6aRS3kTxdf4d8J86kqogiBOE9WOqhzKd3ocmBiICAw/q1fLemsK8e09XmpNyux1o6WJbGzZejX172Y6n9fjLUXyQSSggA+VGe9VuPq/IksdLLzRjxwtFBVwBOkOQWS9LNPKi+JOGtVwci83EQJX3BufcueSrjaQR31d9TBtuV/R/YObAin7yZWznzSMBkChJAns9beqUKACG1geFWEmyVQSX3V3qhea2O2ixMnc6nP2KzsSyt2PfwRsvRQ4F//HPV3wyGA4m7Tbc6eqtx1eRmlV4WTpVS6VS6AnCC51JZf07IS0ACdRafO3AlicxLr8I4Zn5+ZKPy6RS3Ae6iv0NZ4acMqNCx5jQq2UJbga0iKJNBNUu4VZu48Q/w0TgN7XwuN2mysmRddV6GtcX9qYyNa3Xc5mqT9aDPXh0trVT9/24Ib2YD0Vqh95eGoDYZDuJKCwetpyppHeOVP7C2Apn6ZXd/u8bGrcbVk3F3v4FBqpRKxXB5vkelTkzOsDYO4GcjGCXdDjLtmn8f2VgE7kxxuwI37+/YbPBDkc/tY7UH7oxGI9sU35yA2ShI2uc2ZHZw1h5V6piLXKdgUfrAledldtBrjTwxd5mOpe9a2bUel/uxWpb2/xlejk5C+SZLjvzL5p3A+OPHsr/fJ4+NW42r/fnXsGK/JP14/nbXi5IezMMY2kcoKAIcM1AU/iUlUeX1PqfMXs94P9ry+tSVjbqS/0cempff/Db9+gv/Df/4+38dfrGA5em7UNyuyM3721nrGcMDbmzU8ylKZSTSYspQbROH3iURMDsDeYLfpa8lzbA9td8PT2Xw/7d3Py2uZOcdx399mU123oSsJiWuTMarmbsYZllXdug2BLKZizObUUdj3w7tF9DeWA2C7tX0C3BDtz1yy5sE7mwCAUvgqMsvYJhZxRDdqDAETLzIwhtDoLMoVXepVHXqj0r1R/X9QBNHrT+l22eqnnrOeZ7z9dVhbE9T7/1M6/S6q73B1wufcvVIXR3L4vpMaWP77tGpvK2py6rGf1q/uCiiaTlqZy3DGLQPRS1J2hQsShV/X9MV2H8s64CLex+gQk1uNdYIi4Wm13l2wFloMcuyy9FCi9lUcTOri+mZPj4zHcdCi9mZPn7hB7lepn2b4G2xmClt04Bu91Snz9+WV/byuH7RtE89miw2wyglX+ObrvKMW8kq/b5pBtM2GUigYGnuX0zDlCGKonS7h+qq5tO8qyyoZmf6gAW4e+ng/Q8/evAyjF9t/pKTH4qSdjClCRoZjChI0pBKqpY2PZ9hijbpnr7Rl6dlToGjbM/iqqTbcOL77Ic/qvoQStX475u5+TaQjmmJbNSwS1MIuO9LeoCgxfUrffCCYHGfHbz/4UcP3/n2U4Zxx72Q0WZJdyEMPJQsy5ArIkkOAE21kWFs0zW78Rm3jGr1fdO22AFKtO2QI1gEsK8eM4x/+O//WvtFG052f/if/9Vf/eW3qj6M0pTyfaOuuNvM07VhIKIyabs1RT2fNYzwTWe/0dHh96o+DGCnnr3XfVf/8Z+/X1ur05YTXa0ybiXY6fc9OEjexUXa762D0GhZ72vCGxwQLALYZ8/8Poxt1KaWOlKJ3zfqriNNH0b/ca62KImpmCUpWe4/p03LeAC0V2yVdBuQYSxIXDBounKmTWmzjhEliwsa/eAwaVgDmfgDK/wD1AwZxhbZ+fdl5xXsiXDQGJVFjPppl44sq+pjWLE6qsuhZGIKDAkaUTPPvvNtMoxt0ajv276rLyqWZmp5v4bllgGfPdDN7Vw35wPZCe9jHY81vR1raHe2+ECTnoazsYbHveYEjuGZmXbedaBBHveSDldJt8EXv/h5q6qkK/m+4Tm9IE6OtWYdjzTs92RpqcnrgSZu1UeUXpr1h/uhp+FsIF2MMv99rOOxhvZSzsVIl84y8ydbnVXw587lGD+7I9vuSJZkdSQ5mT8qmTvWyUVH0/ORbHusk9dj1Xq4mtZ0RzVDBmrg2d88J8PYFjv/vllPcknPL+qO2xroZjbXdDaS/fhgT8PZXNPZWP3GpCRW7JGms7lujg3ZGqun4e1Y09n88efmdqR+6gxPR7btZ2s6sl+mzwxZxyMNz0fl/bsG/r4vH6ePe/rp9N/16+kX+nR1HNu00DE9lkuhY7Ij+3gg2+rIyvTjvdbq5JvOtayO5Ix0cpcQbFo9LwPpjnWZ9NxtOGMvaPY/L4FlJ2QjyzhvJJ3fCBxRI2QYyTBuz78jTtsyJ5x13M/UT2Ws47Fu+n6At5TrylvjZfXUP+/JdkY6uZgnvMtSjjOXvcowOvfpL/SW1ZNtS869VG6aJ3kcpR1uUQkg/7F6Dlnv75Xln9t+KclayrnP9jpPT7Y11+XrpHEk2ccDL0t9kSPrl3FtonM3l9WZy0mYbveyq5I01+XrUUKGtGL0a0JNvONXSX/rL6o+lPJ99sMf6d/+9U3Vh1Garb+vf+LKsrjL9Nx6X4GbyRpouAoWnYvB+lSjNdDN7UCWPdLQ7ukyYWrQvRvp5G6Hx7pD3nA68H4iWuGkzSqGi/5bnfCxR5oeS5O7udzOQJY7l+zeY/bNejlQ39b6FLflPeZO4qbMO+rfjmW7I11eRASu1kD9l5JS3bR01D/vyXKXSpxhvx/p8t7/jJ4sN0/QXICs5z7OlagQGUYyjOk0OSvoLuVKMZmKVQZuT1gvvWk2dzLYXJf2uM6rJ/tlT3KSs0ON4C7l6uHx77s+NL2/74OK2WSosGHf1DFp9WRpLOd+pMuNX3YkLb3/s7oZ8bOLjjXQ8DzqDTve9LE1UN9ebo5ZZ5R4Y/PEC14t18u2bq2sv1H4fJo0UJt2/sXeIMNIhjGdcHqlTSctq6fhubdGzOe6c00u4qey/Glh56KnSzf0encp5y650MCyR17Vp+V/5liTi7GxZsBafYa7jHlv/yK4mupbO3x7pOl5L+JF5qKX9SnwwNudzzXd+PxQQYL/meHHI95raMv798xZNBEcwpvDt6NPb77w1qW5Y528/mW9iyYqFR0sWZLkzjW5W88uepnumLeyBrqxB7Kcca7Cm8aKOp/GPS+IWRlUiAwjGcb8mnbSWgVLHn9tn/klpvWAw9t5igCmp+HtSLaWct3l6rUd2edj3UwGsQUD9nmwBYn/uQMNbzu6vEj1baO5Y50cjuN/7a4fj2WlKXZZDyCeXhMRWIT/f2cuRz3ZVk+2NY4OSleBhzSXY/q3zvH39f11P1CkY32m4fF9cjFHEbY45jVWT8PbqGDf9Jocn5NaR/3zgTQxBIsB4XEXyRpoeOytU0wK5mPH7eN7jDVJG6Bu8zdKWsZjyibmeQ2wQ2QYyTBup4igcedBp2H6aO1iEPK4HnCpycVo7QJj2QMva3g+Vt+YfetJk4GO7oKvHenmvCerP1L/PuK19mgVLG62PPGyjjvqZeeMdLJ2cffWlyVVg4bXOj5lA9MEC3NNJkvZ/Y76xz1NIopx/Gl2L7iMkvPvu6HMC3FRx+y/Zq7LjK1k/L/TLljHI9lO/A1RLu7S+2/DUky19apAxooveLFerm7YOnM5TtK/c4F/o7jzZNxUdNrKrCbdsKPxyDCSYdxe0okrfCIs/Q55qcnrniaJj617Wg842shGuM5Yl5Oebvpey5lJzIXRcudrwaL32pEunbmGdvRr7ZdepsidbE5bu85Ik5dzDZvWCsjAvZ/L7Q9k2T3ZCgeFqx5+WmpyF7cubanJ6+/qV2uzdZt/3/CwCw5b926kiT1+nJLeafuXx2POPiYbwR6pL6/djmUPZLnj+CrkqKURSWLXKCavYbQ6A/WVtjK84L8RAR4ajr2kW6TQ7xu3tiZJg5p3e9Na8dWZ7uqiY5q2jZtqc+7ngc+IeW3MOsRU03dN4o41cSTJa8ez5rGHX1Jz6HXZ70m8QODosKejujd9rrtAwO06y9DyipbLOgVten2Nz53YT2QYyTCmF84OmgphTGt3TI/XRoZt0wxZktjiky0+13vP/boAO/erFi3HXgGE/2/5mOVd9Rg07eCSto4A27GORxq+jHjcH7drNzRzXd71NE1Ys9sqaTKNZCNRQ6xhZA3jdtJcpRt94uuofztXv+rD2HeRxS899VdrSB1nGRsABq+taesI9jGYTFegtD33LrrVjX0es1TCGWvi9tSPW7O7z4ID0lymvynqBjz4vkDJyDCSYdxe3FV6X05qSQvc23QB3Jmn4pfHdZ1+U2hnrF8F/o2TNgyK+r2pUfd+DNNO5oAxdQZ9a17A3zfcdWXPxDdUUtC49zfgaDIyjGQYi7G37R6Wmly0LCtSkcfil/5A9t1IWhX/BAsYsuy80q7rat6tAXd1POvc+7kczTf+O7I6+7W0IpW4oDEqExn1WiCDIofSMz/D2EZf/OLnVR9CqSK/b94gL6rktKj3roWqdttI/tytLrLWQDezuaa3g7JihfTWil/8Api5frua/ixy5xWuuzsSt/dzKZXnNReX8j44iJ5yjvoBMjBdgvNcnqmSbpGN7xu8y92Gae6vwUGjV43sTZFGsgYanu+uL2JcYJimKjs2qPQv6Hl6/ZXArx63z0eyJbkT8842xfHWqk7rGkzvtRpvhbhLO917Em0XviwXcc9BhrFFjN83bWBnujMOLyJruMe2Of2R+uG2IFZPw9uBbLsnFbz+6rHlTn+00Y7EOh6rb8V/3tMxR7QysQa6WW3953/GLvhBq99PMhMnuNtLfEujKP5wjErYJLGOgzu9DHbXHB1rdluo05F9PFhlq72fjf+O8woNNuMZb0/Oh2gOUw4ny7blYaxhZA3jk20qAEyjsqncp+bc/fOx+sGtAf2nONEVo1txRrp0vIDPPh9ruva5S00my1X1sPmYN19rOuaO+ucjr+dhgFcY4X3/tRaJ7lyXF9H9Cp8acY80nYWyR+5YJxG7uTzxCyQ6T70XDTUCaaZcGtvZKaOyqqSL47eQSplhjJvujrWUczeWrJ76x4OnYDFjT881SQMuy6CKW8azbwMTe4Mqaaqk1+U5Ye3xCc69G+jovudtAxjYcsx159n2o83IuRjoxB5peNyTtfpc153r8mIkxxoZ2/zkPmbDlmqZLtbuWCevlxqej9Y+3/td8sv9wMe5WwWkD+mG5TZ3zuXv9FK08qqkE/swRr3GHqjfkZzl8mk5hDVY/XtnWB7hZss6e6+Za3Ixl3s+V18jXV5kKw7KJO35MyoFlKXlDpBC0b3gD37wyasHL8P4f9sdWQP93d+/alWGceP7mqry0vQIS/M8ICVvSPX00+lItua6PBxttX6xHZti9DScjWS7Y53k2kt6qYlhL/T1F4w0Pe/JuejF92G0TX+3zmoP9t7azUfc+2WX/98iFcOA+vXsN/r+0d/G/j51qSrnVRQg6dyXt7sEaxhbxPh9sxarULWHHbD6/yhbD6tG3kjFXcq5y5M1W8p1DPs8Rz5/tKpkjziM+5FOjEG+9/rH57hzTV4XFSyWKOK8l6u0L67ohfMqtmSabUm6tBtXXZBhJMNoHF2cvFCSg4OOPr35Qn1rqcnJZ5psOSvcjgwjnnRk2d7+1YVLGEzT2W90dPg9c+ucIAYkdizNshxTnihqiJJhbJGN75umrUOD2+KgYayXXtGNO9dvXYYeslruJlgsQrjjPFAAU1eILGu+076GPowtEvl9CRpRF+4v9U9H39X3T375OL1axNDj+oxaYLoZOxQXNEb1YMxaDOMjw9gimb4vQSNqIs2am+Bddp4+jIBRnhJ8BiFKtushR4axRTJ/X4JGVCTv0GOpGEqxd1uhYl8UNQwjq6vf//Cjh/e67+qbr78q5lOwf7gKoyThOqy4oZf2eUAmSYvBsl6NGYjYsbQdm8LPzfN7MoxIxkkPFYnKNGZZqwOkYlrHkKXcngGIiqSZlYm794nb5TeMDCPSo6ksdixuiOWpAgRSM+28En7c9Jo0vwMKlHW2JU2L5ThkGJEed88oCVPMKE1ccJc2m8jgRI3EBYh+FtE0ZBM3eCPD2C7d0ytdHT6XJC1m17qezbRYVHxQ2FtZt8VN2/c46jlALkkzJ3lnVpiRQQnKPGeSYWyd5+p2u+p2uzo6vdKXb97ox92qjwn7KHhnm1bWhdgUpgLApjyNuZOQYWytro6uPtfVYVdaXOvjV9ci0Ygi5Z1WTnNnzBIxFCZL6WiYafCRYUROWddsl7X2mwxjay00PbvWVJK6XZFkxK5tkw0Mn+RYPoZSpOkaH4cBiozSFuunfa8i3ieInV4AlCbPyYprLnbKH2AUuaDm8mxgUOSQJcMIYKe2aevAtRmFMaVvTGWjUVfcbZp5AxGigryooWcabqZ+ikWcS8kwtpk/Fb1YsH4RO5UnaCRYxE4Q4KFh8pwL44peWMOYExlGoDxUOKM2ihh83NGgIGmK+ExJbVMCvEhkGNvs+SrD+JYMI4qXpq0DQSMqs+3gY/CihnZ5H0OGEcDOEDSi1hh8qIEigrwylvGQYWyz2dRrq3N4pKOqjwWtQtCISmUpWvErCcJ7rEW9F7ClPJXQZTn4wSevHn63+L3+/Kc/lv/pFfvshz8iaOye6urzUx11FSp+eavrV2deQAnsCHtGo1ThDsdpAr+8jbuBDJLOhUU34c7j2b/88xsyjPCstgz0fqo+GLQBmUZUKi7TGMwipqlCAFIIJquTEtVxz6vSO//wyatWr2Fsd9B4qKs3pzrSQtdnP9HPZpS+oHwPD/U5IaKFggMwa59GICXTzivB3vFpEtrB4Vrm0GQNY5v5axdn1wSLqBTXY5QqzVoIBiUKkrTzStLv69KXlippALVQl5MiABTFtPOK6XxXx50oyTC2md9/0e/HCABNknUtQ5bCFtZJoKaqCiLJMAIAmidp3WHW95E2UzoEjai5MocoGcY289vodMkwAmiYbQM7U5lqneYB0QqmCmqTUoteyDACABonfEXdJtUSV/RC4IgtmYZQmp7xpvctvQ8jGUYAwF7IEzQSFKIG4opc6rQqggxji3X9tjprO7wAQIMlXWGZesYOmKaR47KBcUFiXYflwfsffvTwXvddffP1V1UfC0rQPb3S1eHztXWL07MXOptVelgAkE14/SH7TKJCRW8vXsftyskwts5zb+s/SYvFTNdnrwgWATRXcJuMoDrN5aFVihh6dQkSg8gwAgCaKWpvNDKNqEBUkLjN0CPDWDPtzDACwJ5Is6UfmUZUZN+GHhlGAMD+IdOIkvlDLrykNm1rnbovxSXDCADYP2QaUaE8feXrHCxKZBgBAPus7ldh7I1ghjH8WPDx8POKXv+4K++0OcMIANhz4Xm+qEIZYEeCw8/Up7EJWr3TCwCgBYLdkZtydUZjpUlqN3EYtnoNIwCgRZp4lQZqovUZxu7plb5880Zfvnmjq9NDdbvJrwEAAPsta51U3P1I1Ps0sQaLDKO/80m3q6NV8PhjgkYAAForad1h1veRNveNblrQ2PoM4+L6lT548UIfvHils9lCUlenn5+KmBEAgHbaNrA7OIjvxdjUlRFkGB8tND271lSSVnstAwAAbJMNjCt6aVrg2PoMIwAAQJI8QWPTgkITMowAAAAxskxP78PUcxwyjEH+VPRioUXVxwIAACph6qWYJmjct2BRIsMIAACwJqrPe5MrnItAhjHo+SrD+JYMIwAAWNfmoJEMIwAAQEjctHJbg0YyjEGzqddW5/BIR1UfCwAAqKU2Bo0HP/jk1cPvFr/Xn//0x6qPpR66p7r6/FRHXYWKX97q+tWZF1ACAIDWi2vOvY/e8TOM33xNwLhhrYH32woPBAAA1M3Dw/o2gvscNL7DGsagQ129OdWRFro++4l+NqP0BQAAxGtL0MgaxiB/7eLsmmARAACkEtWGZ99QJQ0AALClfQ4WJTKM6/z+i8+DaxcBAADajQwjAAAAjMgwBvltdLpkGAEAAHxkGAEAAGBEhhEAAABGZBgDun5bnbUdXgAAANqt9Tu9dE+vdHX4fG3d4vT6moARAABghZ1e9FzdrhcqLhYzza6v9bNZxYcEAABQIwfvf/jRg5dh/KrqYwEAAEANsYYRAAAARlRJAwAAwIgMIwAAAIzIMAIAAMCIDCMAAACMyDACAADAiAwjAAAAjKJ3eume6urzw8edTx69nensjF1QAAAA2iR2p5duYKu8J2yBAgAA0DbRaxgX1/r4xQt94P+8IqsIAADQVqxhBAAAgBFV0gAAADAiwwgAAAAjMowAAAAwiq2SrpWDg83HHh7KPw4AAIAWqn+GMSpYND0OAACAQtV7DWMwKHx42MwqEjQCAADsXH0zjOFgMep/AwAAYOfqnWGUogNEgkYAAIDS1DfDmMXBAdPTAAAAO1L/DGOUYHAY/t8EjgAAAIWqf4YxHACmCQgJGgEAAApT3z6MDw9PgZ8pAAyuZwxnG1nrCAAAsLXqM4ymaeSkgC/8ewJEAACAwlW7hjFuLWJQVP9F//G45wMAAKAw1WYYszTiJhAEAACoRP2qpLctWKHgBQAAoFDVr2GMQtAHAABQG/XLMPqigsZwRbSpByNT2AAAAIV4x88wfvP1H58e7Z7q6vNDdZ8eCPzvHQq20pGiW+NEPSfqfQAAAFCI2D6M3W5FQaIpaPQfDz8n/H5ABtxzAABgdvD+hx89eBnGryo8ikAgGH4sStTzuMIjBwrzAQBIVt81jGn7LMb1aQQShBPb4aFE7RUAAJ7dVUn7RSimnVySEAhiR6iPAgAgveIzjHEBYprAMfz7uPcBCpJlEyEAANqq2AxjmmAubcBnSgERNKJE2yTJAQDYB7FV0lvLuu2f//vw8/z3MVVGAwWK69pEfRUAoK2KyzAmLQrLU00QV+DCFRsFyXMPwn0LAKBtdpdh3BZBIXbIlNQOP8+X1FMeAIB9Ve5e0qYsY/B3XIlRENP6w6RhFpXgBgCgjerVh5HpZuyIKWjMUinN8AQAtFG5GUYWf6FC7OoCAEA+xWUY8xS1EECiZNsOOYYsAKCNsmcYwzu4xFVHm54HVCjNmkaGKwAAT9JnGE1BX5Z91pj7Qw1k7TFvujcCAGDf5VvDmFScEldFEGzCDZQsTS/5qOeYCvoBAGiDdBnGuNRKUpucNI22mfvDDiW1xonKIma9FwKMWJ4DYA9kyzBm6T8C1FTaLGL43oihjszSLOMBgAaorg8jV19UKG2fRQJF5BaemQkPJoJGAA3y/21Y3iQKjISdAAAAAElFTkSuQmCC;" vertex="1" parent="1">
          <mxGeometry x="326" y="275.5" width="254.32" height="220" as="geometry" />
        </mxCell>
        <mxCell id="eTYl17Q82dRJUSIDoP6t-45" style="edgeStyle=orthogonalEdgeStyle;rounded=0;orthogonalLoop=1;jettySize=auto;html=1;exitX=1;exitY=0.5;exitDx=0;exitDy=0;entryX=0.5;entryY=1;entryDx=0;entryDy=0;fontSize=13;fontColor=#0000FF;" edge="1" parent="1" source="eTYl17Q82dRJUSIDoP6t-43" target="eTYl17Q82dRJUSIDoP6t-12">
          <mxGeometry relative="1" as="geometry" />
        </mxCell>
        <mxCell id="eTYl17Q82dRJUSIDoP6t-43" value="查找任务类型&lt;br&gt;JSON配置" style="rounded=0;whiteSpace=wrap;html=1;fontSize=13;glass=0;strokeWidth=1;shadow=0;fillColor=#d5e8d4;strokeColor=#82b366;" vertex="1" parent="1">
          <mxGeometry x="250" y="215.5" width="120" height="40" as="geometry" />
        </mxCell>
        <mxCell id="eTYl17Q82dRJUSIDoP6t-50" value="前端展示" style="rounded=0;whiteSpace=wrap;html=1;fontSize=13;glass=0;strokeWidth=1;shadow=0;fillColor=#d5e8d4;strokeColor=#82b366;" vertex="1" parent="1">
          <mxGeometry x="620" y="125" width="120" height="40" as="geometry" />
        </mxCell>
      </root>
    </mxGraphModel>
  </diagram>
</mxfile>
